<?xml version="1.0" encoding="utf-8" standalone="no"?>
<!DOCTYPE svg PUBLIC "-//W3C//DTD SVG 1.1//EN"
  "http://www.w3.org/Graphics/SVG/1.1/DTD/svg11.dtd">
<!-- Created with matplotlib (https://matplotlib.org/) -->
<svg height="345.6pt" version="1.1" viewBox="0 0 460.8 345.6" width="460.8pt" xmlns="http://www.w3.org/2000/svg" xmlns:xlink="http://www.w3.org/1999/xlink">
 <defs>
  <style type="text/css">
*{stroke-linecap:butt;stroke-linejoin:round;}
  </style>
 </defs>
 <g id="figure_1">
  <g id="patch_1">
   <path d="M 0 345.6 
L 460.8 345.6 
L 460.8 0 
L 0 0 
z
" style="fill:#ffffff;"/>
  </g>
  <g id="axes_1">
   <g id="text_1">
    <!-- CcpA -->
    <defs>
     <path d="M 64.40625 67.28125 
L 64.40625 56.890625 
Q 59.421875 61.53125 53.78125 63.8125 
Q 48.140625 66.109375 41.796875 66.109375 
Q 29.296875 66.109375 22.65625 58.46875 
Q 16.015625 50.828125 16.015625 36.375 
Q 16.015625 21.96875 22.65625 14.328125 
Q 29.296875 6.6875 41.796875 6.6875 
Q 48.140625 6.6875 53.78125 8.984375 
Q 59.421875 11.28125 64.40625 15.921875 
L 64.40625 5.609375 
Q 59.234375 2.09375 53.4375 0.328125 
Q 47.65625 -1.421875 41.21875 -1.421875 
Q 24.65625 -1.421875 15.125 8.703125 
Q 5.609375 18.84375 5.609375 36.375 
Q 5.609375 53.953125 15.125 64.078125 
Q 24.65625 74.21875 41.21875 74.21875 
Q 47.75 74.21875 53.53125 72.484375 
Q 59.328125 70.75 64.40625 67.28125 
z
" id="DejaVuSans-67"/>
     <path d="M 48.78125 52.59375 
L 48.78125 44.1875 
Q 44.96875 46.296875 41.140625 47.34375 
Q 37.3125 48.390625 33.40625 48.390625 
Q 24.65625 48.390625 19.8125 42.84375 
Q 14.984375 37.3125 14.984375 27.296875 
Q 14.984375 17.28125 19.8125 11.734375 
Q 24.65625 6.203125 33.40625 6.203125 
Q 37.3125 6.203125 41.140625 7.25 
Q 44.96875 8.296875 48.78125 10.40625 
L 48.78125 2.09375 
Q 45.015625 0.34375 40.984375 -0.53125 
Q 36.96875 -1.421875 32.421875 -1.421875 
Q 20.0625 -1.421875 12.78125 6.34375 
Q 5.515625 14.109375 5.515625 27.296875 
Q 5.515625 40.671875 12.859375 48.328125 
Q 20.21875 56 33.015625 56 
Q 37.15625 56 41.109375 55.140625 
Q 45.0625 54.296875 48.78125 52.59375 
z
" id="DejaVuSans-99"/>
     <path d="M 18.109375 8.203125 
L 18.109375 -20.796875 
L 9.078125 -20.796875 
L 9.078125 54.6875 
L 18.109375 54.6875 
L 18.109375 46.390625 
Q 20.953125 51.265625 25.265625 53.625 
Q 29.59375 56 35.59375 56 
Q 45.5625 56 51.78125 48.09375 
Q 58.015625 40.1875 58.015625 27.296875 
Q 58.015625 14.40625 51.78125 6.484375 
Q 45.5625 -1.421875 35.59375 -1.421875 
Q 29.59375 -1.421875 25.265625 0.953125 
Q 20.953125 3.328125 18.109375 8.203125 
z
M 48.6875 27.296875 
Q 48.6875 37.203125 44.609375 42.84375 
Q 40.53125 48.484375 33.40625 48.484375 
Q 26.265625 48.484375 22.1875 42.84375 
Q 18.109375 37.203125 18.109375 27.296875 
Q 18.109375 17.390625 22.1875 11.75 
Q 26.265625 6.109375 33.40625 6.109375 
Q 40.53125 6.109375 44.609375 11.75 
Q 48.6875 17.390625 48.6875 27.296875 
z
" id="DejaVuSans-112"/>
     <path d="M 34.1875 63.1875 
L 20.796875 26.90625 
L 47.609375 26.90625 
z
M 28.609375 72.90625 
L 39.796875 72.90625 
L 67.578125 0 
L 57.328125 0 
L 50.6875 18.703125 
L 17.828125 18.703125 
L 11.1875 0 
L 0.78125 0 
z
" id="DejaVuSans-65"/>
    </defs>
    <g transform="translate(355.993222 151.047529)scale(0.12 -0.12)">
     <use xlink:href="#DejaVuSans-67"/>
     <use x="69.824219" xlink:href="#DejaVuSans-99"/>
     <use x="124.804688" xlink:href="#DejaVuSans-112"/>
     <use x="188.28125" xlink:href="#DejaVuSans-65"/>
    </g>
   </g>
   <g id="patch_2">
    <path clip-path="url(#p60e60716d0)" d="M 73.832727 307.584 
L 77.232251 307.584 
L 77.232251 304.863243 
L 73.832727 304.863243 
z
" style="fill:#a7382c;"/>
   </g>
   <g id="patch_3">
    <path clip-path="url(#p60e60716d0)" d="M 78.082132 307.584 
L 81.481656 307.584 
L 81.481656 304.835933 
L 78.082132 304.835933 
z
" style="fill:#a7382c;"/>
   </g>
   <g id="patch_4">
    <path clip-path="url(#p60e60716d0)" d="M 82.331537 307.584 
L 85.731061 307.584 
L 85.731061 304.634493 
L 82.331537 304.634493 
z
" style="fill:#a7382c;"/>
   </g>
   <g id="patch_5">
    <path clip-path="url(#p60e60716d0)" d="M 86.580942 307.584 
L 89.980466 307.584 
L 89.980466 304.625553 
L 86.580942 304.625553 
z
" style="fill:#a7382c;"/>
   </g>
   <g id="patch_6">
    <path clip-path="url(#p60e60716d0)" d="M 90.830347 307.584 
L 94.229871 307.584 
L 94.229871 304.539685 
L 90.830347 304.539685 
z
" style="fill:#a7382c;"/>
   </g>
   <g id="patch_7">
    <path clip-path="url(#p60e60716d0)" d="M 95.079752 307.584 
L 98.479277 307.584 
L 98.479277 303.107659 
L 95.079752 303.107659 
z
" style="fill:#a7382c;"/>
   </g>
   <g id="patch_8">
    <path clip-path="url(#p60e60716d0)" d="M 99.329158 307.584 
L 102.728682 307.584 
L 102.728682 302.907083 
L 99.329158 302.907083 
z
" style="fill:#a7382c;"/>
   </g>
   <g id="patch_9">
    <path clip-path="url(#p60e60716d0)" d="M 103.578563 307.584 
L 106.978087 307.584 
L 106.978087 302.836312 
L 103.578563 302.836312 
z
" style="fill:#a7382c;"/>
   </g>
   <g id="patch_10">
    <path clip-path="url(#p60e60716d0)" d="M 107.827968 307.584 
L 111.227492 307.584 
L 111.227492 301.961724 
L 107.827968 301.961724 
z
" style="fill:#a7382c;"/>
   </g>
   <g id="patch_11">
    <path clip-path="url(#p60e60716d0)" d="M 112.077373 307.584 
L 115.476897 307.584 
L 115.476897 301.790025 
L 112.077373 301.790025 
z
" style="fill:#a7382c;"/>
   </g>
   <g id="patch_12">
    <path clip-path="url(#p60e60716d0)" d="M 116.326778 307.584 
L 119.726302 307.584 
L 119.726302 301.430574 
L 116.326778 301.430574 
z
" style="fill:#a7382c;"/>
   </g>
   <g id="patch_13">
    <path clip-path="url(#p60e60716d0)" d="M 120.576183 307.584 
L 123.975707 307.584 
L 123.975707 301.022528 
L 120.576183 301.022528 
z
" style="fill:#a7382c;"/>
   </g>
   <g id="patch_14">
    <path clip-path="url(#p60e60716d0)" d="M 124.825588 307.584 
L 128.225112 307.584 
L 128.225112 300.055079 
L 124.825588 300.055079 
z
" style="fill:#a7382c;"/>
   </g>
   <g id="patch_15">
    <path clip-path="url(#p60e60716d0)" d="M 129.074993 307.584 
L 132.474517 307.584 
L 132.474517 299.593789 
L 129.074993 299.593789 
z
" style="fill:#a7382c;"/>
   </g>
   <g id="patch_16">
    <path clip-path="url(#p60e60716d0)" d="M 133.324398 307.584 
L 136.723922 307.584 
L 136.723922 299.537382 
L 133.324398 299.537382 
z
" style="fill:#a7382c;"/>
   </g>
   <g id="patch_17">
    <path clip-path="url(#p60e60716d0)" d="M 137.573803 307.584 
L 140.973327 307.584 
L 140.973327 297.959876 
L 137.573803 297.959876 
z
" style="fill:#a7382c;"/>
   </g>
   <g id="patch_18">
    <path clip-path="url(#p60e60716d0)" d="M 141.823208 307.584 
L 145.222732 307.584 
L 145.222732 297.875008 
L 141.823208 297.875008 
z
" style="fill:#a7382c;"/>
   </g>
   <g id="patch_19">
    <path clip-path="url(#p60e60716d0)" d="M 146.072613 307.584 
L 149.472137 307.584 
L 149.472137 297.700742 
L 146.072613 297.700742 
z
" style="fill:#a7382c;"/>
   </g>
   <g id="patch_20">
    <path clip-path="url(#p60e60716d0)" d="M 150.322018 307.584 
L 153.721542 307.584 
L 153.721542 297.363497 
L 150.322018 297.363497 
z
" style="fill:#a7382c;"/>
   </g>
   <g id="patch_21">
    <path clip-path="url(#p60e60716d0)" d="M 154.571423 307.584 
L 157.970947 307.584 
L 157.970947 297.334246 
L 154.571423 297.334246 
z
" style="fill:#a7382c;"/>
   </g>
   <g id="patch_22">
    <path clip-path="url(#p60e60716d0)" d="M 158.820828 307.584 
L 162.220352 307.584 
L 162.220352 296.302696 
L 158.820828 296.302696 
z
" style="fill:#a7382c;"/>
   </g>
   <g id="patch_23">
    <path clip-path="url(#p60e60716d0)" d="M 163.070233 307.584 
L 166.469757 307.584 
L 166.469757 295.517372 
L 163.070233 295.517372 
z
" style="fill:#a7382c;"/>
   </g>
   <g id="patch_24">
    <path clip-path="url(#p60e60716d0)" d="M 167.319638 307.584 
L 170.719162 307.584 
L 170.719162 295.144434 
L 167.319638 295.144434 
z
" style="fill:#a7382c;"/>
   </g>
   <g id="patch_25">
    <path clip-path="url(#p60e60716d0)" d="M 171.569043 307.584 
L 174.968567 307.584 
L 174.968567 295.030488 
L 171.569043 295.030488 
z
" style="fill:#a7382c;"/>
   </g>
   <g id="patch_26">
    <path clip-path="url(#p60e60716d0)" d="M 175.818448 307.584 
L 179.217972 307.584 
L 179.217972 294.899511 
L 175.818448 294.899511 
z
" style="fill:#a7382c;"/>
   </g>
   <g id="patch_27">
    <path clip-path="url(#p60e60716d0)" d="M 180.067853 307.584 
L 183.467377 307.584 
L 183.467377 294.68512 
L 180.067853 294.68512 
z
" style="fill:#a7382c;"/>
   </g>
   <g id="patch_28">
    <path clip-path="url(#p60e60716d0)" d="M 184.317258 307.584 
L 187.716782 307.584 
L 187.716782 294.069378 
L 184.317258 294.069378 
z
" style="fill:#a7382c;"/>
   </g>
   <g id="patch_29">
    <path clip-path="url(#p60e60716d0)" d="M 188.566663 307.584 
L 191.966188 307.584 
L 191.966188 293.929327 
L 188.566663 293.929327 
z
" style="fill:#a7382c;"/>
   </g>
   <g id="patch_30">
    <path clip-path="url(#p60e60716d0)" d="M 192.816069 307.584 
L 196.215593 307.584 
L 196.215593 293.029443 
L 192.816069 293.029443 
z
" style="fill:#a7382c;"/>
   </g>
   <g id="patch_31">
    <path clip-path="url(#p60e60716d0)" d="M 197.065474 307.584 
L 200.464998 307.584 
L 200.464998 292.233406 
L 197.065474 292.233406 
z
" style="fill:#a7382c;"/>
   </g>
   <g id="patch_32">
    <path clip-path="url(#p60e60716d0)" d="M 201.314879 307.584 
L 204.714403 307.584 
L 204.714403 292.209722 
L 201.314879 292.209722 
z
" style="fill:#a7382c;"/>
   </g>
   <g id="patch_33">
    <path clip-path="url(#p60e60716d0)" d="M 205.564284 307.584 
L 208.963808 307.584 
L 208.963808 291.782791 
L 205.564284 291.782791 
z
" style="fill:#a7382c;"/>
   </g>
   <g id="patch_34">
    <path clip-path="url(#p60e60716d0)" d="M 209.813689 307.584 
L 213.213213 307.584 
L 213.213213 291.695034 
L 209.813689 291.695034 
z
" style="fill:#a7382c;"/>
   </g>
   <g id="patch_35">
    <path clip-path="url(#p60e60716d0)" d="M 214.063094 307.584 
L 217.462618 307.584 
L 217.462618 290.422936 
L 214.063094 290.422936 
z
" style="fill:#a7382c;"/>
   </g>
   <g id="patch_36">
    <path clip-path="url(#p60e60716d0)" d="M 218.312499 307.584 
L 221.712023 307.584 
L 221.712023 290.103784 
L 218.312499 290.103784 
z
" style="fill:#a7382c;"/>
   </g>
   <g id="patch_37">
    <path clip-path="url(#p60e60716d0)" d="M 222.561904 307.584 
L 225.961428 307.584 
L 225.961428 289.686866 
L 222.561904 289.686866 
z
" style="fill:#a7382c;"/>
   </g>
   <g id="patch_38">
    <path clip-path="url(#p60e60716d0)" d="M 226.811309 307.584 
L 230.210833 307.584 
L 230.210833 289.133064 
L 226.811309 289.133064 
z
" style="fill:#a7382c;"/>
   </g>
   <g id="patch_39">
    <path clip-path="url(#p60e60716d0)" d="M 231.060714 307.584 
L 234.460238 307.584 
L 234.460238 288.2204 
L 231.060714 288.2204 
z
" style="fill:#a7382c;"/>
   </g>
   <g id="patch_40">
    <path clip-path="url(#p60e60716d0)" d="M 235.310119 307.584 
L 238.709643 307.584 
L 238.709643 287.739228 
L 235.310119 287.739228 
z
" style="fill:#a7382c;"/>
   </g>
   <g id="patch_41">
    <path clip-path="url(#p60e60716d0)" d="M 239.559524 307.584 
L 242.959048 307.584 
L 242.959048 286.391612 
L 239.559524 286.391612 
z
" style="fill:#a7382c;"/>
   </g>
   <g id="patch_42">
    <path clip-path="url(#p60e60716d0)" d="M 243.808929 307.584 
L 247.208453 307.584 
L 247.208453 286.211397 
L 243.808929 286.211397 
z
" style="fill:#a7382c;"/>
   </g>
   <g id="patch_43">
    <path clip-path="url(#p60e60716d0)" d="M 248.058334 307.584 
L 251.457858 307.584 
L 251.457858 285.227619 
L 248.058334 285.227619 
z
" style="fill:#a7382c;"/>
   </g>
   <g id="patch_44">
    <path clip-path="url(#p60e60716d0)" d="M 252.307739 307.584 
L 255.707263 307.584 
L 255.707263 283.936053 
L 252.307739 283.936053 
z
" style="fill:#a7382c;"/>
   </g>
   <g id="patch_45">
    <path clip-path="url(#p60e60716d0)" d="M 256.557144 307.584 
L 259.956668 307.584 
L 259.956668 283.316154 
L 256.557144 283.316154 
z
" style="fill:#a7382c;"/>
   </g>
   <g id="patch_46">
    <path clip-path="url(#p60e60716d0)" d="M 260.806549 307.584 
L 264.206073 307.584 
L 264.206073 282.837279 
L 260.806549 282.837279 
z
" style="fill:#a7382c;"/>
   </g>
   <g id="patch_47">
    <path clip-path="url(#p60e60716d0)" d="M 265.055954 307.584 
L 268.455478 307.584 
L 268.455478 281.680425 
L 265.055954 281.680425 
z
" style="fill:#a7382c;"/>
   </g>
   <g id="patch_48">
    <path clip-path="url(#p60e60716d0)" d="M 269.305359 307.584 
L 272.704883 307.584 
L 272.704883 281.416231 
L 269.305359 281.416231 
z
" style="fill:#a7382c;"/>
   </g>
   <g id="patch_49">
    <path clip-path="url(#p60e60716d0)" d="M 273.554764 307.584 
L 276.954288 307.584 
L 276.954288 280.305634 
L 273.554764 280.305634 
z
" style="fill:#a7382c;"/>
   </g>
   <g id="patch_50">
    <path clip-path="url(#p60e60716d0)" d="M 277.804169 307.584 
L 281.203693 307.584 
L 281.203693 279.387349 
L 277.804169 279.387349 
z
" style="fill:#a7382c;"/>
   </g>
   <g id="patch_51">
    <path clip-path="url(#p60e60716d0)" d="M 282.053574 307.584 
L 285.453099 307.584 
L 285.453099 278.488308 
L 282.053574 278.488308 
z
" style="fill:#a7382c;"/>
   </g>
   <g id="patch_52">
    <path clip-path="url(#p60e60716d0)" d="M 286.30298 307.584 
L 289.702504 307.584 
L 289.702504 278.384316 
L 286.30298 278.384316 
z
" style="fill:#a7382c;"/>
   </g>
   <g id="patch_53">
    <path clip-path="url(#p60e60716d0)" d="M 290.552385 307.584 
L 293.951909 307.584 
L 293.951909 277.325023 
L 290.552385 277.325023 
z
" style="fill:#a7382c;"/>
   </g>
   <g id="patch_54">
    <path clip-path="url(#p60e60716d0)" d="M 294.80179 307.584 
L 298.201314 307.584 
L 298.201314 276.179088 
L 294.80179 276.179088 
z
" style="fill:#a7382c;"/>
   </g>
   <g id="patch_55">
    <path clip-path="url(#p60e60716d0)" d="M 299.051195 307.584 
L 302.450719 307.584 
L 302.450719 272.348676 
L 299.051195 272.348676 
z
" style="fill:#a7382c;"/>
   </g>
   <g id="patch_56">
    <path clip-path="url(#p60e60716d0)" d="M 303.3006 307.584 
L 306.700124 307.584 
L 306.700124 272.300805 
L 303.3006 272.300805 
z
" style="fill:#a7382c;"/>
   </g>
   <g id="patch_57">
    <path clip-path="url(#p60e60716d0)" d="M 307.550005 307.584 
L 310.949529 307.584 
L 310.949529 271.723786 
L 307.550005 271.723786 
z
" style="fill:#a7382c;"/>
   </g>
   <g id="patch_58">
    <path clip-path="url(#p60e60716d0)" d="M 311.79941 307.584 
L 315.198934 307.584 
L 315.198934 269.181802 
L 311.79941 269.181802 
z
" style="fill:#a7382c;"/>
   </g>
   <g id="patch_59">
    <path clip-path="url(#p60e60716d0)" d="M 316.048815 307.584 
L 319.448339 307.584 
L 319.448339 267.053582 
L 316.048815 267.053582 
z
" style="fill:#a7382c;"/>
   </g>
   <g id="patch_60">
    <path clip-path="url(#p60e60716d0)" d="M 320.29822 307.584 
L 323.697744 307.584 
L 323.697744 260.120408 
L 320.29822 260.120408 
z
" style="fill:#a7382c;"/>
   </g>
   <g id="patch_61">
    <path clip-path="url(#p60e60716d0)" d="M 324.547625 307.584 
L 327.947149 307.584 
L 327.947149 258.624907 
L 324.547625 258.624907 
z
" style="fill:#a7382c;"/>
   </g>
   <g id="patch_62">
    <path clip-path="url(#p60e60716d0)" d="M 328.79703 307.584 
L 332.196554 307.584 
L 332.196554 256.970872 
L 328.79703 256.970872 
z
" style="fill:#a7382c;"/>
   </g>
   <g id="patch_63">
    <path clip-path="url(#p60e60716d0)" d="M 333.046435 307.584 
L 336.445959 307.584 
L 336.445959 254.827619 
L 333.046435 254.827619 
z
" style="fill:#a7382c;"/>
   </g>
   <g id="patch_64">
    <path clip-path="url(#p60e60716d0)" d="M 337.29584 307.584 
L 340.695364 307.584 
L 340.695364 245.038771 
L 337.29584 245.038771 
z
" style="fill:#a7382c;"/>
   </g>
   <g id="patch_65">
    <path clip-path="url(#p60e60716d0)" d="M 341.545245 307.584 
L 344.944769 307.584 
L 344.944769 243.905723 
L 341.545245 243.905723 
z
" style="fill:#a7382c;"/>
   </g>
   <g id="patch_66">
    <path clip-path="url(#p60e60716d0)" d="M 345.79465 307.584 
L 349.194174 307.584 
L 349.194174 240.417674 
L 345.79465 240.417674 
z
" style="fill:#a7382c;"/>
   </g>
   <g id="patch_67">
    <path clip-path="url(#p60e60716d0)" d="M 350.044055 307.584 
L 353.443579 307.584 
L 353.443579 239.282065 
L 350.044055 239.282065 
z
" style="fill:#a7382c;"/>
   </g>
   <g id="patch_68">
    <path clip-path="url(#p60e60716d0)" d="M 354.29346 307.584 
L 357.692984 307.584 
L 357.692984 232.793554 
L 354.29346 232.793554 
z
" style="fill:#a7382c;"/>
   </g>
   <g id="patch_69">
    <path clip-path="url(#p60e60716d0)" d="M 358.542865 307.584 
L 361.942389 307.584 
L 361.942389 232.623761 
L 358.542865 232.623761 
z
" style="fill:#a7382c;"/>
   </g>
   <g id="patch_70">
    <path clip-path="url(#p60e60716d0)" d="M 362.79227 307.584 
L 366.191794 307.584 
L 366.191794 230.125163 
L 362.79227 230.125163 
z
" style="fill:#a7382c;"/>
   </g>
   <g id="patch_71">
    <path clip-path="url(#p60e60716d0)" d="M 367.041675 307.584 
L 370.441199 307.584 
L 370.441199 227.349482 
L 367.041675 227.349482 
z
" style="fill:#a7382c;"/>
   </g>
   <g id="patch_72">
    <path clip-path="url(#p60e60716d0)" d="M 371.29108 307.584 
L 374.690604 307.584 
L 374.690604 226.896549 
L 371.29108 226.896549 
z
" style="fill:#a7382c;"/>
   </g>
   <g id="patch_73">
    <path clip-path="url(#p60e60716d0)" d="M 375.540485 307.584 
L 378.94001 307.584 
L 378.94001 226.583922 
L 375.540485 226.583922 
z
" style="fill:#a7382c;"/>
   </g>
   <g id="patch_74">
    <path clip-path="url(#p60e60716d0)" d="M 379.789891 307.584 
L 383.189415 307.584 
L 383.189415 220.390004 
L 379.789891 220.390004 
z
" style="fill:#a7382c;"/>
   </g>
   <g id="patch_75">
    <path clip-path="url(#p60e60716d0)" d="M 384.039296 307.584 
L 387.43882 307.584 
L 387.43882 209.783525 
L 384.039296 209.783525 
z
" style="fill:#a7382c;"/>
   </g>
   <g id="patch_76">
    <path clip-path="url(#p60e60716d0)" d="M 388.288701 307.584 
L 391.688225 307.584 
L 391.688225 206.940709 
L 388.288701 206.940709 
z
" style="fill:#a7382c;"/>
   </g>
   <g id="patch_77">
    <path clip-path="url(#p60e60716d0)" d="M 392.538106 307.584 
L 395.93763 307.584 
L 395.93763 116.09007 
L 392.538106 116.09007 
z
" style="fill:#a7382c;"/>
   </g>
   <g id="matplotlib.axis_1">
    <g id="ytick_1">
     <g id="line2d_1">
      <defs>
       <path d="M 0 0 
L -3.5 0 
" id="m84e4dee33b" style="stroke:#000000;stroke-width:0.8;"/>
      </defs>
      <g>
       <use style="stroke:#000000;stroke-width:0.8;" x="414.72" xlink:href="#m84e4dee33b" y="307.584"/>
      </g>
     </g>
     <g id="text_2">
      <!-- 0.00 -->
      <defs>
       <path d="M 31.78125 66.40625 
Q 24.171875 66.40625 20.328125 58.90625 
Q 16.5 51.421875 16.5 36.375 
Q 16.5 21.390625 20.328125 13.890625 
Q 24.171875 6.390625 31.78125 6.390625 
Q 39.453125 6.390625 43.28125 13.890625 
Q 47.125 21.390625 47.125 36.375 
Q 47.125 51.421875 43.28125 58.90625 
Q 39.453125 66.40625 31.78125 66.40625 
z
M 31.78125 74.21875 
Q 44.046875 74.21875 50.515625 64.515625 
Q 56.984375 54.828125 56.984375 36.375 
Q 56.984375 17.96875 50.515625 8.265625 
Q 44.046875 -1.421875 31.78125 -1.421875 
Q 19.53125 -1.421875 13.0625 8.265625 
Q 6.59375 17.96875 6.59375 36.375 
Q 6.59375 54.828125 13.0625 64.515625 
Q 19.53125 74.21875 31.78125 74.21875 
z
" id="DejaVuSans-48"/>
       <path d="M 10.6875 12.40625 
L 21 12.40625 
L 21 0 
L 10.6875 0 
z
" id="DejaVuSans-46"/>
      </defs>
      <g transform="translate(418.22 311.383219)scale(0.1 -0.1)">
       <use xlink:href="#DejaVuSans-48"/>
       <use x="63.623047" xlink:href="#DejaVuSans-46"/>
       <use x="95.410156" xlink:href="#DejaVuSans-48"/>
       <use x="159.033203" xlink:href="#DejaVuSans-48"/>
      </g>
     </g>
    </g>
    <g id="ytick_2">
     <g id="line2d_2">
      <g>
       <use style="stroke:#000000;stroke-width:0.8;" x="414.72" xlink:href="#m84e4dee33b" y="276.276706"/>
      </g>
     </g>
     <g id="text_3">
      <!-- 0.01 -->
      <defs>
       <path d="M 12.40625 8.296875 
L 28.515625 8.296875 
L 28.515625 63.921875 
L 10.984375 60.40625 
L 10.984375 69.390625 
L 28.421875 72.90625 
L 38.28125 72.90625 
L 38.28125 8.296875 
L 54.390625 8.296875 
L 54.390625 0 
L 12.40625 0 
z
" id="DejaVuSans-49"/>
      </defs>
      <g transform="translate(418.22 280.075925)scale(0.1 -0.1)">
       <use xlink:href="#DejaVuSans-48"/>
       <use x="63.623047" xlink:href="#DejaVuSans-46"/>
       <use x="95.410156" xlink:href="#DejaVuSans-48"/>
       <use x="159.033203" xlink:href="#DejaVuSans-49"/>
      </g>
     </g>
    </g>
    <g id="ytick_3">
     <g id="line2d_3">
      <g>
       <use style="stroke:#000000;stroke-width:0.8;" x="414.72" xlink:href="#m84e4dee33b" y="244.969412"/>
      </g>
     </g>
     <g id="text_4">
      <!-- 0.02 -->
      <defs>
       <path d="M 19.1875 8.296875 
L 53.609375 8.296875 
L 53.609375 0 
L 7.328125 0 
L 7.328125 8.296875 
Q 12.9375 14.109375 22.625 23.890625 
Q 32.328125 33.6875 34.8125 36.53125 
Q 39.546875 41.84375 41.421875 45.53125 
Q 43.3125 49.21875 43.3125 52.78125 
Q 43.3125 58.59375 39.234375 62.25 
Q 35.15625 65.921875 28.609375 65.921875 
Q 23.96875 65.921875 18.8125 64.3125 
Q 13.671875 62.703125 7.8125 59.421875 
L 7.8125 69.390625 
Q 13.765625 71.78125 18.9375 73 
Q 24.125 74.21875 28.421875 74.21875 
Q 39.75 74.21875 46.484375 68.546875 
Q 53.21875 62.890625 53.21875 53.421875 
Q 53.21875 48.921875 51.53125 44.890625 
Q 49.859375 40.875 45.40625 35.40625 
Q 44.1875 33.984375 37.640625 27.21875 
Q 31.109375 20.453125 19.1875 8.296875 
z
" id="DejaVuSans-50"/>
      </defs>
      <g transform="translate(418.22 248.768631)scale(0.1 -0.1)">
       <use xlink:href="#DejaVuSans-48"/>
       <use x="63.623047" xlink:href="#DejaVuSans-46"/>
       <use x="95.410156" xlink:href="#DejaVuSans-48"/>
       <use x="159.033203" xlink:href="#DejaVuSans-50"/>
      </g>
     </g>
    </g>
    <g id="ytick_4">
     <g id="line2d_4">
      <g>
       <use style="stroke:#000000;stroke-width:0.8;" x="414.72" xlink:href="#m84e4dee33b" y="213.662118"/>
      </g>
     </g>
     <g id="text_5">
      <!-- 0.03 -->
      <defs>
       <path d="M 40.578125 39.3125 
Q 47.65625 37.796875 51.625 33 
Q 55.609375 28.21875 55.609375 21.1875 
Q 55.609375 10.40625 48.1875 4.484375 
Q 40.765625 -1.421875 27.09375 -1.421875 
Q 22.515625 -1.421875 17.65625 -0.515625 
Q 12.796875 0.390625 7.625 2.203125 
L 7.625 11.71875 
Q 11.71875 9.328125 16.59375 8.109375 
Q 21.484375 6.890625 26.8125 6.890625 
Q 36.078125 6.890625 40.9375 10.546875 
Q 45.796875 14.203125 45.796875 21.1875 
Q 45.796875 27.640625 41.28125 31.265625 
Q 36.765625 34.90625 28.71875 34.90625 
L 20.21875 34.90625 
L 20.21875 43.015625 
L 29.109375 43.015625 
Q 36.375 43.015625 40.234375 45.921875 
Q 44.09375 48.828125 44.09375 54.296875 
Q 44.09375 59.90625 40.109375 62.90625 
Q 36.140625 65.921875 28.71875 65.921875 
Q 24.65625 65.921875 20.015625 65.03125 
Q 15.375 64.15625 9.8125 62.3125 
L 9.8125 71.09375 
Q 15.4375 72.65625 20.34375 73.4375 
Q 25.25 74.21875 29.59375 74.21875 
Q 40.828125 74.21875 47.359375 69.109375 
Q 53.90625 64.015625 53.90625 55.328125 
Q 53.90625 49.265625 50.4375 45.09375 
Q 46.96875 40.921875 40.578125 39.3125 
z
" id="DejaVuSans-51"/>
      </defs>
      <g transform="translate(418.22 217.461336)scale(0.1 -0.1)">
       <use xlink:href="#DejaVuSans-48"/>
       <use x="63.623047" xlink:href="#DejaVuSans-46"/>
       <use x="95.410156" xlink:href="#DejaVuSans-48"/>
       <use x="159.033203" xlink:href="#DejaVuSans-51"/>
      </g>
     </g>
    </g>
    <g id="ytick_5">
     <g id="line2d_5">
      <g>
       <use style="stroke:#000000;stroke-width:0.8;" x="414.72" xlink:href="#m84e4dee33b" y="182.354824"/>
      </g>
     </g>
     <g id="text_6">
      <!-- 0.04 -->
      <defs>
       <path d="M 37.796875 64.3125 
L 12.890625 25.390625 
L 37.796875 25.390625 
z
M 35.203125 72.90625 
L 47.609375 72.90625 
L 47.609375 25.390625 
L 58.015625 25.390625 
L 58.015625 17.1875 
L 47.609375 17.1875 
L 47.609375 0 
L 37.796875 0 
L 37.796875 17.1875 
L 4.890625 17.1875 
L 4.890625 26.703125 
z
" id="DejaVuSans-52"/>
      </defs>
      <g transform="translate(418.22 186.154042)scale(0.1 -0.1)">
       <use xlink:href="#DejaVuSans-48"/>
       <use x="63.623047" xlink:href="#DejaVuSans-46"/>
       <use x="95.410156" xlink:href="#DejaVuSans-48"/>
       <use x="159.033203" xlink:href="#DejaVuSans-52"/>
      </g>
     </g>
    </g>
    <g id="ytick_6">
     <g id="line2d_6">
      <g>
       <use style="stroke:#000000;stroke-width:0.8;" x="414.72" xlink:href="#m84e4dee33b" y="151.047529"/>
      </g>
     </g>
     <g id="text_7">
      <!-- 0.05 -->
      <defs>
       <path d="M 10.796875 72.90625 
L 49.515625 72.90625 
L 49.515625 64.59375 
L 19.828125 64.59375 
L 19.828125 46.734375 
Q 21.96875 47.46875 24.109375 47.828125 
Q 26.265625 48.1875 28.421875 48.1875 
Q 40.625 48.1875 47.75 41.5 
Q 54.890625 34.8125 54.890625 23.390625 
Q 54.890625 11.625 47.5625 5.09375 
Q 40.234375 -1.421875 26.90625 -1.421875 
Q 22.3125 -1.421875 17.546875 -0.640625 
Q 12.796875 0.140625 7.71875 1.703125 
L 7.71875 11.625 
Q 12.109375 9.234375 16.796875 8.0625 
Q 21.484375 6.890625 26.703125 6.890625 
Q 35.15625 6.890625 40.078125 11.328125 
Q 45.015625 15.765625 45.015625 23.390625 
Q 45.015625 31 40.078125 35.4375 
Q 35.15625 39.890625 26.703125 39.890625 
Q 22.75 39.890625 18.8125 39.015625 
Q 14.890625 38.140625 10.796875 36.28125 
z
" id="DejaVuSans-53"/>
      </defs>
      <g transform="translate(418.22 154.846748)scale(0.1 -0.1)">
       <use xlink:href="#DejaVuSans-48"/>
       <use x="63.623047" xlink:href="#DejaVuSans-46"/>
       <use x="95.410156" xlink:href="#DejaVuSans-48"/>
       <use x="159.033203" xlink:href="#DejaVuSans-53"/>
      </g>
     </g>
    </g>
    <g id="ytick_7">
     <g id="line2d_7">
      <g>
       <use style="stroke:#000000;stroke-width:0.8;" x="414.72" xlink:href="#m84e4dee33b" y="119.740235"/>
      </g>
     </g>
     <g id="text_8">
      <!-- 0.06 -->
      <defs>
       <path d="M 33.015625 40.375 
Q 26.375 40.375 22.484375 35.828125 
Q 18.609375 31.296875 18.609375 23.390625 
Q 18.609375 15.53125 22.484375 10.953125 
Q 26.375 6.390625 33.015625 6.390625 
Q 39.65625 6.390625 43.53125 10.953125 
Q 47.40625 15.53125 47.40625 23.390625 
Q 47.40625 31.296875 43.53125 35.828125 
Q 39.65625 40.375 33.015625 40.375 
z
M 52.59375 71.296875 
L 52.59375 62.3125 
Q 48.875 64.0625 45.09375 64.984375 
Q 41.3125 65.921875 37.59375 65.921875 
Q 27.828125 65.921875 22.671875 59.328125 
Q 17.53125 52.734375 16.796875 39.40625 
Q 19.671875 43.65625 24.015625 45.921875 
Q 28.375 48.1875 33.59375 48.1875 
Q 44.578125 48.1875 50.953125 41.515625 
Q 57.328125 34.859375 57.328125 23.390625 
Q 57.328125 12.15625 50.6875 5.359375 
Q 44.046875 -1.421875 33.015625 -1.421875 
Q 20.359375 -1.421875 13.671875 8.265625 
Q 6.984375 17.96875 6.984375 36.375 
Q 6.984375 53.65625 15.1875 63.9375 
Q 23.390625 74.21875 37.203125 74.21875 
Q 40.921875 74.21875 44.703125 73.484375 
Q 48.484375 72.75 52.59375 71.296875 
z
" id="DejaVuSans-54"/>
      </defs>
      <g transform="translate(418.22 123.539454)scale(0.1 -0.1)">
       <use xlink:href="#DejaVuSans-48"/>
       <use x="63.623047" xlink:href="#DejaVuSans-46"/>
       <use x="95.410156" xlink:href="#DejaVuSans-48"/>
       <use x="159.033203" xlink:href="#DejaVuSans-54"/>
      </g>
     </g>
    </g>
    <g id="ytick_8">
     <g id="line2d_8">
      <g>
       <use style="stroke:#000000;stroke-width:0.8;" x="414.72" xlink:href="#m84e4dee33b" y="88.432941"/>
      </g>
     </g>
     <g id="text_9">
      <!-- 0.07 -->
      <defs>
       <path d="M 8.203125 72.90625 
L 55.078125 72.90625 
L 55.078125 68.703125 
L 28.609375 0 
L 18.3125 0 
L 43.21875 64.59375 
L 8.203125 64.59375 
z
" id="DejaVuSans-55"/>
      </defs>
      <g transform="translate(418.22 92.23216)scale(0.1 -0.1)">
       <use xlink:href="#DejaVuSans-48"/>
       <use x="63.623047" xlink:href="#DejaVuSans-46"/>
       <use x="95.410156" xlink:href="#DejaVuSans-48"/>
       <use x="159.033203" xlink:href="#DejaVuSans-55"/>
      </g>
     </g>
    </g>
    <g id="ytick_9">
     <g id="line2d_9">
      <g>
       <use style="stroke:#000000;stroke-width:0.8;" x="414.72" xlink:href="#m84e4dee33b" y="57.125647"/>
      </g>
     </g>
     <g id="text_10">
      <!-- 0.08 -->
      <defs>
       <path d="M 31.78125 34.625 
Q 24.75 34.625 20.71875 30.859375 
Q 16.703125 27.09375 16.703125 20.515625 
Q 16.703125 13.921875 20.71875 10.15625 
Q 24.75 6.390625 31.78125 6.390625 
Q 38.8125 6.390625 42.859375 10.171875 
Q 46.921875 13.96875 46.921875 20.515625 
Q 46.921875 27.09375 42.890625 30.859375 
Q 38.875 34.625 31.78125 34.625 
z
M 21.921875 38.8125 
Q 15.578125 40.375 12.03125 44.71875 
Q 8.5 49.078125 8.5 55.328125 
Q 8.5 64.0625 14.71875 69.140625 
Q 20.953125 74.21875 31.78125 74.21875 
Q 42.671875 74.21875 48.875 69.140625 
Q 55.078125 64.0625 55.078125 55.328125 
Q 55.078125 49.078125 51.53125 44.71875 
Q 48 40.375 41.703125 38.8125 
Q 48.828125 37.15625 52.796875 32.3125 
Q 56.78125 27.484375 56.78125 20.515625 
Q 56.78125 9.90625 50.3125 4.234375 
Q 43.84375 -1.421875 31.78125 -1.421875 
Q 19.734375 -1.421875 13.25 4.234375 
Q 6.78125 9.90625 6.78125 20.515625 
Q 6.78125 27.484375 10.78125 32.3125 
Q 14.796875 37.15625 21.921875 38.8125 
z
M 18.3125 54.390625 
Q 18.3125 48.734375 21.84375 45.5625 
Q 25.390625 42.390625 31.78125 42.390625 
Q 38.140625 42.390625 41.71875 45.5625 
Q 45.3125 48.734375 45.3125 54.390625 
Q 45.3125 60.0625 41.71875 63.234375 
Q 38.140625 66.40625 31.78125 66.40625 
Q 25.390625 66.40625 21.84375 63.234375 
Q 18.3125 60.0625 18.3125 54.390625 
z
" id="DejaVuSans-56"/>
      </defs>
      <g transform="translate(418.22 60.924866)scale(0.1 -0.1)">
       <use xlink:href="#DejaVuSans-48"/>
       <use x="63.623047" xlink:href="#DejaVuSans-46"/>
       <use x="95.410156" xlink:href="#DejaVuSans-48"/>
       <use x="159.033203" xlink:href="#DejaVuSans-56"/>
      </g>
     </g>
    </g>
    <g id="text_11">
     <!-- Individual explained variance -->
     <defs>
      <path d="M 9.8125 72.90625 
L 19.671875 72.90625 
L 19.671875 0 
L 9.8125 0 
z
" id="DejaVuSans-73"/>
      <path d="M 54.890625 33.015625 
L 54.890625 0 
L 45.90625 0 
L 45.90625 32.71875 
Q 45.90625 40.484375 42.875 44.328125 
Q 39.84375 48.1875 33.796875 48.1875 
Q 26.515625 48.1875 22.3125 43.546875 
Q 18.109375 38.921875 18.109375 30.90625 
L 18.109375 0 
L 9.078125 0 
L 9.078125 54.6875 
L 18.109375 54.6875 
L 18.109375 46.1875 
Q 21.34375 51.125 25.703125 53.5625 
Q 30.078125 56 35.796875 56 
Q 45.21875 56 50.046875 50.171875 
Q 54.890625 44.34375 54.890625 33.015625 
z
" id="DejaVuSans-110"/>
      <path d="M 45.40625 46.390625 
L 45.40625 75.984375 
L 54.390625 75.984375 
L 54.390625 0 
L 45.40625 0 
L 45.40625 8.203125 
Q 42.578125 3.328125 38.25 0.953125 
Q 33.9375 -1.421875 27.875 -1.421875 
Q 17.96875 -1.421875 11.734375 6.484375 
Q 5.515625 14.40625 5.515625 27.296875 
Q 5.515625 40.1875 11.734375 48.09375 
Q 17.96875 56 27.875 56 
Q 33.9375 56 38.25 53.625 
Q 42.578125 51.265625 45.40625 46.390625 
z
M 14.796875 27.296875 
Q 14.796875 17.390625 18.875 11.75 
Q 22.953125 6.109375 30.078125 6.109375 
Q 37.203125 6.109375 41.296875 11.75 
Q 45.40625 17.390625 45.40625 27.296875 
Q 45.40625 37.203125 41.296875 42.84375 
Q 37.203125 48.484375 30.078125 48.484375 
Q 22.953125 48.484375 18.875 42.84375 
Q 14.796875 37.203125 14.796875 27.296875 
z
" id="DejaVuSans-100"/>
      <path d="M 9.421875 54.6875 
L 18.40625 54.6875 
L 18.40625 0 
L 9.421875 0 
z
M 9.421875 75.984375 
L 18.40625 75.984375 
L 18.40625 64.59375 
L 9.421875 64.59375 
z
" id="DejaVuSans-105"/>
      <path d="M 2.984375 54.6875 
L 12.5 54.6875 
L 29.59375 8.796875 
L 46.6875 54.6875 
L 56.203125 54.6875 
L 35.6875 0 
L 23.484375 0 
z
" id="DejaVuSans-118"/>
      <path d="M 8.5 21.578125 
L 8.5 54.6875 
L 17.484375 54.6875 
L 17.484375 21.921875 
Q 17.484375 14.15625 20.5 10.265625 
Q 23.53125 6.390625 29.59375 6.390625 
Q 36.859375 6.390625 41.078125 11.03125 
Q 45.3125 15.671875 45.3125 23.6875 
L 45.3125 54.6875 
L 54.296875 54.6875 
L 54.296875 0 
L 45.3125 0 
L 45.3125 8.40625 
Q 42.046875 3.421875 37.71875 1 
Q 33.40625 -1.421875 27.6875 -1.421875 
Q 18.265625 -1.421875 13.375 4.4375 
Q 8.5 10.296875 8.5 21.578125 
z
M 31.109375 56 
z
" id="DejaVuSans-117"/>
      <path d="M 34.28125 27.484375 
Q 23.390625 27.484375 19.1875 25 
Q 14.984375 22.515625 14.984375 16.5 
Q 14.984375 11.71875 18.140625 8.90625 
Q 21.296875 6.109375 26.703125 6.109375 
Q 34.1875 6.109375 38.703125 11.40625 
Q 43.21875 16.703125 43.21875 25.484375 
L 43.21875 27.484375 
z
M 52.203125 31.203125 
L 52.203125 0 
L 43.21875 0 
L 43.21875 8.296875 
Q 40.140625 3.328125 35.546875 0.953125 
Q 30.953125 -1.421875 24.3125 -1.421875 
Q 15.921875 -1.421875 10.953125 3.296875 
Q 6 8.015625 6 15.921875 
Q 6 25.140625 12.171875 29.828125 
Q 18.359375 34.515625 30.609375 34.515625 
L 43.21875 34.515625 
L 43.21875 35.40625 
Q 43.21875 41.609375 39.140625 45 
Q 35.0625 48.390625 27.6875 48.390625 
Q 23 48.390625 18.546875 47.265625 
Q 14.109375 46.140625 10.015625 43.890625 
L 10.015625 52.203125 
Q 14.9375 54.109375 19.578125 55.046875 
Q 24.21875 56 28.609375 56 
Q 40.484375 56 46.34375 49.84375 
Q 52.203125 43.703125 52.203125 31.203125 
z
" id="DejaVuSans-97"/>
      <path d="M 9.421875 75.984375 
L 18.40625 75.984375 
L 18.40625 0 
L 9.421875 0 
z
" id="DejaVuSans-108"/>
      <path id="DejaVuSans-32"/>
      <path d="M 56.203125 29.59375 
L 56.203125 25.203125 
L 14.890625 25.203125 
Q 15.484375 15.921875 20.484375 11.0625 
Q 25.484375 6.203125 34.421875 6.203125 
Q 39.59375 6.203125 44.453125 7.46875 
Q 49.3125 8.734375 54.109375 11.28125 
L 54.109375 2.78125 
Q 49.265625 0.734375 44.1875 -0.34375 
Q 39.109375 -1.421875 33.890625 -1.421875 
Q 20.796875 -1.421875 13.15625 6.1875 
Q 5.515625 13.8125 5.515625 26.8125 
Q 5.515625 40.234375 12.765625 48.109375 
Q 20.015625 56 32.328125 56 
Q 43.359375 56 49.78125 48.890625 
Q 56.203125 41.796875 56.203125 29.59375 
z
M 47.21875 32.234375 
Q 47.125 39.59375 43.09375 43.984375 
Q 39.0625 48.390625 32.421875 48.390625 
Q 24.90625 48.390625 20.390625 44.140625 
Q 15.875 39.890625 15.1875 32.171875 
z
" id="DejaVuSans-101"/>
      <path d="M 54.890625 54.6875 
L 35.109375 28.078125 
L 55.90625 0 
L 45.3125 0 
L 29.390625 21.484375 
L 13.484375 0 
L 2.875 0 
L 24.125 28.609375 
L 4.6875 54.6875 
L 15.28125 54.6875 
L 29.78125 35.203125 
L 44.28125 54.6875 
z
" id="DejaVuSans-120"/>
      <path d="M 41.109375 46.296875 
Q 39.59375 47.171875 37.8125 47.578125 
Q 36.03125 48 33.890625 48 
Q 26.265625 48 22.1875 43.046875 
Q 18.109375 38.09375 18.109375 28.8125 
L 18.109375 0 
L 9.078125 0 
L 9.078125 54.6875 
L 18.109375 54.6875 
L 18.109375 46.1875 
Q 20.953125 51.171875 25.484375 53.578125 
Q 30.03125 56 36.53125 56 
Q 37.453125 56 38.578125 55.875 
Q 39.703125 55.765625 41.0625 55.515625 
z
" id="DejaVuSans-114"/>
     </defs>
     <g transform="translate(458.162813 306.877219)rotate(-90)scale(0.18 -0.18)">
      <use xlink:href="#DejaVuSans-73"/>
      <use x="29.492188" xlink:href="#DejaVuSans-110"/>
      <use x="92.871094" xlink:href="#DejaVuSans-100"/>
      <use x="156.347656" xlink:href="#DejaVuSans-105"/>
      <use x="184.130859" xlink:href="#DejaVuSans-118"/>
      <use x="243.310547" xlink:href="#DejaVuSans-105"/>
      <use x="271.09375" xlink:href="#DejaVuSans-100"/>
      <use x="334.570312" xlink:href="#DejaVuSans-117"/>
      <use x="397.949219" xlink:href="#DejaVuSans-97"/>
      <use x="459.228516" xlink:href="#DejaVuSans-108"/>
      <use x="487.011719" xlink:href="#DejaVuSans-32"/>
      <use x="518.798828" xlink:href="#DejaVuSans-101"/>
      <use x="580.306641" xlink:href="#DejaVuSans-120"/>
      <use x="639.486328" xlink:href="#DejaVuSans-112"/>
      <use x="702.962891" xlink:href="#DejaVuSans-108"/>
      <use x="730.746094" xlink:href="#DejaVuSans-97"/>
      <use x="792.025391" xlink:href="#DejaVuSans-105"/>
      <use x="819.808594" xlink:href="#DejaVuSans-110"/>
      <use x="883.1875" xlink:href="#DejaVuSans-101"/>
      <use x="944.710938" xlink:href="#DejaVuSans-100"/>
      <use x="1008.1875" xlink:href="#DejaVuSans-32"/>
      <use x="1039.974609" xlink:href="#DejaVuSans-118"/>
      <use x="1099.154297" xlink:href="#DejaVuSans-97"/>
      <use x="1160.433594" xlink:href="#DejaVuSans-114"/>
      <use x="1201.546875" xlink:href="#DejaVuSans-105"/>
      <use x="1229.330078" xlink:href="#DejaVuSans-97"/>
      <use x="1290.609375" xlink:href="#DejaVuSans-110"/>
      <use x="1353.988281" xlink:href="#DejaVuSans-99"/>
      <use x="1408.96875" xlink:href="#DejaVuSans-101"/>
     </g>
    </g>
   </g>
   <g id="patch_78">
    <path d="M 57.6 307.584 
L 57.6 41.472 
" style="fill:none;stroke:#000000;stroke-linecap:square;stroke-linejoin:miter;stroke-width:0.8;"/>
   </g>
   <g id="patch_79">
    <path d="M 414.72 307.584 
L 414.72 41.472 
" style="fill:none;stroke:#000000;stroke-linecap:square;stroke-linejoin:miter;stroke-width:0.8;"/>
   </g>
   <g id="patch_80">
    <path d="M 57.6 307.584 
L 414.72 307.584 
" style="fill:none;stroke:#000000;stroke-linecap:square;stroke-linejoin:miter;stroke-width:0.8;"/>
   </g>
   <g id="patch_81">
    <path d="M 57.6 41.472 
L 414.72 41.472 
" style="fill:none;stroke:#000000;stroke-linecap:square;stroke-linejoin:miter;stroke-width:0.8;"/>
   </g>
   <g id="text_12">
    <!-- Translation -->
    <defs>
     <path d="M -0.296875 72.90625 
L 61.375 72.90625 
L 61.375 64.59375 
L 35.5 64.59375 
L 35.5 0 
L 25.59375 0 
L 25.59375 64.59375 
L -0.296875 64.59375 
z
" id="DejaVuSans-84"/>
     <path d="M 44.28125 53.078125 
L 44.28125 44.578125 
Q 40.484375 46.53125 36.375 47.5 
Q 32.28125 48.484375 27.875 48.484375 
Q 21.1875 48.484375 17.84375 46.4375 
Q 14.5 44.390625 14.5 40.28125 
Q 14.5 37.15625 16.890625 35.375 
Q 19.28125 33.59375 26.515625 31.984375 
L 29.59375 31.296875 
Q 39.15625 29.25 43.1875 25.515625 
Q 47.21875 21.78125 47.21875 15.09375 
Q 47.21875 7.46875 41.1875 3.015625 
Q 35.15625 -1.421875 24.609375 -1.421875 
Q 20.21875 -1.421875 15.453125 -0.5625 
Q 10.6875 0.296875 5.421875 2 
L 5.421875 11.28125 
Q 10.40625 8.6875 15.234375 7.390625 
Q 20.0625 6.109375 24.8125 6.109375 
Q 31.15625 6.109375 34.5625 8.28125 
Q 37.984375 10.453125 37.984375 14.40625 
Q 37.984375 18.0625 35.515625 20.015625 
Q 33.0625 21.96875 24.703125 23.78125 
L 21.578125 24.515625 
Q 13.234375 26.265625 9.515625 29.90625 
Q 5.8125 33.546875 5.8125 39.890625 
Q 5.8125 47.609375 11.28125 51.796875 
Q 16.75 56 26.8125 56 
Q 31.78125 56 36.171875 55.265625 
Q 40.578125 54.546875 44.28125 53.078125 
z
" id="DejaVuSans-115"/>
     <path d="M 18.3125 70.21875 
L 18.3125 54.6875 
L 36.8125 54.6875 
L 36.8125 47.703125 
L 18.3125 47.703125 
L 18.3125 18.015625 
Q 18.3125 11.328125 20.140625 9.421875 
Q 21.96875 7.515625 27.59375 7.515625 
L 36.8125 7.515625 
L 36.8125 0 
L 27.59375 0 
Q 17.1875 0 13.234375 3.875 
Q 9.28125 7.765625 9.28125 18.015625 
L 9.28125 47.703125 
L 2.6875 47.703125 
L 2.6875 54.6875 
L 9.28125 54.6875 
L 9.28125 70.21875 
z
" id="DejaVuSans-116"/>
     <path d="M 30.609375 48.390625 
Q 23.390625 48.390625 19.1875 42.75 
Q 14.984375 37.109375 14.984375 27.296875 
Q 14.984375 17.484375 19.15625 11.84375 
Q 23.34375 6.203125 30.609375 6.203125 
Q 37.796875 6.203125 41.984375 11.859375 
Q 46.1875 17.53125 46.1875 27.296875 
Q 46.1875 37.015625 41.984375 42.703125 
Q 37.796875 48.390625 30.609375 48.390625 
z
M 30.609375 56 
Q 42.328125 56 49.015625 48.375 
Q 55.71875 40.765625 55.71875 27.296875 
Q 55.71875 13.875 49.015625 6.21875 
Q 42.328125 -1.421875 30.609375 -1.421875 
Q 18.84375 -1.421875 12.171875 6.21875 
Q 5.515625 13.875 5.515625 27.296875 
Q 5.515625 40.765625 12.171875 48.375 
Q 18.84375 56 30.609375 56 
z
" id="DejaVuSans-111"/>
    </defs>
    <g transform="translate(319.873279 198.008471)scale(0.12 -0.12)">
     <use xlink:href="#DejaVuSans-84"/>
     <use x="60.865234" xlink:href="#DejaVuSans-114"/>
     <use x="101.978516" xlink:href="#DejaVuSans-97"/>
     <use x="163.257812" xlink:href="#DejaVuSans-110"/>
     <use x="226.636719" xlink:href="#DejaVuSans-115"/>
     <use x="278.736328" xlink:href="#DejaVuSans-108"/>
     <use x="306.519531" xlink:href="#DejaVuSans-97"/>
     <use x="367.798828" xlink:href="#DejaVuSans-116"/>
     <use x="407.007812" xlink:href="#DejaVuSans-105"/>
     <use x="434.791016" xlink:href="#DejaVuSans-111"/>
     <use x="495.972656" xlink:href="#DejaVuSans-110"/>
    </g>
   </g>
   <g id="text_13">
    <!-- CodY -->
    <defs>
     <path d="M -0.203125 72.90625 
L 10.40625 72.90625 
L 30.609375 42.921875 
L 50.6875 72.90625 
L 61.28125 72.90625 
L 35.5 34.71875 
L 35.5 0 
L 25.59375 0 
L 25.59375 34.71875 
z
" id="DejaVuSans-89"/>
    </defs>
    <g transform="translate(347.494412 216.792847)scale(0.12 -0.12)">
     <use xlink:href="#DejaVuSans-67"/>
     <use x="69.824219" xlink:href="#DejaVuSans-111"/>
     <use x="131.005859" xlink:href="#DejaVuSans-100"/>
     <use x="194.482422" xlink:href="#DejaVuSans-89"/>
    </g>
   </g>
  </g>
  <g id="axes_2">
   <g id="line2d_10">
    <path clip-path="url(#p60e60716d0)" d="M 75.532489 307.584 
L 79.781894 292.786742 
L 84.031299 285.00976 
L 88.280704 277.452451 
L 92.530109 270.714733 
L 96.779515 264.455636 
L 101.02892 258.220696 
L 105.278325 252.020756 
L 109.52773 246.035301 
L 113.777135 240.242919 
L 118.02654 234.463657 
L 122.275945 229.18578 
L 126.52535 223.995655 
L 130.774755 219.075061 
L 135.02416 214.242021 
L 139.273565 210.165391 
L 143.52297 206.254377 
L 147.772375 202.471174 
L 152.02178 198.803533 
L 156.271185 195.671637 
L 160.52059 192.704194 
L 164.769995 189.933178 
L 169.0194 187.206749 
L 173.268805 184.48402 
L 177.51821 182.057276 
L 181.767615 179.719083 
L 186.01702 177.462743 
L 190.266426 175.21444 
L 194.515831 173.035608 
L 198.765236 170.927734 
L 203.014641 168.905679 
L 207.264046 166.904039 
L 211.513451 164.991793 
L 215.762856 163.11655 
L 220.012261 161.289209 
L 224.261666 159.56167 
L 228.511071 157.910151 
L 232.760476 156.272557 
L 237.009881 154.739098 
L 241.259286 153.242819 
L 245.508691 151.817065 
L 249.758096 150.434105 
L 254.007501 149.083361 
L 258.256906 147.757279 
L 262.506311 146.529495 
L 266.755716 145.308492 
L 271.005121 144.12048 
L 275.254526 142.934298 
L 279.503931 141.809627 
L 283.753337 140.754494 
L 288.002742 139.710182 
L 292.252147 138.71345 
L 296.501552 137.733285 
L 300.750957 136.763241 
L 305.000362 135.802002 
L 309.249767 134.869581 
L 313.499172 133.997843 
L 317.748577 133.205817 
L 321.997982 132.416051 
L 326.247387 131.652344 
L 330.496792 130.902104 
L 334.746197 130.158422 
L 338.995602 129.536638 
L 343.245007 128.919212 
L 347.494412 128.337432 
L 351.743817 127.830409 
L 355.993222 127.354917 
L 360.242627 126.907201 
L 364.492032 126.472752 
L 368.741437 126.105886 
L 372.990842 125.744488 
L 377.240248 125.398588 
L 381.489653 125.163346 
L 385.739058 124.934739 
L 389.988463 124.706822 
L 394.237868 124.494472 
L 398.487273 124.284231 
" style="fill:none;stroke:#a7382c;stroke-linecap:square;stroke-opacity:0.9;stroke-width:1.5;"/>
   </g>
   <g id="matplotlib.axis_2">
    <g id="xtick_1">
     <g id="line2d_11">
      <defs>
       <path d="M 0 0 
L 0 -3.5 
" id="ma10df9d020" style="stroke:#000000;stroke-width:0.8;"/>
      </defs>
      <g>
       <use style="stroke:#000000;stroke-width:0.8;" x="75.532489" xlink:href="#ma10df9d020" y="307.584"/>
      </g>
     </g>
     <g id="text_14">
      <!-- 0 -->
      <g transform="translate(70.442489 323.2415)scale(0.16 -0.16)">
       <use xlink:href="#DejaVuSans-48"/>
      </g>
     </g>
    </g>
    <g id="xtick_2">
     <g id="line2d_12">
      <g>
       <use style="stroke:#000000;stroke-width:0.8;" x="118.02654" xlink:href="#ma10df9d020" y="307.584"/>
      </g>
     </g>
     <g id="text_15">
      <!-- 10 -->
      <g transform="translate(107.84654 323.2415)scale(0.16 -0.16)">
       <use xlink:href="#DejaVuSans-49"/>
       <use x="63.623047" xlink:href="#DejaVuSans-48"/>
      </g>
     </g>
    </g>
    <g id="xtick_3">
     <g id="line2d_13">
      <g>
       <use style="stroke:#000000;stroke-width:0.8;" x="160.52059" xlink:href="#ma10df9d020" y="307.584"/>
      </g>
     </g>
     <g id="text_16">
      <!-- 20 -->
      <g transform="translate(150.34059 323.2415)scale(0.16 -0.16)">
       <use xlink:href="#DejaVuSans-50"/>
       <use x="63.623047" xlink:href="#DejaVuSans-48"/>
      </g>
     </g>
    </g>
    <g id="xtick_4">
     <g id="line2d_14">
      <g>
       <use style="stroke:#000000;stroke-width:0.8;" x="203.014641" xlink:href="#ma10df9d020" y="307.584"/>
      </g>
     </g>
     <g id="text_17">
      <!-- 30 -->
      <g transform="translate(192.834641 323.2415)scale(0.16 -0.16)">
       <use xlink:href="#DejaVuSans-51"/>
       <use x="63.623047" xlink:href="#DejaVuSans-48"/>
      </g>
     </g>
    </g>
    <g id="xtick_5">
     <g id="line2d_15">
      <g>
       <use style="stroke:#000000;stroke-width:0.8;" x="245.508691" xlink:href="#ma10df9d020" y="307.584"/>
      </g>
     </g>
     <g id="text_18">
      <!-- 40 -->
      <g transform="translate(235.328691 323.2415)scale(0.16 -0.16)">
       <use xlink:href="#DejaVuSans-52"/>
       <use x="63.623047" xlink:href="#DejaVuSans-48"/>
      </g>
     </g>
    </g>
    <g id="xtick_6">
     <g id="line2d_16">
      <g>
       <use style="stroke:#000000;stroke-width:0.8;" x="288.002742" xlink:href="#ma10df9d020" y="307.584"/>
      </g>
     </g>
     <g id="text_19">
      <!-- 50 -->
      <g transform="translate(277.822742 323.2415)scale(0.16 -0.16)">
       <use xlink:href="#DejaVuSans-53"/>
       <use x="63.623047" xlink:href="#DejaVuSans-48"/>
      </g>
     </g>
    </g>
    <g id="xtick_7">
     <g id="line2d_17">
      <g>
       <use style="stroke:#000000;stroke-width:0.8;" x="330.496792" xlink:href="#ma10df9d020" y="307.584"/>
      </g>
     </g>
     <g id="text_20">
      <!-- 60 -->
      <g transform="translate(320.316792 323.2415)scale(0.16 -0.16)">
       <use xlink:href="#DejaVuSans-54"/>
       <use x="63.623047" xlink:href="#DejaVuSans-48"/>
      </g>
     </g>
    </g>
    <g id="xtick_8">
     <g id="line2d_18">
      <g>
       <use style="stroke:#000000;stroke-width:0.8;" x="372.990842" xlink:href="#ma10df9d020" y="307.584"/>
      </g>
     </g>
     <g id="text_21">
      <!-- 70 -->
      <g transform="translate(362.810842 323.2415)scale(0.16 -0.16)">
       <use xlink:href="#DejaVuSans-55"/>
       <use x="63.623047" xlink:href="#DejaVuSans-48"/>
      </g>
     </g>
    </g>
    <g id="xtick_9">
     <g id="line2d_19">
      <defs>
       <path d="M 0 0 
L 0 -2 
" id="mbc751bd5bb" style="stroke:#000000;stroke-width:0.6;"/>
      </defs>
      <g>
       <use style="stroke:#000000;stroke-width:0.6;" x="96.779515" xlink:href="#mbc751bd5bb" y="307.584"/>
      </g>
     </g>
    </g>
    <g id="xtick_10">
     <g id="line2d_20">
      <g>
       <use style="stroke:#000000;stroke-width:0.6;" x="139.273565" xlink:href="#mbc751bd5bb" y="307.584"/>
      </g>
     </g>
    </g>
    <g id="xtick_11">
     <g id="line2d_21">
      <g>
       <use style="stroke:#000000;stroke-width:0.6;" x="181.767615" xlink:href="#mbc751bd5bb" y="307.584"/>
      </g>
     </g>
    </g>
    <g id="xtick_12">
     <g id="line2d_22">
      <g>
       <use style="stroke:#000000;stroke-width:0.6;" x="224.261666" xlink:href="#mbc751bd5bb" y="307.584"/>
      </g>
     </g>
    </g>
    <g id="xtick_13">
     <g id="line2d_23">
      <g>
       <use style="stroke:#000000;stroke-width:0.6;" x="266.755716" xlink:href="#mbc751bd5bb" y="307.584"/>
      </g>
     </g>
    </g>
    <g id="xtick_14">
     <g id="line2d_24">
      <g>
       <use style="stroke:#000000;stroke-width:0.6;" x="309.249767" xlink:href="#mbc751bd5bb" y="307.584"/>
      </g>
     </g>
    </g>
    <g id="xtick_15">
     <g id="line2d_25">
      <g>
       <use style="stroke:#000000;stroke-width:0.6;" x="351.743817" xlink:href="#mbc751bd5bb" y="307.584"/>
      </g>
     </g>
    </g>
    <g id="xtick_16">
     <g id="line2d_26">
      <g>
       <use style="stroke:#000000;stroke-width:0.6;" x="394.237868" xlink:href="#mbc751bd5bb" y="307.584"/>
      </g>
     </g>
    </g>
    <g id="text_22">
     <!-- Components -->
     <defs>
      <path d="M 52 44.1875 
Q 55.375 50.25 60.0625 53.125 
Q 64.75 56 71.09375 56 
Q 79.640625 56 84.28125 50.015625 
Q 88.921875 44.046875 88.921875 33.015625 
L 88.921875 0 
L 79.890625 0 
L 79.890625 32.71875 
Q 79.890625 40.578125 77.09375 44.375 
Q 74.3125 48.1875 68.609375 48.1875 
Q 61.625 48.1875 57.5625 43.546875 
Q 53.515625 38.921875 53.515625 30.90625 
L 53.515625 0 
L 44.484375 0 
L 44.484375 32.71875 
Q 44.484375 40.625 41.703125 44.40625 
Q 38.921875 48.1875 33.109375 48.1875 
Q 26.21875 48.1875 22.15625 43.53125 
Q 18.109375 38.875 18.109375 30.90625 
L 18.109375 0 
L 9.078125 0 
L 9.078125 54.6875 
L 18.109375 54.6875 
L 18.109375 46.1875 
Q 21.1875 51.21875 25.484375 53.609375 
Q 29.78125 56 35.6875 56 
Q 41.65625 56 45.828125 52.96875 
Q 50 49.953125 52 44.1875 
z
" id="DejaVuSans-109"/>
     </defs>
     <g transform="translate(179.219531 344.246187)scale(0.18 -0.18)">
      <use xlink:href="#DejaVuSans-67"/>
      <use x="69.824219" xlink:href="#DejaVuSans-111"/>
      <use x="131.005859" xlink:href="#DejaVuSans-109"/>
      <use x="228.417969" xlink:href="#DejaVuSans-112"/>
      <use x="291.894531" xlink:href="#DejaVuSans-111"/>
      <use x="353.076172" xlink:href="#DejaVuSans-110"/>
      <use x="416.455078" xlink:href="#DejaVuSans-101"/>
      <use x="477.978516" xlink:href="#DejaVuSans-110"/>
      <use x="541.357422" xlink:href="#DejaVuSans-116"/>
      <use x="580.566406" xlink:href="#DejaVuSans-115"/>
     </g>
    </g>
   </g>
   <g id="matplotlib.axis_3">
    <g id="ytick_10">
     <g id="line2d_27">
      <defs>
       <path d="M 0 0 
L 3.5 0 
" id="ma4722f1713" style="stroke:#000000;stroke-width:0.8;"/>
      </defs>
      <g>
       <use style="stroke:#000000;stroke-width:0.8;" x="57.6" xlink:href="#ma4722f1713" y="307.584"/>
      </g>
     </g>
     <g id="text_23">
      <!-- 0.0 -->
      <g transform="translate(28.655 313.66275)scale(0.16 -0.16)">
       <use xlink:href="#DejaVuSans-48"/>
       <use x="63.623047" xlink:href="#DejaVuSans-46"/>
       <use x="95.410156" xlink:href="#DejaVuSans-48"/>
      </g>
     </g>
    </g>
    <g id="ytick_11">
     <g id="line2d_28">
      <g>
       <use style="stroke:#000000;stroke-width:0.8;" x="57.6" xlink:href="#ma4722f1713" y="259.2"/>
      </g>
     </g>
     <g id="text_24">
      <!-- 0.2 -->
      <g transform="translate(28.655 265.27875)scale(0.16 -0.16)">
       <use xlink:href="#DejaVuSans-48"/>
       <use x="63.623047" xlink:href="#DejaVuSans-46"/>
       <use x="95.410156" xlink:href="#DejaVuSans-50"/>
      </g>
     </g>
    </g>
    <g id="ytick_12">
     <g id="line2d_29">
      <g>
       <use style="stroke:#000000;stroke-width:0.8;" x="57.6" xlink:href="#ma4722f1713" y="210.816"/>
      </g>
     </g>
     <g id="text_25">
      <!-- 0.4 -->
      <g transform="translate(28.655 216.89475)scale(0.16 -0.16)">
       <use xlink:href="#DejaVuSans-48"/>
       <use x="63.623047" xlink:href="#DejaVuSans-46"/>
       <use x="95.410156" xlink:href="#DejaVuSans-52"/>
      </g>
     </g>
    </g>
    <g id="ytick_13">
     <g id="line2d_30">
      <g>
       <use style="stroke:#000000;stroke-width:0.8;" x="57.6" xlink:href="#ma4722f1713" y="162.432"/>
      </g>
     </g>
     <g id="text_26">
      <!-- 0.6 -->
      <g transform="translate(28.655 168.51075)scale(0.16 -0.16)">
       <use xlink:href="#DejaVuSans-48"/>
       <use x="63.623047" xlink:href="#DejaVuSans-46"/>
       <use x="95.410156" xlink:href="#DejaVuSans-54"/>
      </g>
     </g>
    </g>
    <g id="ytick_14">
     <g id="line2d_31">
      <g>
       <use style="stroke:#000000;stroke-width:0.8;" x="57.6" xlink:href="#ma4722f1713" y="114.048"/>
      </g>
     </g>
     <g id="text_27">
      <!-- 0.8 -->
      <g transform="translate(28.655 120.12675)scale(0.16 -0.16)">
       <use xlink:href="#DejaVuSans-48"/>
       <use x="63.623047" xlink:href="#DejaVuSans-46"/>
       <use x="95.410156" xlink:href="#DejaVuSans-56"/>
      </g>
     </g>
    </g>
    <g id="ytick_15">
     <g id="line2d_32">
      <g>
       <use style="stroke:#000000;stroke-width:0.8;" x="57.6" xlink:href="#ma4722f1713" y="65.664"/>
      </g>
     </g>
     <g id="text_28">
      <!-- 1.0 -->
      <g transform="translate(28.655 71.74275)scale(0.16 -0.16)">
       <use xlink:href="#DejaVuSans-49"/>
       <use x="63.623047" xlink:href="#DejaVuSans-46"/>
       <use x="95.410156" xlink:href="#DejaVuSans-48"/>
      </g>
     </g>
    </g>
    <g id="ytick_16">
     <g id="line2d_33">
      <defs>
       <path d="M 0 0 
L 2 0 
" id="m5fb496d126" style="stroke:#000000;stroke-width:0.6;"/>
      </defs>
      <g>
       <use style="stroke:#000000;stroke-width:0.6;" x="57.6" xlink:href="#m5fb496d126" y="295.488"/>
      </g>
     </g>
    </g>
    <g id="ytick_17">
     <g id="line2d_34">
      <g>
       <use style="stroke:#000000;stroke-width:0.6;" x="57.6" xlink:href="#m5fb496d126" y="283.392"/>
      </g>
     </g>
    </g>
    <g id="ytick_18">
     <g id="line2d_35">
      <g>
       <use style="stroke:#000000;stroke-width:0.6;" x="57.6" xlink:href="#m5fb496d126" y="271.296"/>
      </g>
     </g>
    </g>
    <g id="ytick_19">
     <g id="line2d_36">
      <g>
       <use style="stroke:#000000;stroke-width:0.6;" x="57.6" xlink:href="#m5fb496d126" y="247.104"/>
      </g>
     </g>
    </g>
    <g id="ytick_20">
     <g id="line2d_37">
      <g>
       <use style="stroke:#000000;stroke-width:0.6;" x="57.6" xlink:href="#m5fb496d126" y="235.008"/>
      </g>
     </g>
    </g>
    <g id="ytick_21">
     <g id="line2d_38">
      <g>
       <use style="stroke:#000000;stroke-width:0.6;" x="57.6" xlink:href="#m5fb496d126" y="222.912"/>
      </g>
     </g>
    </g>
    <g id="ytick_22">
     <g id="line2d_39">
      <g>
       <use style="stroke:#000000;stroke-width:0.6;" x="57.6" xlink:href="#m5fb496d126" y="198.72"/>
      </g>
     </g>
    </g>
    <g id="ytick_23">
     <g id="line2d_40">
      <g>
       <use style="stroke:#000000;stroke-width:0.6;" x="57.6" xlink:href="#m5fb496d126" y="186.624"/>
      </g>
     </g>
    </g>
    <g id="ytick_24">
     <g id="line2d_41">
      <g>
       <use style="stroke:#000000;stroke-width:0.6;" x="57.6" xlink:href="#m5fb496d126" y="174.528"/>
      </g>
     </g>
    </g>
    <g id="ytick_25">
     <g id="line2d_42">
      <g>
       <use style="stroke:#000000;stroke-width:0.6;" x="57.6" xlink:href="#m5fb496d126" y="150.336"/>
      </g>
     </g>
    </g>
    <g id="ytick_26">
     <g id="line2d_43">
      <g>
       <use style="stroke:#000000;stroke-width:0.6;" x="57.6" xlink:href="#m5fb496d126" y="138.24"/>
      </g>
     </g>
    </g>
    <g id="ytick_27">
     <g id="line2d_44">
      <g>
       <use style="stroke:#000000;stroke-width:0.6;" x="57.6" xlink:href="#m5fb496d126" y="126.144"/>
      </g>
     </g>
    </g>
    <g id="ytick_28">
     <g id="line2d_45">
      <g>
       <use style="stroke:#000000;stroke-width:0.6;" x="57.6" xlink:href="#m5fb496d126" y="101.952"/>
      </g>
     </g>
    </g>
    <g id="ytick_29">
     <g id="line2d_46">
      <g>
       <use style="stroke:#000000;stroke-width:0.6;" x="57.6" xlink:href="#m5fb496d126" y="89.856"/>
      </g>
     </g>
    </g>
    <g id="ytick_30">
     <g id="line2d_47">
      <g>
       <use style="stroke:#000000;stroke-width:0.6;" x="57.6" xlink:href="#m5fb496d126" y="77.76"/>
      </g>
     </g>
    </g>
    <g id="ytick_31">
     <g id="line2d_48">
      <g>
       <use style="stroke:#000000;stroke-width:0.6;" x="57.6" xlink:href="#m5fb496d126" y="53.568"/>
      </g>
     </g>
    </g>
    <g id="ytick_32">
     <g id="line2d_49">
      <g>
       <use style="stroke:#000000;stroke-width:0.6;" x="57.6" xlink:href="#m5fb496d126" y="41.472"/>
      </g>
     </g>
    </g>
    <g id="text_29">
     <!-- Cumulative explained variance -->
     <g transform="translate(20.911562 314.411906)rotate(-90)scale(0.18 -0.18)">
      <use xlink:href="#DejaVuSans-67"/>
      <use x="69.824219" xlink:href="#DejaVuSans-117"/>
      <use x="133.203125" xlink:href="#DejaVuSans-109"/>
      <use x="230.615234" xlink:href="#DejaVuSans-117"/>
      <use x="293.994141" xlink:href="#DejaVuSans-108"/>
      <use x="321.777344" xlink:href="#DejaVuSans-97"/>
      <use x="383.056641" xlink:href="#DejaVuSans-116"/>
      <use x="422.265625" xlink:href="#DejaVuSans-105"/>
      <use x="450.048828" xlink:href="#DejaVuSans-118"/>
      <use x="509.228516" xlink:href="#DejaVuSans-101"/>
      <use x="570.751953" xlink:href="#DejaVuSans-32"/>
      <use x="602.539062" xlink:href="#DejaVuSans-101"/>
      <use x="664.046875" xlink:href="#DejaVuSans-120"/>
      <use x="723.226562" xlink:href="#DejaVuSans-112"/>
      <use x="786.703125" xlink:href="#DejaVuSans-108"/>
      <use x="814.486328" xlink:href="#DejaVuSans-97"/>
      <use x="875.765625" xlink:href="#DejaVuSans-105"/>
      <use x="903.548828" xlink:href="#DejaVuSans-110"/>
      <use x="966.927734" xlink:href="#DejaVuSans-101"/>
      <use x="1028.451172" xlink:href="#DejaVuSans-100"/>
      <use x="1091.927734" xlink:href="#DejaVuSans-32"/>
      <use x="1123.714844" xlink:href="#DejaVuSans-118"/>
      <use x="1182.894531" xlink:href="#DejaVuSans-97"/>
      <use x="1244.173828" xlink:href="#DejaVuSans-114"/>
      <use x="1285.287109" xlink:href="#DejaVuSans-105"/>
      <use x="1313.070312" xlink:href="#DejaVuSans-97"/>
      <use x="1374.349609" xlink:href="#DejaVuSans-110"/>
      <use x="1437.728516" xlink:href="#DejaVuSans-99"/>
      <use x="1492.708984" xlink:href="#DejaVuSans-101"/>
     </g>
    </g>
   </g>
   <g id="line2d_50">
    <path clip-path="url(#p60e60716d0)" d="M 75.532489 307.584 
L 79.781894 263.615205 
L 84.031299 231.193797 
L 88.280704 210.441849 
L 92.530109 195.422954 
L 96.779515 181.959222 
L 101.02892 172.403872 
L 105.278325 163.689414 
L 109.52773 156.637676 
L 113.777135 150.170424 
L 118.02654 144.626373 
L 122.275945 139.631395 
L 126.52535 135.376348 
L 130.774755 131.34406 
L 135.02416 127.635582 
L 139.273565 124.053055 
L 143.52297 121.265392 
L 147.772375 118.572272 
L 152.02178 116.114042 
L 156.271185 113.838573 
L 160.52059 111.640778 
L 164.769995 109.623311 
L 169.0194 107.68911 
L 173.268805 105.919985 
L 177.51821 104.330532 
L 181.767615 102.82911 
L 186.01702 101.426496 
L 190.266426 100.19391 
L 194.515831 98.978248 
L 198.765236 97.922881 
L 203.014641 96.910516 
L 207.264046 95.943414 
L 211.513451 95.019754 
L 215.762856 94.127536 
L 220.012261 93.310086 
L 224.261666 92.510754 
L 228.511071 91.756651 
L 232.760476 91.04673 
L 237.009881 90.366432 
L 241.259286 89.711648 
L 245.508691 89.099942 
L 249.758096 88.505928 
L 254.007501 87.947789 
L 258.256906 87.395934 
L 262.506311 86.870041 
L 266.755716 86.352491 
L 271.005121 85.869656 
L 275.254526 85.412171 
L 279.503931 84.962798 
L 283.753337 84.521492 
L 288.002742 84.08559 
L 292.252147 83.671597 
L 296.501552 83.261433 
L 300.750957 82.870938 
L 305.000362 82.48539 
L 309.249767 82.119458 
L 313.499172 81.761453 
L 317.748577 81.432422 
L 321.997982 81.106626 
L 326.247387 80.787568 
L 330.496792 80.473777 
L 334.746197 80.184485 
L 338.995602 79.904382 
L 343.245007 79.628887 
L 347.494412 79.361612 
L 351.743817 79.096132 
L 355.993222 78.846572 
L 360.242627 78.603194 
L 364.492032 78.369434 
L 368.741437 78.137863 
L 372.990842 77.909533 
L 377.240248 77.687947 
L 381.489653 77.471417 
L 385.739058 77.263483 
L 389.988463 77.057908 
L 394.237868 76.858777 
" style="fill:none;stroke:#356095;stroke-linecap:square;stroke-width:1.5;"/>
   </g>
   <g id="patch_82">
    <path d="M 57.6 307.584 
L 57.6 41.472 
" style="fill:none;stroke:#000000;stroke-linecap:square;stroke-linejoin:miter;stroke-width:0.8;"/>
   </g>
   <g id="patch_83">
    <path d="M 414.72 307.584 
L 414.72 41.472 
" style="fill:none;stroke:#000000;stroke-linecap:square;stroke-linejoin:miter;stroke-width:0.8;"/>
   </g>
   <g id="patch_84">
    <path d="M 57.6 307.584 
L 414.72 307.584 
" style="fill:none;stroke:#000000;stroke-linecap:square;stroke-linejoin:miter;stroke-width:0.8;"/>
   </g>
   <g id="patch_85">
    <path d="M 57.6 41.472 
L 414.72 41.472 
" style="fill:none;stroke:#000000;stroke-linecap:square;stroke-linejoin:miter;stroke-width:0.8;"/>
   </g>
   <g id="legend_1">
    <g id="line2d_51">
     <path d="M 66.6 54.570437 
L 86.6 54.570437 
" style="fill:none;stroke:#a7382c;stroke-linecap:square;stroke-opacity:0.9;stroke-width:1.5;"/>
    </g>
    <g id="line2d_52"/>
    <g id="text_30">
     <!-- Independent Components -->
     <g transform="translate(94.6 58.070437)scale(0.1 -0.1)">
      <use xlink:href="#DejaVuSans-73"/>
      <use x="29.492188" xlink:href="#DejaVuSans-110"/>
      <use x="92.871094" xlink:href="#DejaVuSans-100"/>
      <use x="156.347656" xlink:href="#DejaVuSans-101"/>
      <use x="217.871094" xlink:href="#DejaVuSans-112"/>
      <use x="281.347656" xlink:href="#DejaVuSans-101"/>
      <use x="342.871094" xlink:href="#DejaVuSans-110"/>
      <use x="406.25" xlink:href="#DejaVuSans-100"/>
      <use x="469.726562" xlink:href="#DejaVuSans-101"/>
      <use x="531.25" xlink:href="#DejaVuSans-110"/>
      <use x="594.628906" xlink:href="#DejaVuSans-116"/>
      <use x="633.837891" xlink:href="#DejaVuSans-32"/>
      <use x="665.625" xlink:href="#DejaVuSans-67"/>
      <use x="735.449219" xlink:href="#DejaVuSans-111"/>
      <use x="796.630859" xlink:href="#DejaVuSans-109"/>
      <use x="894.042969" xlink:href="#DejaVuSans-112"/>
      <use x="957.519531" xlink:href="#DejaVuSans-111"/>
      <use x="1018.701172" xlink:href="#DejaVuSans-110"/>
      <use x="1082.080078" xlink:href="#DejaVuSans-101"/>
      <use x="1143.603516" xlink:href="#DejaVuSans-110"/>
      <use x="1206.982422" xlink:href="#DejaVuSans-116"/>
      <use x="1246.191406" xlink:href="#DejaVuSans-115"/>
     </g>
    </g>
    <g id="line2d_53">
     <path d="M 66.6 69.248562 
L 86.6 69.248562 
" style="fill:none;stroke:#356095;stroke-linecap:square;stroke-width:1.5;"/>
    </g>
    <g id="line2d_54"/>
    <g id="text_31">
     <!-- Principal Components -->
     <defs>
      <path d="M 19.671875 64.796875 
L 19.671875 37.40625 
L 32.078125 37.40625 
Q 38.96875 37.40625 42.71875 40.96875 
Q 46.484375 44.53125 46.484375 51.125 
Q 46.484375 57.671875 42.71875 61.234375 
Q 38.96875 64.796875 32.078125 64.796875 
z
M 9.8125 72.90625 
L 32.078125 72.90625 
Q 44.34375 72.90625 50.609375 67.359375 
Q 56.890625 61.8125 56.890625 51.125 
Q 56.890625 40.328125 50.609375 34.8125 
Q 44.34375 29.296875 32.078125 29.296875 
L 19.671875 29.296875 
L 19.671875 0 
L 9.8125 0 
z
" id="DejaVuSans-80"/>
     </defs>
     <g transform="translate(94.6 72.748562)scale(0.1 -0.1)">
      <use xlink:href="#DejaVuSans-80"/>
      <use x="60.287109" xlink:href="#DejaVuSans-114"/>
      <use x="101.400391" xlink:href="#DejaVuSans-105"/>
      <use x="129.183594" xlink:href="#DejaVuSans-110"/>
      <use x="192.5625" xlink:href="#DejaVuSans-99"/>
      <use x="247.542969" xlink:href="#DejaVuSans-105"/>
      <use x="275.326172" xlink:href="#DejaVuSans-112"/>
      <use x="338.802734" xlink:href="#DejaVuSans-97"/>
      <use x="400.082031" xlink:href="#DejaVuSans-108"/>
      <use x="427.865234" xlink:href="#DejaVuSans-32"/>
      <use x="459.652344" xlink:href="#DejaVuSans-67"/>
      <use x="529.476562" xlink:href="#DejaVuSans-111"/>
      <use x="590.658203" xlink:href="#DejaVuSans-109"/>
      <use x="688.070312" xlink:href="#DejaVuSans-112"/>
      <use x="751.546875" xlink:href="#DejaVuSans-111"/>
      <use x="812.728516" xlink:href="#DejaVuSans-110"/>
      <use x="876.107422" xlink:href="#DejaVuSans-101"/>
      <use x="937.630859" xlink:href="#DejaVuSans-110"/>
      <use x="1001.009766" xlink:href="#DejaVuSans-116"/>
      <use x="1040.21875" xlink:href="#DejaVuSans-115"/>
     </g>
    </g>
   </g>
  </g>
 </g>
 <defs>
  <clipPath id="p60e60716d0">
   <rect height="266.112" width="357.12" x="57.6" y="41.472"/>
  </clipPath>
 </defs>
</svg>
