<?xml version="1.0" encoding="utf-8" standalone="no"?>
<!DOCTYPE svg PUBLIC "-//W3C//DTD SVG 1.1//EN"
  "http://www.w3.org/Graphics/SVG/1.1/DTD/svg11.dtd">
<!-- Created with matplotlib (https://matplotlib.org/) -->
<svg height="345.6pt" version="1.1" viewBox="0 0 460.8 345.6" width="460.8pt" xmlns="http://www.w3.org/2000/svg" xmlns:xlink="http://www.w3.org/1999/xlink">
 <defs>
  <style type="text/css">
*{stroke-linecap:butt;stroke-linejoin:round;}
  </style>
 </defs>
 <g id="figure_1">
  <g id="patch_1">
   <path d="M 0 345.6 
L 460.8 345.6 
L 460.8 0 
L 0 0 
z
" style="fill:#ffffff;"/>
  </g>
  <g id="axes_1">
   <g id="patch_2">
    <path d="M 51.42 299.94 
L 450 299.94 
L 450 10.8 
L 51.42 10.8 
z
" style="fill:#ffffff;"/>
   </g>
   <g id="LineCollection_1">
    <path clip-path="url(#pbaa7e68cb2)" d="M 279.18 299.94 
L 279.18 -1 
" style="fill:none;stroke:#808080;stroke-dasharray:5.55,2.4;stroke-dashoffset:0;stroke-width:1.5;"/>
   </g>
   <g id="LineCollection_2">
    <path clip-path="url(#pbaa7e68cb2)" d="M 51.42 134.717143 
L 461.8 134.717143 
" style="fill:none;stroke:#808080;stroke-dasharray:5.55,2.4;stroke-dashoffset:0;stroke-width:1.5;"/>
   </g>
   <g id="PathCollection_1">
    <path clip-path="url(#pbaa7e68cb2)" d="M 431.02 25.708325 
C 431.322266 25.708325 431.612193 25.588233 431.825927 25.374499 
C 432.039662 25.160764 432.159754 24.870838 432.159754 24.568571 
C 432.159754 24.266305 432.039662 23.976378 431.825927 23.762644 
C 431.612193 23.54891 431.322266 23.428818 431.02 23.428818 
C 430.717734 23.428818 430.427807 23.54891 430.214073 23.762644 
C 430.000338 23.976378 429.880246 24.266305 429.880246 24.568571 
C 429.880246 24.870838 430.000338 25.160764 430.214073 25.374499 
C 430.427807 25.588233 430.717734 25.708325 431.02 25.708325 
z
" style="fill:#1a2441;stroke:#000000;stroke-width:0.75;"/>
    <path clip-path="url(#pbaa7e68cb2)" d="M 369.794194 209.756756 
C 371.536281 209.756756 373.207251 209.064617 374.439093 207.832775 
C 375.670934 206.600934 376.363073 204.929964 376.363073 203.187876 
C 376.363073 201.445789 375.670934 199.774819 374.439093 198.542977 
C 373.207251 197.311136 371.536281 196.618997 369.794194 196.618997 
C 368.052106 196.618997 366.381136 197.311136 365.149295 198.542977 
C 363.917453 199.774819 363.225314 201.445789 363.225314 203.187876 
C 363.225314 204.929964 363.917453 206.600934 365.149295 207.832775 
C 366.381136 209.064617 368.052106 209.756756 369.794194 209.756756 
z
" style="fill:#1b6145;stroke:#000000;stroke-width:0.75;"/>
    <path clip-path="url(#pbaa7e68cb2)" d="M 241.22 26.946986 
C 241.850763 26.946986 242.455776 26.696381 242.901793 26.250364 
C 243.34781 25.804348 243.598414 25.199334 243.598414 24.568571 
C 243.598414 23.937809 243.34781 23.332795 242.901793 22.886779 
C 242.455776 22.440762 241.850763 22.190157 241.22 22.190157 
C 240.589237 22.190157 239.984224 22.440762 239.538207 22.886779 
C 239.09219 23.332795 238.841586 23.937809 238.841586 24.568571 
C 238.841586 25.199334 239.09219 25.804348 239.538207 26.250364 
C 239.984224 26.696381 240.589237 26.946986 241.22 26.946986 
z
" style="fill:#a6761d;stroke:#000000;stroke-width:0.75;"/>
    <path clip-path="url(#pbaa7e68cb2)" d="M 431.02 26.72033 
C 431.590653 26.72033 432.13801 26.493607 432.541523 26.090094 
C 432.945036 25.686582 433.171759 25.139224 433.171759 24.568571 
C 433.171759 23.997918 432.945036 23.450561 432.541523 23.047048 
C 432.13801 22.643536 431.590653 22.416813 431.02 22.416813 
C 430.449347 22.416813 429.90199 22.643536 429.498477 23.047048 
C 429.094964 23.450561 428.868241 23.997918 428.868241 24.568571 
C 428.868241 25.139224 429.094964 25.686582 429.498477 26.090094 
C 429.90199 26.493607 430.449347 26.72033 431.02 26.72033 
z
" style="fill:#a6761d;stroke:#000000;stroke-width:0.75;"/>
    <path clip-path="url(#pbaa7e68cb2)" d="M 376.791429 67.526159 
C 377.751149 67.526159 378.67169 67.144858 379.350315 66.466233 
C 380.02894 65.787609 380.410241 64.867067 380.410241 63.907347 
C 380.410241 62.947627 380.02894 62.027085 379.350315 61.34846 
C 378.67169 60.669836 377.751149 60.288535 376.791429 60.288535 
C 375.831708 60.288535 374.911167 60.669836 374.232542 61.34846 
C 373.553917 62.027085 373.172616 62.947627 373.172616 63.907347 
C 373.172616 64.867067 373.553917 65.787609 374.232542 66.466233 
C 374.911167 67.144858 375.831708 67.526159 376.791429 67.526159 
z
" style="fill:#a6761d;stroke:#000000;stroke-width:0.75;"/>
    <path clip-path="url(#pbaa7e68cb2)" d="M 241.22 266.447519 
C 242.074938 266.447519 242.894975 266.107849 243.499507 265.503317 
C 244.104039 264.898784 244.44371 264.078747 244.44371 263.22381 
C 244.44371 262.368872 244.104039 261.548835 243.499507 260.944302 
C 242.894975 260.33977 242.074938 260.0001 241.22 260.0001 
C 240.365062 260.0001 239.545025 260.33977 238.940493 260.944302 
C 238.335961 261.548835 237.99629 262.368872 237.99629 263.22381 
C 237.99629 264.078747 238.335961 264.898784 238.940493 265.503317 
C 239.545025 266.107849 240.365062 266.447519 241.22 266.447519 
z
" style="fill:#c87b7c;stroke:#000000;stroke-width:0.75;"/>
    <path clip-path="url(#pbaa7e68cb2)" d="M 299.885455 153.065625 
C 304.3894 153.065625 308.709482 151.276189 311.894252 148.091418 
C 315.079022 144.906648 316.868459 140.586566 316.868459 136.082621 
C 316.868459 131.578676 315.079022 127.258594 311.894252 124.073824 
C 308.709482 120.889053 304.3894 119.099617 299.885455 119.099617 
C 295.381509 119.099617 291.061427 120.889053 287.876657 124.073824 
C 284.691887 127.258594 282.90245 131.578676 282.90245 136.082621 
C 282.90245 140.586566 284.691887 144.906648 287.876657 148.091418 
C 291.061427 151.276189 295.381509 153.065625 299.885455 153.065625 
z
" style="fill:#1a2441;stroke:#000000;stroke-width:0.75;"/>
    <path clip-path="url(#pbaa7e68cb2)" d="M 431.02 72.13566 
C 431.46338 72.13566 431.88866 71.959504 432.202177 71.645987 
C 432.515694 71.33247 432.691851 70.90719 432.691851 70.46381 
C 432.691851 70.02043 432.515694 69.59515 432.202177 69.281633 
C 431.88866 68.968116 431.46338 68.791959 431.02 68.791959 
C 430.57662 68.791959 430.15134 68.968116 429.837823 69.281633 
C 429.524306 69.59515 429.348149 70.02043 429.348149 70.46381 
C 429.348149 70.90719 429.524306 71.33247 429.837823 71.645987 
C 430.15134 71.959504 430.57662 72.13566 431.02 72.13566 
z
" style="fill:#1a2441;stroke:#000000;stroke-width:0.75;"/>
    <path clip-path="url(#pbaa7e68cb2)" d="M 119.553333 249.331002 
C 121.622746 249.331002 123.607679 248.508816 125.070975 247.04552 
C 126.53427 245.582224 127.356456 243.597291 127.356456 241.527879 
C 127.356456 239.458466 126.53427 237.473533 125.070975 236.010238 
C 123.607679 234.546942 121.622746 233.724756 119.553333 233.724756 
C 117.483921 233.724756 115.498988 234.546942 114.035692 236.010238 
C 112.572396 237.473533 111.75021 239.458466 111.75021 241.527879 
C 111.75021 243.597291 112.572396 245.582224 114.035692 247.04552 
C 115.498988 248.508816 117.483921 249.331002 119.553333 249.331002 
z
" style="fill:#e6ab02;stroke:#000000;stroke-width:0.75;"/>
    <path clip-path="url(#pbaa7e68cb2)" d="M 367.753333 26.485401 
C 368.261682 26.485401 368.749279 26.283432 369.108736 25.923974 
C 369.468193 25.564517 369.670163 25.076921 369.670163 24.568571 
C 369.670163 24.060222 369.468193 23.572626 369.108736 23.213168 
C 368.749279 22.853711 368.261682 22.651742 367.753333 22.651742 
C 367.244984 22.651742 366.757387 22.853711 366.39793 23.213168 
C 366.038473 23.572626 365.836504 24.060222 365.836504 24.568571 
C 365.836504 25.076921 366.038473 25.564517 366.39793 25.923974 
C 366.757387 26.283432 367.244984 26.485401 367.753333 26.485401 
z
" style="fill:#e6ab02;stroke:#000000;stroke-width:0.75;"/>
    <path clip-path="url(#pbaa7e68cb2)" d="M 431.02 26.240422 
C 431.46338 26.240422 431.88866 26.064265 432.202177 25.750748 
C 432.515694 25.437231 432.691851 25.011951 432.691851 24.568571 
C 432.691851 24.125191 432.515694 23.699911 432.202177 23.386394 
C 431.88866 23.072877 431.46338 22.896721 431.02 22.896721 
C 430.57662 22.896721 430.15134 23.072877 429.837823 23.386394 
C 429.524306 23.699911 429.348149 24.125191 429.348149 24.568571 
C 429.348149 25.011951 429.524306 25.437231 429.837823 25.750748 
C 430.15134 26.064265 430.57662 26.240422 431.02 26.240422 
z
" style="fill:#a6761d;stroke:#000000;stroke-width:0.75;"/>
    <path clip-path="url(#pbaa7e68cb2)" d="M 388.842222 27.166648 
C 389.53124 27.166648 390.19213 26.892898 390.67934 26.405689 
C 391.166549 25.91848 391.440298 25.257589 391.440298 24.568571 
C 391.440298 23.879554 391.166549 23.218663 390.67934 22.731454 
C 390.19213 22.244245 389.53124 21.970495 388.842222 21.970495 
C 388.153204 21.970495 387.492314 22.244245 387.005105 22.731454 
C 386.517896 23.218663 386.244146 23.879554 386.244146 24.568571 
C 386.244146 25.257589 386.517896 25.91848 387.005105 26.405689 
C 387.492314 26.892898 388.153204 27.166648 388.842222 27.166648 
z
" style="fill:#a6761d;stroke:#000000;stroke-width:0.75;"/>
    <path clip-path="url(#pbaa7e68cb2)" d="M 288.67 172.810748 
C 289.730812 172.810748 290.748319 172.389283 291.498427 171.639175 
C 292.248535 170.889068 292.67 169.871561 292.67 168.810748 
C 292.67 167.749936 292.248535 166.732429 291.498427 165.982321 
C 290.748319 165.232214 289.730812 164.810748 288.67 164.810748 
C 287.609188 164.810748 286.591681 165.232214 285.841573 165.982321 
C 285.091465 166.732429 284.67 167.749936 284.67 168.810748 
C 284.67 169.871561 285.091465 170.889068 285.841573 171.639175 
C 286.591681 172.389283 287.609188 172.810748 288.67 172.810748 
z
" style="fill:#1b6145;stroke:#000000;stroke-width:0.75;"/>
    <path clip-path="url(#pbaa7e68cb2)" d="M 285.359535 214.776721 
C 289.104282 214.776721 292.696157 213.288917 295.344093 210.640982 
C 297.992029 207.993046 299.479832 204.40117 299.479832 200.656424 
C 299.479832 196.911677 297.992029 193.319801 295.344093 190.671866 
C 292.696157 188.02393 289.104282 186.536126 285.359535 186.536126 
C 281.614788 186.536126 278.022913 188.02393 275.374977 190.671866 
C 272.727041 193.319801 271.239238 196.911677 271.239238 200.656424 
C 271.239238 204.40117 272.727041 207.993046 275.374977 210.640982 
C 278.022913 213.288917 281.614788 214.776721 285.359535 214.776721 
z
" style="fill:#a6761d;stroke:#000000;stroke-width:0.75;"/>
    <path clip-path="url(#pbaa7e68cb2)" d="M 431.02 90.927531 
C 431.765673 90.927531 432.480906 90.631272 433.008177 90.104001 
C 433.535447 89.57673 433.831707 88.861497 433.831707 88.115824 
C 433.831707 87.370151 433.535447 86.654918 433.008177 86.127647 
C 432.480906 85.600377 431.765673 85.304118 431.02 85.304118 
C 430.274327 85.304118 429.559094 85.600377 429.031823 86.127647 
C 428.504553 86.654918 428.208293 87.370151 428.208293 88.115824 
C 428.208293 88.861497 428.504553 89.57673 429.031823 90.104001 
C 429.559094 90.631272 430.274327 90.927531 431.02 90.927531 
z
" style="fill:#a6761d;stroke:#000000;stroke-width:0.75;"/>
    <path clip-path="url(#pbaa7e68cb2)" d="M 203.26 254.601176 
C 204.514068 254.601176 205.716942 254.102929 206.603702 253.216169 
C 207.490462 252.329409 207.988708 251.126536 207.988708 249.872468 
C 207.988708 248.618399 207.490462 247.415526 206.603702 246.528766 
C 205.716942 245.642006 204.514068 245.143759 203.26 245.143759 
C 202.005932 245.143759 200.803058 245.642006 199.916298 246.528766 
C 199.029538 247.415526 198.531292 248.618399 198.531292 249.872468 
C 198.531292 251.126536 199.029538 252.329409 199.916298 253.216169 
C 200.803058 254.102929 202.005932 254.601176 203.26 254.601176 
z
" style="fill:#d95f02;stroke:#000000;stroke-width:0.75;"/>
    <path clip-path="url(#pbaa7e68cb2)" d="M 317.14 101.763445 
C 318.394068 101.763445 319.596942 101.265198 320.483702 100.378438 
C 321.370462 99.491678 321.868708 98.288805 321.868708 97.034737 
C 321.868708 95.780669 321.370462 94.577795 320.483702 93.691035 
C 319.596942 92.804275 318.394068 92.306029 317.14 92.306029 
C 315.885932 92.306029 314.683058 92.804275 313.796298 93.691035 
C 312.909538 94.577795 312.411292 95.780669 312.411292 97.034737 
C 312.411292 98.288805 312.909538 99.491678 313.796298 100.378438 
C 314.683058 101.265198 315.885932 101.763445 317.14 101.763445 
z
" style="fill:#a6761d;stroke:#000000;stroke-width:0.75;"/>
    <path clip-path="url(#pbaa7e68cb2)" d="M 186.116774 58.563684 
C 189.046604 58.563684 191.85683 57.399651 193.928532 55.327948 
C 196.000234 53.256246 197.164268 50.44602 197.164268 47.51619 
C 197.164268 44.586361 196.000234 41.776135 193.928532 39.704433 
C 191.85683 37.63273 189.046604 36.468697 186.116774 36.468697 
C 183.186945 36.468697 180.376719 37.63273 178.305016 39.704433 
C 176.233314 41.776135 175.06928 44.586361 175.06928 47.51619 
C 175.06928 50.44602 176.233314 53.256246 178.305016 55.327948 
C 180.376719 57.399651 183.186945 58.563684 186.116774 58.563684 
z
" style="fill:#666666;stroke:#000000;stroke-width:0.75;"/>
    <path clip-path="url(#pbaa7e68cb2)" d="M 322.562857 26.72033 
C 323.13351 26.72033 323.680868 26.493607 324.08438 26.090094 
C 324.487893 25.686582 324.714616 25.139224 324.714616 24.568571 
C 324.714616 23.997918 324.487893 23.450561 324.08438 23.047048 
C 323.680868 22.643536 323.13351 22.416813 322.562857 22.416813 
C 321.992204 22.416813 321.444847 22.643536 321.041334 23.047048 
C 320.637821 23.450561 320.411099 23.997918 320.411099 24.568571 
C 320.411099 25.139224 320.637821 25.686582 321.041334 26.090094 
C 321.444847 26.493607 321.992204 26.72033 322.562857 26.72033 
z
" style="fill:#d95f02;stroke:#000000;stroke-width:0.75;"/>
    <path clip-path="url(#pbaa7e68cb2)" d="M 398.011304 227.045343 
C 399.403962 227.045343 400.739768 226.492034 401.724526 225.507276 
C 402.709284 224.522518 403.262593 223.186712 403.262593 221.794054 
C 403.262593 220.401396 402.709284 219.06559 401.724526 218.080832 
C 400.739768 217.096074 399.403962 216.542766 398.011304 216.542766 
C 396.618646 216.542766 395.282841 217.096074 394.298083 218.080832 
C 393.313325 219.06559 392.760016 220.401396 392.760016 221.794054 
C 392.760016 223.186712 393.313325 224.522518 394.298083 225.507276 
C 395.282841 226.492034 396.618646 227.045343 398.011304 227.045343 
z
" style="fill:#1b6145;stroke:#000000;stroke-width:0.75;"/>
    <path clip-path="url(#pbaa7e68cb2)" d="M 431.02 25.409468 
C 431.243008 25.409468 431.456913 25.320866 431.614604 25.163175 
C 431.772294 25.005484 431.860896 24.79158 431.860896 24.568571 
C 431.860896 24.345563 431.772294 24.131659 431.614604 23.973968 
C 431.456913 23.816277 431.243008 23.727675 431.02 23.727675 
C 430.796992 23.727675 430.583087 23.816277 430.425396 23.973968 
C 430.267706 24.131659 430.179104 24.345563 430.179104 24.568571 
C 430.179104 24.79158 430.267706 25.005484 430.425396 25.163175 
C 430.583087 25.320866 430.796992 25.409468 431.02 25.409468 
z
" style="fill:#d95f02;stroke:#000000;stroke-width:0.75;"/>
    <path clip-path="url(#pbaa7e68cb2)" d="M 349.677143 262.625221 
C 350.636863 262.625221 351.557405 262.24392 352.236029 261.565296 
C 352.914654 260.886671 353.295955 259.966129 353.295955 259.006409 
C 353.295955 258.046689 352.914654 257.126147 352.236029 256.447523 
C 351.557405 255.768898 350.636863 255.387597 349.677143 255.387597 
C 348.717423 255.387597 347.796881 255.768898 347.118256 256.447523 
C 346.439632 257.126147 346.058331 258.046689 346.058331 259.006409 
C 346.058331 259.966129 346.439632 260.886671 347.118256 261.565296 
C 347.796881 262.24392 348.717423 262.625221 349.677143 262.625221 
z
" style="fill:#1b6145;stroke:#000000;stroke-width:0.75;"/>
    <path clip-path="url(#pbaa7e68cb2)" d="M 336.12 94.825642 
C 336.495054 94.825642 336.854797 94.676632 337.12 94.411429 
C 337.385203 94.146225 337.534214 93.786482 337.534214 93.411429 
C 337.534214 93.036375 337.385203 92.676632 337.12 92.411429 
C 336.854797 92.146225 336.495054 91.997215 336.12 91.997215 
C 335.744946 91.997215 335.385203 92.146225 335.12 92.411429 
C 334.854797 92.676632 334.705786 93.036375 334.705786 93.411429 
C 334.705786 93.786482 334.854797 94.146225 335.12 94.411429 
C 335.385203 94.676632 335.744946 94.825642 336.12 94.825642 
z
" style="fill:#e6ab02;stroke:#000000;stroke-width:0.75;"/>
    <path clip-path="url(#pbaa7e68cb2)" d="M 279.18 161.027945 
C 281.289083 161.027945 283.312067 160.189998 284.803413 158.698651 
C 286.29476 157.207305 287.132707 155.184321 287.132707 153.075238 
C 287.132707 150.966155 286.29476 148.943171 284.803413 147.451825 
C 283.312067 145.960478 281.289083 145.122531 279.18 145.122531 
C 277.070917 145.122531 275.047933 145.960478 273.556587 147.451825 
C 272.06524 148.943171 271.227293 150.966155 271.227293 153.075238 
C 271.227293 155.184321 272.06524 157.207305 273.556587 158.698651 
C 275.047933 160.189998 277.070917 161.027945 279.18 161.027945 
z
" style="fill:#c87b7c;stroke:#000000;stroke-width:0.75;"/>
    <path clip-path="url(#pbaa7e68cb2)" d="M 431.02 27.792281 
C 431.874938 27.792281 432.694975 27.452611 433.299507 26.848078 
C 433.904039 26.243546 434.24371 25.423509 434.24371 24.568571 
C 434.24371 23.713634 433.904039 22.893597 433.299507 22.289064 
C 432.694975 21.684532 431.874938 21.344862 431.02 21.344862 
C 430.165062 21.344862 429.345025 21.684532 428.740493 22.289064 
C 428.135961 22.893597 427.79629 23.713634 427.79629 24.568571 
C 427.79629 25.423509 428.135961 26.243546 428.740493 26.848078 
C 429.345025 27.452611 430.165062 27.792281 431.02 27.792281 
z
" style="fill:#e6ab02;stroke:#000000;stroke-width:0.75;"/>
    <path clip-path="url(#pbaa7e68cb2)" d="M 431.02 25.409468 
C 431.243008 25.409468 431.456913 25.320866 431.614604 25.163175 
C 431.772294 25.005484 431.860896 24.79158 431.860896 24.568571 
C 431.860896 24.345563 431.772294 24.131659 431.614604 23.973968 
C 431.456913 23.816277 431.243008 23.727675 431.02 23.727675 
C 430.796992 23.727675 430.583087 23.816277 430.425396 23.973968 
C 430.267706 24.131659 430.179104 24.345563 430.179104 24.568571 
C 430.179104 24.79158 430.267706 25.005484 430.425396 25.163175 
C 430.583087 25.320866 430.796992 25.409468 431.02 25.409468 
z
" style="fill:#1a2441;stroke:#000000;stroke-width:0.75;"/>
    <path clip-path="url(#pbaa7e68cb2)" d="M 297.827018 93.530563 
C 300.57779 93.530563 303.216269 92.437669 305.161359 90.492579 
C 307.10645 88.547489 308.199343 85.90901 308.199343 83.158237 
C 308.199343 80.407464 307.10645 77.768985 305.161359 75.823895 
C 303.216269 73.878805 300.57779 72.785911 297.827018 72.785911 
C 295.076245 72.785911 292.437766 73.878805 290.492676 75.823895 
C 288.547586 77.768985 287.454692 80.407464 287.454692 83.158237 
C 287.454692 85.90901 288.547586 88.547489 290.492676 90.492579 
C 292.437766 92.437669 295.076245 93.530563 297.827018 93.530563 
z
" style="fill:#e6ab02;stroke:#000000;stroke-width:0.75;"/>
    <path clip-path="url(#pbaa7e68cb2)" d="M 322.562857 26.72033 
C 323.13351 26.72033 323.680868 26.493607 324.08438 26.090094 
C 324.487893 25.686582 324.714616 25.139224 324.714616 24.568571 
C 324.714616 23.997918 324.487893 23.450561 324.08438 23.047048 
C 323.680868 22.643536 323.13351 22.416813 322.562857 22.416813 
C 321.992204 22.416813 321.444847 22.643536 321.041334 23.047048 
C 320.637821 23.450561 320.411099 23.997918 320.411099 24.568571 
C 320.411099 25.139224 320.637821 25.686582 321.041334 26.090094 
C 321.444847 26.493607 321.992204 26.72033 322.562857 26.72033 
z
" style="fill:#1a2441;stroke:#000000;stroke-width:0.75;"/>
    <path clip-path="url(#pbaa7e68cb2)" d="M 393.06 227.650408 
C 393.805673 227.650408 394.520906 227.354149 395.048177 226.826878 
C 395.575447 226.299607 395.871707 225.584375 395.871707 224.838701 
C 395.871707 224.093028 395.575447 223.377795 395.048177 222.850524 
C 394.520906 222.323254 393.805673 222.026995 393.06 222.026995 
C 392.314327 222.026995 391.599094 222.323254 391.071823 222.850524 
C 390.544553 223.377795 390.248293 224.093028 390.248293 224.838701 
C 390.248293 225.584375 390.544553 226.299607 391.071823 226.826878 
C 391.599094 227.354149 392.314327 227.650408 393.06 227.650408 
z
" style="fill:#e6ab02;stroke:#000000;stroke-width:0.75;"/>
    <path clip-path="url(#pbaa7e68cb2)" d="M 122.595 28.568571 
C 123.655812 28.568571 124.673319 28.147106 125.423427 27.396999 
C 126.173535 26.646891 126.595 25.629384 126.595 24.568571 
C 126.595 23.507759 126.173535 22.490252 125.423427 21.740144 
C 124.673319 20.990037 123.655812 20.568571 122.595 20.568571 
C 121.534188 20.568571 120.516681 20.990037 119.766573 21.740144 
C 119.016465 22.490252 118.595 23.507759 118.595 24.568571 
C 118.595 25.629384 119.016465 26.646891 119.766573 27.396999 
C 120.516681 28.147106 121.534188 28.568571 122.595 28.568571 
z
" style="fill:#7570b3;stroke:#000000;stroke-width:0.75;"/>
    <path clip-path="url(#pbaa7e68cb2)" d="M 322.562857 270.707995 
C 323.863665 270.707995 325.11137 270.191178 326.03118 269.271369 
C 326.95099 268.351559 327.467806 267.103854 327.467806 265.803046 
C 327.467806 264.502238 326.95099 263.254533 326.03118 262.334724 
C 325.11137 261.414914 323.863665 260.898097 322.562857 260.898097 
C 321.26205 260.898097 320.014344 261.414914 319.094535 262.334724 
C 318.174725 263.254533 317.657908 264.502238 317.657908 265.803046 
C 317.657908 267.103854 318.174725 268.351559 319.094535 269.271369 
C 320.014344 270.191178 321.26205 270.707995 322.562857 270.707995 
z
" style="fill:#1a2441;stroke:#000000;stroke-width:0.75;"/>
    <path clip-path="url(#pbaa7e68cb2)" d="M 431.02 255.446682 
C 431.650763 255.446682 432.255776 255.196077 432.701793 254.75006 
C 433.14781 254.304044 433.398414 253.69903 433.398414 253.068267 
C 433.398414 252.437505 433.14781 251.832491 432.701793 251.386475 
C 432.255776 250.940458 431.650763 250.689853 431.02 250.689853 
C 430.389237 250.689853 429.784224 250.940458 429.338207 251.386475 
C 428.89219 251.832491 428.641586 252.437505 428.641586 253.068267 
C 428.641586 253.69903 428.89219 254.304044 429.338207 254.75006 
C 429.784224 255.196077 430.389237 255.446682 431.02 255.446682 
z
" style="fill:#e6ab02;stroke:#000000;stroke-width:0.75;"/>
    <path clip-path="url(#pbaa7e68cb2)" d="M 304.486667 233.013972 
C 304.995016 233.013972 305.482613 232.812003 305.84207 232.452546 
C 306.201527 232.093089 306.403496 231.605492 306.403496 231.097143 
C 306.403496 230.588794 306.201527 230.101197 305.84207 229.74174 
C 305.482613 229.382283 304.995016 229.180314 304.486667 229.180314 
C 303.978318 229.180314 303.490721 229.382283 303.131264 229.74174 
C 302.771807 230.101197 302.569837 230.588794 302.569837 231.097143 
C 302.569837 231.605492 302.771807 232.093089 303.131264 232.452546 
C 303.490721 232.812003 303.978318 233.013972 304.486667 233.013972 
z
" style="fill:#a6761d;stroke:#000000;stroke-width:0.75;"/>
    <path clip-path="url(#pbaa7e68cb2)" d="M 405.713333 277.525145 
C 406.724021 277.525145 407.69345 277.123595 408.408114 276.40893 
C 409.122778 275.694266 409.524329 274.724838 409.524329 273.71415 
C 409.524329 272.703462 409.122778 271.734033 408.408114 271.019369 
C 407.69345 270.304705 406.724021 269.903154 405.713333 269.903154 
C 404.702645 269.903154 403.733217 270.304705 403.018552 271.019369 
C 402.303888 271.734033 401.902338 272.703462 401.902338 273.71415 
C 401.902338 274.724838 402.303888 275.694266 403.018552 276.40893 
C 403.733217 277.123595 404.702645 277.525145 405.713333 277.525145 
z
" style="fill:#a6761d;stroke:#000000;stroke-width:0.75;"/>
   </g>
   <g id="matplotlib.axis_1">
    <g id="xtick_1">
     <g id="line2d_1">
      <defs>
       <path d="M 0 0 
L 0 -3.5 
" id="med1378a3d8" style="stroke:#000000;stroke-width:0.8;"/>
      </defs>
      <g>
       <use style="stroke:#000000;stroke-width:0.8;" x="51.42" xlink:href="#med1378a3d8" y="299.94"/>
      </g>
     </g>
     <g id="text_1">
      <!-- 0.0 -->
      <defs>
       <path d="M 31.78125 66.40625 
Q 24.171875 66.40625 20.328125 58.90625 
Q 16.5 51.421875 16.5 36.375 
Q 16.5 21.390625 20.328125 13.890625 
Q 24.171875 6.390625 31.78125 6.390625 
Q 39.453125 6.390625 43.28125 13.890625 
Q 47.125 21.390625 47.125 36.375 
Q 47.125 51.421875 43.28125 58.90625 
Q 39.453125 66.40625 31.78125 66.40625 
z
M 31.78125 74.21875 
Q 44.046875 74.21875 50.515625 64.515625 
Q 56.984375 54.828125 56.984375 36.375 
Q 56.984375 17.96875 50.515625 8.265625 
Q 44.046875 -1.421875 31.78125 -1.421875 
Q 19.53125 -1.421875 13.0625 8.265625 
Q 6.59375 17.96875 6.59375 36.375 
Q 6.59375 54.828125 13.0625 64.515625 
Q 19.53125 74.21875 31.78125 74.21875 
z
" id="DejaVuSans-48"/>
       <path d="M 10.6875 12.40625 
L 21 12.40625 
L 21 0 
L 10.6875 0 
z
" id="DejaVuSans-46"/>
      </defs>
      <g transform="translate(43.468438 311.038437)scale(0.1 -0.1)">
       <use xlink:href="#DejaVuSans-48"/>
       <use x="63.623047" xlink:href="#DejaVuSans-46"/>
       <use x="95.410156" xlink:href="#DejaVuSans-48"/>
      </g>
     </g>
    </g>
    <g id="xtick_2">
     <g id="line2d_2">
      <g>
       <use style="stroke:#000000;stroke-width:0.8;" x="127.34" xlink:href="#med1378a3d8" y="299.94"/>
      </g>
     </g>
     <g id="text_2">
      <!-- 0.2 -->
      <defs>
       <path d="M 19.1875 8.296875 
L 53.609375 8.296875 
L 53.609375 0 
L 7.328125 0 
L 7.328125 8.296875 
Q 12.9375 14.109375 22.625 23.890625 
Q 32.328125 33.6875 34.8125 36.53125 
Q 39.546875 41.84375 41.421875 45.53125 
Q 43.3125 49.21875 43.3125 52.78125 
Q 43.3125 58.59375 39.234375 62.25 
Q 35.15625 65.921875 28.609375 65.921875 
Q 23.96875 65.921875 18.8125 64.3125 
Q 13.671875 62.703125 7.8125 59.421875 
L 7.8125 69.390625 
Q 13.765625 71.78125 18.9375 73 
Q 24.125 74.21875 28.421875 74.21875 
Q 39.75 74.21875 46.484375 68.546875 
Q 53.21875 62.890625 53.21875 53.421875 
Q 53.21875 48.921875 51.53125 44.890625 
Q 49.859375 40.875 45.40625 35.40625 
Q 44.1875 33.984375 37.640625 27.21875 
Q 31.109375 20.453125 19.1875 8.296875 
z
" id="DejaVuSans-50"/>
      </defs>
      <g transform="translate(119.388438 311.038437)scale(0.1 -0.1)">
       <use xlink:href="#DejaVuSans-48"/>
       <use x="63.623047" xlink:href="#DejaVuSans-46"/>
       <use x="95.410156" xlink:href="#DejaVuSans-50"/>
      </g>
     </g>
    </g>
    <g id="xtick_3">
     <g id="line2d_3">
      <g>
       <use style="stroke:#000000;stroke-width:0.8;" x="203.26" xlink:href="#med1378a3d8" y="299.94"/>
      </g>
     </g>
     <g id="text_3">
      <!-- 0.4 -->
      <defs>
       <path d="M 37.796875 64.3125 
L 12.890625 25.390625 
L 37.796875 25.390625 
z
M 35.203125 72.90625 
L 47.609375 72.90625 
L 47.609375 25.390625 
L 58.015625 25.390625 
L 58.015625 17.1875 
L 47.609375 17.1875 
L 47.609375 0 
L 37.796875 0 
L 37.796875 17.1875 
L 4.890625 17.1875 
L 4.890625 26.703125 
z
" id="DejaVuSans-52"/>
      </defs>
      <g transform="translate(195.308438 311.038437)scale(0.1 -0.1)">
       <use xlink:href="#DejaVuSans-48"/>
       <use x="63.623047" xlink:href="#DejaVuSans-46"/>
       <use x="95.410156" xlink:href="#DejaVuSans-52"/>
      </g>
     </g>
    </g>
    <g id="xtick_4">
     <g id="line2d_4">
      <g>
       <use style="stroke:#000000;stroke-width:0.8;" x="279.18" xlink:href="#med1378a3d8" y="299.94"/>
      </g>
     </g>
     <g id="text_4">
      <!-- 0.6 -->
      <defs>
       <path d="M 33.015625 40.375 
Q 26.375 40.375 22.484375 35.828125 
Q 18.609375 31.296875 18.609375 23.390625 
Q 18.609375 15.53125 22.484375 10.953125 
Q 26.375 6.390625 33.015625 6.390625 
Q 39.65625 6.390625 43.53125 10.953125 
Q 47.40625 15.53125 47.40625 23.390625 
Q 47.40625 31.296875 43.53125 35.828125 
Q 39.65625 40.375 33.015625 40.375 
z
M 52.59375 71.296875 
L 52.59375 62.3125 
Q 48.875 64.0625 45.09375 64.984375 
Q 41.3125 65.921875 37.59375 65.921875 
Q 27.828125 65.921875 22.671875 59.328125 
Q 17.53125 52.734375 16.796875 39.40625 
Q 19.671875 43.65625 24.015625 45.921875 
Q 28.375 48.1875 33.59375 48.1875 
Q 44.578125 48.1875 50.953125 41.515625 
Q 57.328125 34.859375 57.328125 23.390625 
Q 57.328125 12.15625 50.6875 5.359375 
Q 44.046875 -1.421875 33.015625 -1.421875 
Q 20.359375 -1.421875 13.671875 8.265625 
Q 6.984375 17.96875 6.984375 36.375 
Q 6.984375 53.65625 15.1875 63.9375 
Q 23.390625 74.21875 37.203125 74.21875 
Q 40.921875 74.21875 44.703125 73.484375 
Q 48.484375 72.75 52.59375 71.296875 
z
" id="DejaVuSans-54"/>
      </defs>
      <g transform="translate(271.228437 311.038437)scale(0.1 -0.1)">
       <use xlink:href="#DejaVuSans-48"/>
       <use x="63.623047" xlink:href="#DejaVuSans-46"/>
       <use x="95.410156" xlink:href="#DejaVuSans-54"/>
      </g>
     </g>
    </g>
    <g id="xtick_5">
     <g id="line2d_5">
      <g>
       <use style="stroke:#000000;stroke-width:0.8;" x="355.1" xlink:href="#med1378a3d8" y="299.94"/>
      </g>
     </g>
     <g id="text_5">
      <!-- 0.8 -->
      <defs>
       <path d="M 31.78125 34.625 
Q 24.75 34.625 20.71875 30.859375 
Q 16.703125 27.09375 16.703125 20.515625 
Q 16.703125 13.921875 20.71875 10.15625 
Q 24.75 6.390625 31.78125 6.390625 
Q 38.8125 6.390625 42.859375 10.171875 
Q 46.921875 13.96875 46.921875 20.515625 
Q 46.921875 27.09375 42.890625 30.859375 
Q 38.875 34.625 31.78125 34.625 
z
M 21.921875 38.8125 
Q 15.578125 40.375 12.03125 44.71875 
Q 8.5 49.078125 8.5 55.328125 
Q 8.5 64.0625 14.71875 69.140625 
Q 20.953125 74.21875 31.78125 74.21875 
Q 42.671875 74.21875 48.875 69.140625 
Q 55.078125 64.0625 55.078125 55.328125 
Q 55.078125 49.078125 51.53125 44.71875 
Q 48 40.375 41.703125 38.8125 
Q 48.828125 37.15625 52.796875 32.3125 
Q 56.78125 27.484375 56.78125 20.515625 
Q 56.78125 9.90625 50.3125 4.234375 
Q 43.84375 -1.421875 31.78125 -1.421875 
Q 19.734375 -1.421875 13.25 4.234375 
Q 6.78125 9.90625 6.78125 20.515625 
Q 6.78125 27.484375 10.78125 32.3125 
Q 14.796875 37.15625 21.921875 38.8125 
z
M 18.3125 54.390625 
Q 18.3125 48.734375 21.84375 45.5625 
Q 25.390625 42.390625 31.78125 42.390625 
Q 38.140625 42.390625 41.71875 45.5625 
Q 45.3125 48.734375 45.3125 54.390625 
Q 45.3125 60.0625 41.71875 63.234375 
Q 38.140625 66.40625 31.78125 66.40625 
Q 25.390625 66.40625 21.84375 63.234375 
Q 18.3125 60.0625 18.3125 54.390625 
z
" id="DejaVuSans-56"/>
      </defs>
      <g transform="translate(347.148438 311.038437)scale(0.1 -0.1)">
       <use xlink:href="#DejaVuSans-48"/>
       <use x="63.623047" xlink:href="#DejaVuSans-46"/>
       <use x="95.410156" xlink:href="#DejaVuSans-56"/>
      </g>
     </g>
    </g>
    <g id="xtick_6">
     <g id="line2d_6">
      <g>
       <use style="stroke:#000000;stroke-width:0.8;" x="431.02" xlink:href="#med1378a3d8" y="299.94"/>
      </g>
     </g>
     <g id="text_6">
      <!-- 1.0 -->
      <defs>
       <path d="M 12.40625 8.296875 
L 28.515625 8.296875 
L 28.515625 63.921875 
L 10.984375 60.40625 
L 10.984375 69.390625 
L 28.421875 72.90625 
L 38.28125 72.90625 
L 38.28125 8.296875 
L 54.390625 8.296875 
L 54.390625 0 
L 12.40625 0 
z
" id="DejaVuSans-49"/>
      </defs>
      <g transform="translate(423.068437 311.038437)scale(0.1 -0.1)">
       <use xlink:href="#DejaVuSans-49"/>
       <use x="63.623047" xlink:href="#DejaVuSans-46"/>
       <use x="95.410156" xlink:href="#DejaVuSans-48"/>
      </g>
     </g>
    </g>
    <g id="xtick_7">
     <g id="line2d_7">
      <defs>
       <path d="M 0 0 
L 0 -2 
" id="m0f08ca0f84" style="stroke:#000000;stroke-width:0.6;"/>
      </defs>
      <g>
       <use style="stroke:#000000;stroke-width:0.6;" x="70.4" xlink:href="#m0f08ca0f84" y="299.94"/>
      </g>
     </g>
    </g>
    <g id="xtick_8">
     <g id="line2d_8">
      <g>
       <use style="stroke:#000000;stroke-width:0.6;" x="89.38" xlink:href="#m0f08ca0f84" y="299.94"/>
      </g>
     </g>
    </g>
    <g id="xtick_9">
     <g id="line2d_9">
      <g>
       <use style="stroke:#000000;stroke-width:0.6;" x="108.36" xlink:href="#m0f08ca0f84" y="299.94"/>
      </g>
     </g>
    </g>
    <g id="xtick_10">
     <g id="line2d_10">
      <g>
       <use style="stroke:#000000;stroke-width:0.6;" x="146.32" xlink:href="#m0f08ca0f84" y="299.94"/>
      </g>
     </g>
    </g>
    <g id="xtick_11">
     <g id="line2d_11">
      <g>
       <use style="stroke:#000000;stroke-width:0.6;" x="165.3" xlink:href="#m0f08ca0f84" y="299.94"/>
      </g>
     </g>
    </g>
    <g id="xtick_12">
     <g id="line2d_12">
      <g>
       <use style="stroke:#000000;stroke-width:0.6;" x="184.28" xlink:href="#m0f08ca0f84" y="299.94"/>
      </g>
     </g>
    </g>
    <g id="xtick_13">
     <g id="line2d_13">
      <g>
       <use style="stroke:#000000;stroke-width:0.6;" x="222.24" xlink:href="#m0f08ca0f84" y="299.94"/>
      </g>
     </g>
    </g>
    <g id="xtick_14">
     <g id="line2d_14">
      <g>
       <use style="stroke:#000000;stroke-width:0.6;" x="241.22" xlink:href="#m0f08ca0f84" y="299.94"/>
      </g>
     </g>
    </g>
    <g id="xtick_15">
     <g id="line2d_15">
      <g>
       <use style="stroke:#000000;stroke-width:0.6;" x="260.2" xlink:href="#m0f08ca0f84" y="299.94"/>
      </g>
     </g>
    </g>
    <g id="xtick_16">
     <g id="line2d_16">
      <g>
       <use style="stroke:#000000;stroke-width:0.6;" x="298.16" xlink:href="#m0f08ca0f84" y="299.94"/>
      </g>
     </g>
    </g>
    <g id="xtick_17">
     <g id="line2d_17">
      <g>
       <use style="stroke:#000000;stroke-width:0.6;" x="317.14" xlink:href="#m0f08ca0f84" y="299.94"/>
      </g>
     </g>
    </g>
    <g id="xtick_18">
     <g id="line2d_18">
      <g>
       <use style="stroke:#000000;stroke-width:0.6;" x="336.12" xlink:href="#m0f08ca0f84" y="299.94"/>
      </g>
     </g>
    </g>
    <g id="xtick_19">
     <g id="line2d_19">
      <g>
       <use style="stroke:#000000;stroke-width:0.6;" x="374.08" xlink:href="#m0f08ca0f84" y="299.94"/>
      </g>
     </g>
    </g>
    <g id="xtick_20">
     <g id="line2d_20">
      <g>
       <use style="stroke:#000000;stroke-width:0.6;" x="393.06" xlink:href="#m0f08ca0f84" y="299.94"/>
      </g>
     </g>
    </g>
    <g id="xtick_21">
     <g id="line2d_21">
      <g>
       <use style="stroke:#000000;stroke-width:0.6;" x="412.04" xlink:href="#m0f08ca0f84" y="299.94"/>
      </g>
     </g>
    </g>
    <g id="xtick_22">
     <g id="line2d_22">
      <g>
       <use style="stroke:#000000;stroke-width:0.6;" x="450" xlink:href="#m0f08ca0f84" y="299.94"/>
      </g>
     </g>
    </g>
    <g id="text_7">
     <!-- Regulon Recall -->
     <defs>
      <path d="M 44.390625 34.1875 
Q 47.5625 33.109375 50.5625 29.59375 
Q 53.5625 26.078125 56.59375 19.921875 
L 66.609375 0 
L 56 0 
L 46.6875 18.703125 
Q 43.0625 26.03125 39.671875 28.421875 
Q 36.28125 30.8125 30.421875 30.8125 
L 19.671875 30.8125 
L 19.671875 0 
L 9.8125 0 
L 9.8125 72.90625 
L 32.078125 72.90625 
Q 44.578125 72.90625 50.734375 67.671875 
Q 56.890625 62.453125 56.890625 51.90625 
Q 56.890625 45.015625 53.6875 40.46875 
Q 50.484375 35.9375 44.390625 34.1875 
z
M 19.671875 64.796875 
L 19.671875 38.921875 
L 32.078125 38.921875 
Q 39.203125 38.921875 42.84375 42.21875 
Q 46.484375 45.515625 46.484375 51.90625 
Q 46.484375 58.296875 42.84375 61.546875 
Q 39.203125 64.796875 32.078125 64.796875 
z
" id="DejaVuSans-82"/>
      <path d="M 56.203125 29.59375 
L 56.203125 25.203125 
L 14.890625 25.203125 
Q 15.484375 15.921875 20.484375 11.0625 
Q 25.484375 6.203125 34.421875 6.203125 
Q 39.59375 6.203125 44.453125 7.46875 
Q 49.3125 8.734375 54.109375 11.28125 
L 54.109375 2.78125 
Q 49.265625 0.734375 44.1875 -0.34375 
Q 39.109375 -1.421875 33.890625 -1.421875 
Q 20.796875 -1.421875 13.15625 6.1875 
Q 5.515625 13.8125 5.515625 26.8125 
Q 5.515625 40.234375 12.765625 48.109375 
Q 20.015625 56 32.328125 56 
Q 43.359375 56 49.78125 48.890625 
Q 56.203125 41.796875 56.203125 29.59375 
z
M 47.21875 32.234375 
Q 47.125 39.59375 43.09375 43.984375 
Q 39.0625 48.390625 32.421875 48.390625 
Q 24.90625 48.390625 20.390625 44.140625 
Q 15.875 39.890625 15.1875 32.171875 
z
" id="DejaVuSans-101"/>
      <path d="M 45.40625 27.984375 
Q 45.40625 37.75 41.375 43.109375 
Q 37.359375 48.484375 30.078125 48.484375 
Q 22.859375 48.484375 18.828125 43.109375 
Q 14.796875 37.75 14.796875 27.984375 
Q 14.796875 18.265625 18.828125 12.890625 
Q 22.859375 7.515625 30.078125 7.515625 
Q 37.359375 7.515625 41.375 12.890625 
Q 45.40625 18.265625 45.40625 27.984375 
z
M 54.390625 6.78125 
Q 54.390625 -7.171875 48.1875 -13.984375 
Q 42 -20.796875 29.203125 -20.796875 
Q 24.46875 -20.796875 20.265625 -20.09375 
Q 16.0625 -19.390625 12.109375 -17.921875 
L 12.109375 -9.1875 
Q 16.0625 -11.328125 19.921875 -12.34375 
Q 23.78125 -13.375 27.78125 -13.375 
Q 36.625 -13.375 41.015625 -8.765625 
Q 45.40625 -4.15625 45.40625 5.171875 
L 45.40625 9.625 
Q 42.625 4.78125 38.28125 2.390625 
Q 33.9375 0 27.875 0 
Q 17.828125 0 11.671875 7.65625 
Q 5.515625 15.328125 5.515625 27.984375 
Q 5.515625 40.671875 11.671875 48.328125 
Q 17.828125 56 27.875 56 
Q 33.9375 56 38.28125 53.609375 
Q 42.625 51.21875 45.40625 46.390625 
L 45.40625 54.6875 
L 54.390625 54.6875 
z
" id="DejaVuSans-103"/>
      <path d="M 8.5 21.578125 
L 8.5 54.6875 
L 17.484375 54.6875 
L 17.484375 21.921875 
Q 17.484375 14.15625 20.5 10.265625 
Q 23.53125 6.390625 29.59375 6.390625 
Q 36.859375 6.390625 41.078125 11.03125 
Q 45.3125 15.671875 45.3125 23.6875 
L 45.3125 54.6875 
L 54.296875 54.6875 
L 54.296875 0 
L 45.3125 0 
L 45.3125 8.40625 
Q 42.046875 3.421875 37.71875 1 
Q 33.40625 -1.421875 27.6875 -1.421875 
Q 18.265625 -1.421875 13.375 4.4375 
Q 8.5 10.296875 8.5 21.578125 
z
M 31.109375 56 
z
" id="DejaVuSans-117"/>
      <path d="M 9.421875 75.984375 
L 18.40625 75.984375 
L 18.40625 0 
L 9.421875 0 
z
" id="DejaVuSans-108"/>
      <path d="M 30.609375 48.390625 
Q 23.390625 48.390625 19.1875 42.75 
Q 14.984375 37.109375 14.984375 27.296875 
Q 14.984375 17.484375 19.15625 11.84375 
Q 23.34375 6.203125 30.609375 6.203125 
Q 37.796875 6.203125 41.984375 11.859375 
Q 46.1875 17.53125 46.1875 27.296875 
Q 46.1875 37.015625 41.984375 42.703125 
Q 37.796875 48.390625 30.609375 48.390625 
z
M 30.609375 56 
Q 42.328125 56 49.015625 48.375 
Q 55.71875 40.765625 55.71875 27.296875 
Q 55.71875 13.875 49.015625 6.21875 
Q 42.328125 -1.421875 30.609375 -1.421875 
Q 18.84375 -1.421875 12.171875 6.21875 
Q 5.515625 13.875 5.515625 27.296875 
Q 5.515625 40.765625 12.171875 48.375 
Q 18.84375 56 30.609375 56 
z
" id="DejaVuSans-111"/>
      <path d="M 54.890625 33.015625 
L 54.890625 0 
L 45.90625 0 
L 45.90625 32.71875 
Q 45.90625 40.484375 42.875 44.328125 
Q 39.84375 48.1875 33.796875 48.1875 
Q 26.515625 48.1875 22.3125 43.546875 
Q 18.109375 38.921875 18.109375 30.90625 
L 18.109375 0 
L 9.078125 0 
L 9.078125 54.6875 
L 18.109375 54.6875 
L 18.109375 46.1875 
Q 21.34375 51.125 25.703125 53.5625 
Q 30.078125 56 35.796875 56 
Q 45.21875 56 50.046875 50.171875 
Q 54.890625 44.34375 54.890625 33.015625 
z
" id="DejaVuSans-110"/>
      <path id="DejaVuSans-32"/>
      <path d="M 48.78125 52.59375 
L 48.78125 44.1875 
Q 44.96875 46.296875 41.140625 47.34375 
Q 37.3125 48.390625 33.40625 48.390625 
Q 24.65625 48.390625 19.8125 42.84375 
Q 14.984375 37.3125 14.984375 27.296875 
Q 14.984375 17.28125 19.8125 11.734375 
Q 24.65625 6.203125 33.40625 6.203125 
Q 37.3125 6.203125 41.140625 7.25 
Q 44.96875 8.296875 48.78125 10.40625 
L 48.78125 2.09375 
Q 45.015625 0.34375 40.984375 -0.53125 
Q 36.96875 -1.421875 32.421875 -1.421875 
Q 20.0625 -1.421875 12.78125 6.34375 
Q 5.515625 14.109375 5.515625 27.296875 
Q 5.515625 40.671875 12.859375 48.328125 
Q 20.21875 56 33.015625 56 
Q 37.15625 56 41.109375 55.140625 
Q 45.0625 54.296875 48.78125 52.59375 
z
" id="DejaVuSans-99"/>
      <path d="M 34.28125 27.484375 
Q 23.390625 27.484375 19.1875 25 
Q 14.984375 22.515625 14.984375 16.5 
Q 14.984375 11.71875 18.140625 8.90625 
Q 21.296875 6.109375 26.703125 6.109375 
Q 34.1875 6.109375 38.703125 11.40625 
Q 43.21875 16.703125 43.21875 25.484375 
L 43.21875 27.484375 
z
M 52.203125 31.203125 
L 52.203125 0 
L 43.21875 0 
L 43.21875 8.296875 
Q 40.140625 3.328125 35.546875 0.953125 
Q 30.953125 -1.421875 24.3125 -1.421875 
Q 15.921875 -1.421875 10.953125 3.296875 
Q 6 8.015625 6 15.921875 
Q 6 25.140625 12.171875 29.828125 
Q 18.359375 34.515625 30.609375 34.515625 
L 43.21875 34.515625 
L 43.21875 35.40625 
Q 43.21875 41.609375 39.140625 45 
Q 35.0625 48.390625 27.6875 48.390625 
Q 23 48.390625 18.546875 47.265625 
Q 14.109375 46.140625 10.015625 43.890625 
L 10.015625 52.203125 
Q 14.9375 54.109375 19.578125 55.046875 
Q 24.21875 56 28.609375 56 
Q 40.484375 56 46.34375 49.84375 
Q 52.203125 43.703125 52.203125 31.203125 
z
" id="DejaVuSans-97"/>
     </defs>
     <g transform="translate(183.685313 330.795312)scale(0.18 -0.18)">
      <use xlink:href="#DejaVuSans-82"/>
      <use x="69.419922" xlink:href="#DejaVuSans-101"/>
      <use x="130.943359" xlink:href="#DejaVuSans-103"/>
      <use x="194.419922" xlink:href="#DejaVuSans-117"/>
      <use x="257.798828" xlink:href="#DejaVuSans-108"/>
      <use x="285.582031" xlink:href="#DejaVuSans-111"/>
      <use x="346.763672" xlink:href="#DejaVuSans-110"/>
      <use x="410.142578" xlink:href="#DejaVuSans-32"/>
      <use x="441.929688" xlink:href="#DejaVuSans-82"/>
      <use x="511.349609" xlink:href="#DejaVuSans-101"/>
      <use x="572.873047" xlink:href="#DejaVuSans-99"/>
      <use x="627.853516" xlink:href="#DejaVuSans-97"/>
      <use x="689.132812" xlink:href="#DejaVuSans-108"/>
      <use x="716.916016" xlink:href="#DejaVuSans-108"/>
     </g>
    </g>
   </g>
   <g id="matplotlib.axis_2">
    <g id="ytick_1">
     <g id="line2d_23">
      <defs>
       <path d="M 0 0 
L 3.5 0 
" id="m1d67c8d2ec" style="stroke:#000000;stroke-width:0.8;"/>
      </defs>
      <g>
       <use style="stroke:#000000;stroke-width:0.8;" x="51.42" xlink:href="#m1d67c8d2ec" y="299.94"/>
      </g>
     </g>
     <g id="text_8">
      <!-- 0.0 -->
      <g transform="translate(32.016875 303.739219)scale(0.1 -0.1)">
       <use xlink:href="#DejaVuSans-48"/>
       <use x="63.623047" xlink:href="#DejaVuSans-46"/>
       <use x="95.410156" xlink:href="#DejaVuSans-48"/>
      </g>
     </g>
    </g>
    <g id="ytick_2">
     <g id="line2d_24">
      <g>
       <use style="stroke:#000000;stroke-width:0.8;" x="51.42" xlink:href="#m1d67c8d2ec" y="244.865714"/>
      </g>
     </g>
     <g id="text_9">
      <!-- 0.2 -->
      <g transform="translate(32.016875 248.664933)scale(0.1 -0.1)">
       <use xlink:href="#DejaVuSans-48"/>
       <use x="63.623047" xlink:href="#DejaVuSans-46"/>
       <use x="95.410156" xlink:href="#DejaVuSans-50"/>
      </g>
     </g>
    </g>
    <g id="ytick_3">
     <g id="line2d_25">
      <g>
       <use style="stroke:#000000;stroke-width:0.8;" x="51.42" xlink:href="#m1d67c8d2ec" y="189.791429"/>
      </g>
     </g>
     <g id="text_10">
      <!-- 0.4 -->
      <g transform="translate(32.016875 193.590647)scale(0.1 -0.1)">
       <use xlink:href="#DejaVuSans-48"/>
       <use x="63.623047" xlink:href="#DejaVuSans-46"/>
       <use x="95.410156" xlink:href="#DejaVuSans-52"/>
      </g>
     </g>
    </g>
    <g id="ytick_4">
     <g id="line2d_26">
      <g>
       <use style="stroke:#000000;stroke-width:0.8;" x="51.42" xlink:href="#m1d67c8d2ec" y="134.717143"/>
      </g>
     </g>
     <g id="text_11">
      <!-- 0.6 -->
      <g transform="translate(32.016875 138.516362)scale(0.1 -0.1)">
       <use xlink:href="#DejaVuSans-48"/>
       <use x="63.623047" xlink:href="#DejaVuSans-46"/>
       <use x="95.410156" xlink:href="#DejaVuSans-54"/>
      </g>
     </g>
    </g>
    <g id="ytick_5">
     <g id="line2d_27">
      <g>
       <use style="stroke:#000000;stroke-width:0.8;" x="51.42" xlink:href="#m1d67c8d2ec" y="79.642857"/>
      </g>
     </g>
     <g id="text_12">
      <!-- 0.8 -->
      <g transform="translate(32.016875 83.442076)scale(0.1 -0.1)">
       <use xlink:href="#DejaVuSans-48"/>
       <use x="63.623047" xlink:href="#DejaVuSans-46"/>
       <use x="95.410156" xlink:href="#DejaVuSans-56"/>
      </g>
     </g>
    </g>
    <g id="ytick_6">
     <g id="line2d_28">
      <g>
       <use style="stroke:#000000;stroke-width:0.8;" x="51.42" xlink:href="#m1d67c8d2ec" y="24.568571"/>
      </g>
     </g>
     <g id="text_13">
      <!-- 1.0 -->
      <g transform="translate(32.016875 28.36779)scale(0.1 -0.1)">
       <use xlink:href="#DejaVuSans-49"/>
       <use x="63.623047" xlink:href="#DejaVuSans-46"/>
       <use x="95.410156" xlink:href="#DejaVuSans-48"/>
      </g>
     </g>
    </g>
    <g id="ytick_7">
     <g id="line2d_29">
      <defs>
       <path d="M 0 0 
L 2 0 
" id="mb505a0b0a6" style="stroke:#000000;stroke-width:0.6;"/>
      </defs>
      <g>
       <use style="stroke:#000000;stroke-width:0.6;" x="51.42" xlink:href="#mb505a0b0a6" y="286.171429"/>
      </g>
     </g>
    </g>
    <g id="ytick_8">
     <g id="line2d_30">
      <g>
       <use style="stroke:#000000;stroke-width:0.6;" x="51.42" xlink:href="#mb505a0b0a6" y="272.402857"/>
      </g>
     </g>
    </g>
    <g id="ytick_9">
     <g id="line2d_31">
      <g>
       <use style="stroke:#000000;stroke-width:0.6;" x="51.42" xlink:href="#mb505a0b0a6" y="258.634286"/>
      </g>
     </g>
    </g>
    <g id="ytick_10">
     <g id="line2d_32">
      <g>
       <use style="stroke:#000000;stroke-width:0.6;" x="51.42" xlink:href="#mb505a0b0a6" y="231.097143"/>
      </g>
     </g>
    </g>
    <g id="ytick_11">
     <g id="line2d_33">
      <g>
       <use style="stroke:#000000;stroke-width:0.6;" x="51.42" xlink:href="#mb505a0b0a6" y="217.328571"/>
      </g>
     </g>
    </g>
    <g id="ytick_12">
     <g id="line2d_34">
      <g>
       <use style="stroke:#000000;stroke-width:0.6;" x="51.42" xlink:href="#mb505a0b0a6" y="203.56"/>
      </g>
     </g>
    </g>
    <g id="ytick_13">
     <g id="line2d_35">
      <g>
       <use style="stroke:#000000;stroke-width:0.6;" x="51.42" xlink:href="#mb505a0b0a6" y="176.022857"/>
      </g>
     </g>
    </g>
    <g id="ytick_14">
     <g id="line2d_36">
      <g>
       <use style="stroke:#000000;stroke-width:0.6;" x="51.42" xlink:href="#mb505a0b0a6" y="162.254286"/>
      </g>
     </g>
    </g>
    <g id="ytick_15">
     <g id="line2d_37">
      <g>
       <use style="stroke:#000000;stroke-width:0.6;" x="51.42" xlink:href="#mb505a0b0a6" y="148.485714"/>
      </g>
     </g>
    </g>
    <g id="ytick_16">
     <g id="line2d_38">
      <g>
       <use style="stroke:#000000;stroke-width:0.6;" x="51.42" xlink:href="#mb505a0b0a6" y="120.948571"/>
      </g>
     </g>
    </g>
    <g id="ytick_17">
     <g id="line2d_39">
      <g>
       <use style="stroke:#000000;stroke-width:0.6;" x="51.42" xlink:href="#mb505a0b0a6" y="107.18"/>
      </g>
     </g>
    </g>
    <g id="ytick_18">
     <g id="line2d_40">
      <g>
       <use style="stroke:#000000;stroke-width:0.6;" x="51.42" xlink:href="#mb505a0b0a6" y="93.411429"/>
      </g>
     </g>
    </g>
    <g id="ytick_19">
     <g id="line2d_41">
      <g>
       <use style="stroke:#000000;stroke-width:0.6;" x="51.42" xlink:href="#mb505a0b0a6" y="65.874286"/>
      </g>
     </g>
    </g>
    <g id="ytick_20">
     <g id="line2d_42">
      <g>
       <use style="stroke:#000000;stroke-width:0.6;" x="51.42" xlink:href="#mb505a0b0a6" y="52.105714"/>
      </g>
     </g>
    </g>
    <g id="ytick_21">
     <g id="line2d_43">
      <g>
       <use style="stroke:#000000;stroke-width:0.6;" x="51.42" xlink:href="#mb505a0b0a6" y="38.337143"/>
      </g>
     </g>
    </g>
    <g id="ytick_22">
     <g id="line2d_44">
      <g>
       <use style="stroke:#000000;stroke-width:0.6;" x="51.42" xlink:href="#mb505a0b0a6" y="10.8"/>
      </g>
     </g>
    </g>
    <g id="text_14">
     <!-- iModulon Recall -->
     <defs>
      <path d="M 9.421875 54.6875 
L 18.40625 54.6875 
L 18.40625 0 
L 9.421875 0 
z
M 9.421875 75.984375 
L 18.40625 75.984375 
L 18.40625 64.59375 
L 9.421875 64.59375 
z
" id="DejaVuSans-105"/>
      <path d="M 9.8125 72.90625 
L 24.515625 72.90625 
L 43.109375 23.296875 
L 61.8125 72.90625 
L 76.515625 72.90625 
L 76.515625 0 
L 66.890625 0 
L 66.890625 64.015625 
L 48.09375 14.015625 
L 38.1875 14.015625 
L 19.390625 64.015625 
L 19.390625 0 
L 9.8125 0 
z
" id="DejaVuSans-77"/>
      <path d="M 45.40625 46.390625 
L 45.40625 75.984375 
L 54.390625 75.984375 
L 54.390625 0 
L 45.40625 0 
L 45.40625 8.203125 
Q 42.578125 3.328125 38.25 0.953125 
Q 33.9375 -1.421875 27.875 -1.421875 
Q 17.96875 -1.421875 11.734375 6.484375 
Q 5.515625 14.40625 5.515625 27.296875 
Q 5.515625 40.1875 11.734375 48.09375 
Q 17.96875 56 27.875 56 
Q 33.9375 56 38.25 53.625 
Q 42.578125 51.265625 45.40625 46.390625 
z
M 14.796875 27.296875 
Q 14.796875 17.390625 18.875 11.75 
Q 22.953125 6.109375 30.078125 6.109375 
Q 37.203125 6.109375 41.296875 11.75 
Q 45.40625 17.390625 45.40625 27.296875 
Q 45.40625 37.203125 41.296875 42.84375 
Q 37.203125 48.484375 30.078125 48.484375 
Q 22.953125 48.484375 18.875 42.84375 
Q 14.796875 37.203125 14.796875 27.296875 
z
" id="DejaVuSans-100"/>
     </defs>
     <g transform="translate(24.273438 226.381406)rotate(-90)scale(0.18 -0.18)">
      <use xlink:href="#DejaVuSans-105"/>
      <use x="27.783203" xlink:href="#DejaVuSans-77"/>
      <use x="114.0625" xlink:href="#DejaVuSans-111"/>
      <use x="175.244141" xlink:href="#DejaVuSans-100"/>
      <use x="238.720703" xlink:href="#DejaVuSans-117"/>
      <use x="302.099609" xlink:href="#DejaVuSans-108"/>
      <use x="329.882812" xlink:href="#DejaVuSans-111"/>
      <use x="391.064453" xlink:href="#DejaVuSans-110"/>
      <use x="454.443359" xlink:href="#DejaVuSans-32"/>
      <use x="486.230469" xlink:href="#DejaVuSans-82"/>
      <use x="555.650391" xlink:href="#DejaVuSans-101"/>
      <use x="617.173828" xlink:href="#DejaVuSans-99"/>
      <use x="672.154297" xlink:href="#DejaVuSans-97"/>
      <use x="733.433594" xlink:href="#DejaVuSans-108"/>
      <use x="761.216797" xlink:href="#DejaVuSans-108"/>
     </g>
    </g>
   </g>
   <g id="patch_3">
    <path d="M 51.42 299.94 
L 51.42 10.8 
" style="fill:none;stroke:#000000;stroke-linecap:square;stroke-linejoin:miter;stroke-width:0.8;"/>
   </g>
   <g id="patch_4">
    <path d="M 450 299.94 
L 450 10.8 
" style="fill:none;stroke:#000000;stroke-linecap:square;stroke-linejoin:miter;stroke-width:0.8;"/>
   </g>
   <g id="patch_5">
    <path d="M 51.42 299.94 
L 450 299.94 
" style="fill:none;stroke:#000000;stroke-linecap:square;stroke-linejoin:miter;stroke-width:0.8;"/>
   </g>
   <g id="patch_6">
    <path d="M 51.42 10.8 
L 450 10.8 
" style="fill:none;stroke:#000000;stroke-linecap:square;stroke-linejoin:miter;stroke-width:0.8;"/>
   </g>
   <g id="text_15">
    <!-- PurR -->
    <defs>
     <path d="M 19.671875 64.796875 
L 19.671875 37.40625 
L 32.078125 37.40625 
Q 38.96875 37.40625 42.71875 40.96875 
Q 46.484375 44.53125 46.484375 51.125 
Q 46.484375 57.671875 42.71875 61.234375 
Q 38.96875 64.796875 32.078125 64.796875 
z
M 9.8125 72.90625 
L 32.078125 72.90625 
Q 44.34375 72.90625 50.609375 67.359375 
Q 56.890625 61.8125 56.890625 51.125 
Q 56.890625 40.328125 50.609375 34.8125 
Q 44.34375 29.296875 32.078125 29.296875 
L 19.671875 29.296875 
L 19.671875 0 
L 9.8125 0 
z
" id="DejaVuSans-80"/>
     <path d="M 41.109375 46.296875 
Q 39.59375 47.171875 37.8125 47.578125 
Q 36.03125 48 33.890625 48 
Q 26.265625 48 22.1875 43.046875 
Q 18.109375 38.09375 18.109375 28.8125 
L 18.109375 0 
L 9.078125 0 
L 9.078125 54.6875 
L 18.109375 54.6875 
L 18.109375 46.1875 
Q 20.953125 51.171875 25.484375 53.578125 
Q 30.03125 56 36.53125 56 
Q 37.453125 56 38.578125 55.875 
Q 39.703125 55.765625 41.0625 55.515625 
z
" id="DejaVuSans-114"/>
    </defs>
    <g transform="translate(377.577411 60.238264)scale(0.12 -0.12)">
     <use xlink:href="#DejaVuSans-80"/>
     <use x="60.287109" xlink:href="#DejaVuSans-117"/>
     <use x="123.666016" xlink:href="#DejaVuSans-114"/>
     <use x="164.779297" xlink:href="#DejaVuSans-82"/>
    </g>
   </g>
   <g id="text_16">
    <!-- PyrR -->
    <defs>
     <path d="M 32.171875 -5.078125 
Q 28.375 -14.84375 24.75 -17.8125 
Q 21.140625 -20.796875 15.09375 -20.796875 
L 7.90625 -20.796875 
L 7.90625 -13.28125 
L 13.1875 -13.28125 
Q 16.890625 -13.28125 18.9375 -11.515625 
Q 21 -9.765625 23.484375 -3.21875 
L 25.09375 0.875 
L 2.984375 54.6875 
L 12.5 54.6875 
L 29.59375 11.921875 
L 46.6875 54.6875 
L 56.203125 54.6875 
z
" id="DejaVuSans-121"/>
    </defs>
    <g transform="translate(360.459393 20.899489)scale(0.12 -0.12)">
     <use xlink:href="#DejaVuSans-80"/>
     <use x="60.302734" xlink:href="#DejaVuSans-121"/>
     <use x="119.482422" xlink:href="#DejaVuSans-114"/>
     <use x="160.595703" xlink:href="#DejaVuSans-82"/>
    </g>
   </g>
   <g id="text_17">
    <!-- CcpA-1 -->
    <defs>
     <path d="M 64.40625 67.28125 
L 64.40625 56.890625 
Q 59.421875 61.53125 53.78125 63.8125 
Q 48.140625 66.109375 41.796875 66.109375 
Q 29.296875 66.109375 22.65625 58.46875 
Q 16.015625 50.828125 16.015625 36.375 
Q 16.015625 21.96875 22.65625 14.328125 
Q 29.296875 6.6875 41.796875 6.6875 
Q 48.140625 6.6875 53.78125 8.984375 
Q 59.421875 11.28125 64.40625 15.921875 
L 64.40625 5.609375 
Q 59.234375 2.09375 53.4375 0.328125 
Q 47.65625 -1.421875 41.21875 -1.421875 
Q 24.65625 -1.421875 15.125 8.703125 
Q 5.609375 18.84375 5.609375 36.375 
Q 5.609375 53.953125 15.125 64.078125 
Q 24.65625 74.21875 41.21875 74.21875 
Q 47.75 74.21875 53.53125 72.484375 
Q 59.328125 70.75 64.40625 67.28125 
z
" id="DejaVuSans-67"/>
     <path d="M 18.109375 8.203125 
L 18.109375 -20.796875 
L 9.078125 -20.796875 
L 9.078125 54.6875 
L 18.109375 54.6875 
L 18.109375 46.390625 
Q 20.953125 51.265625 25.265625 53.625 
Q 29.59375 56 35.59375 56 
Q 45.5625 56 51.78125 48.09375 
Q 58.015625 40.1875 58.015625 27.296875 
Q 58.015625 14.40625 51.78125 6.484375 
Q 45.5625 -1.421875 35.59375 -1.421875 
Q 29.59375 -1.421875 25.265625 0.953125 
Q 20.953125 3.328125 18.109375 8.203125 
z
M 48.6875 27.296875 
Q 48.6875 37.203125 44.609375 42.84375 
Q 40.53125 48.484375 33.40625 48.484375 
Q 26.265625 48.484375 22.1875 42.84375 
Q 18.109375 37.203125 18.109375 27.296875 
Q 18.109375 17.390625 22.1875 11.75 
Q 26.265625 6.109375 33.40625 6.109375 
Q 40.53125 6.109375 44.609375 11.75 
Q 48.6875 17.390625 48.6875 27.296875 
z
" id="DejaVuSans-112"/>
     <path d="M 34.1875 63.1875 
L 20.796875 26.90625 
L 47.609375 26.90625 
z
M 28.609375 72.90625 
L 39.796875 72.90625 
L 67.578125 0 
L 57.328125 0 
L 50.6875 18.703125 
L 17.828125 18.703125 
L 11.1875 0 
L 0.78125 0 
z
" id="DejaVuSans-65"/>
     <path d="M 4.890625 31.390625 
L 31.203125 31.390625 
L 31.203125 23.390625 
L 4.890625 23.390625 
z
" id="DejaVuSans-45"/>
    </defs>
    <g transform="translate(301.080793 132.413538)scale(0.12 -0.12)">
     <use xlink:href="#DejaVuSans-67"/>
     <use x="69.824219" xlink:href="#DejaVuSans-99"/>
     <use x="124.804688" xlink:href="#DejaVuSans-112"/>
     <use x="188.28125" xlink:href="#DejaVuSans-65"/>
     <use x="256.658203" xlink:href="#DejaVuSans-45"/>
     <use x="292.742188" xlink:href="#DejaVuSans-49"/>
    </g>
   </g>
   <g id="text_18">
    <!-- CodY-1 -->
    <defs>
     <path d="M -0.203125 72.90625 
L 10.40625 72.90625 
L 30.609375 42.921875 
L 50.6875 72.90625 
L 61.28125 72.90625 
L 35.5 34.71875 
L 35.5 0 
L 25.59375 0 
L 25.59375 34.71875 
z
" id="DejaVuSans-89"/>
    </defs>
    <g transform="translate(286.546712 196.987341)scale(0.12 -0.12)">
     <use xlink:href="#DejaVuSans-67"/>
     <use x="69.824219" xlink:href="#DejaVuSans-111"/>
     <use x="131.005859" xlink:href="#DejaVuSans-100"/>
     <use x="194.482422" xlink:href="#DejaVuSans-89"/>
     <use x="255.394531" xlink:href="#DejaVuSans-45"/>
     <use x="291.478516" xlink:href="#DejaVuSans-49"/>
    </g>
   </g>
   <g id="text_19">
    <g id="text_20">
     <!-- AgrA -->
     <g transform="translate(323.368957 20.899489)scale(0.12 -0.12)">
      <use xlink:href="#DejaVuSans-65"/>
      <use x="68.408203" xlink:href="#DejaVuSans-103"/>
      <use x="131.884766" xlink:href="#DejaVuSans-114"/>
      <use x="172.998047" xlink:href="#DejaVuSans-65"/>
     </g>
    </g>
    <g id="text_21">
     <!-- Fur-1 -->
     <defs>
      <path d="M 9.8125 72.90625 
L 51.703125 72.90625 
L 51.703125 64.59375 
L 19.671875 64.59375 
L 19.671875 43.109375 
L 48.578125 43.109375 
L 48.578125 34.8125 
L 19.671875 34.8125 
L 19.671875 0 
L 9.8125 0 
z
" id="DejaVuSans-70"/>
     </defs>
     <g transform="translate(298.703079 79.489154)scale(0.12 -0.12)">
      <use xlink:href="#DejaVuSans-70"/>
      <use x="57.441406" xlink:href="#DejaVuSans-117"/>
      <use x="120.820312" xlink:href="#DejaVuSans-114"/>
      <use x="161.839844" xlink:href="#DejaVuSans-45"/>
      <use x="197.923828" xlink:href="#DejaVuSans-49"/>
     </g>
    </g>
    <g id="text_22">
     <!-- ArcR -->
     <g transform="translate(400.930281 35.446883)scale(0.12 -0.12)">
      <use xlink:href="#DejaVuSans-65"/>
      <use x="68.408203" xlink:href="#DejaVuSans-114"/>
      <use x="109.490234" xlink:href="#DejaVuSans-99"/>
      <use x="164.470703" xlink:href="#DejaVuSans-82"/>
     </g>
    </g>
    <g id="text_23">
     <g id="text_24">
      <!-- ArgR -->
      <g transform="translate(305.297789 227.42806)scale(0.12 -0.12)">
       <use xlink:href="#DejaVuSans-65"/>
       <use x="68.408203" xlink:href="#DejaVuSans-114"/>
       <use x="109.505859" xlink:href="#DejaVuSans-103"/>
       <use x="172.982422" xlink:href="#DejaVuSans-82"/>
      </g>
     </g>
     <g id="text_25">
      <!-- FruR -->
      <g transform="translate(412.345066 20.31276)scale(0.12 -0.12)">
       <use xlink:href="#DejaVuSans-70"/>
       <use x="57.410156" xlink:href="#DejaVuSans-114"/>
       <use x="98.523438" xlink:href="#DejaVuSans-117"/>
       <use x="161.902344" xlink:href="#DejaVuSans-82"/>
      </g>
     </g>
     <g id="legend_1">
      <g id="text_26">
       <!-- Function -->
       <defs>
        <path d="M 18.3125 70.21875 
L 18.3125 54.6875 
L 36.8125 54.6875 
L 36.8125 47.703125 
L 18.3125 47.703125 
L 18.3125 18.015625 
Q 18.3125 11.328125 20.140625 9.421875 
Q 21.96875 7.515625 27.59375 7.515625 
L 36.8125 7.515625 
L 36.8125 0 
L 27.59375 0 
Q 17.1875 0 13.234375 3.875 
Q 9.28125 7.765625 9.28125 18.015625 
L 9.28125 47.703125 
L 2.6875 47.703125 
L 2.6875 54.6875 
L 9.28125 54.6875 
L 9.28125 70.21875 
z
" id="DejaVuSans-116"/>
       </defs>
       <g transform="translate(92.543681 187.871137)scale(0.1 -0.1)">
        <use xlink:href="#DejaVuSans-70"/>
        <use x="57.441406" xlink:href="#DejaVuSans-117"/>
        <use x="120.820312" xlink:href="#DejaVuSans-110"/>
        <use x="184.199219" xlink:href="#DejaVuSans-99"/>
        <use x="239.179688" xlink:href="#DejaVuSans-116"/>
        <use x="278.388672" xlink:href="#DejaVuSans-105"/>
        <use x="306.171875" xlink:href="#DejaVuSans-111"/>
        <use x="367.353516" xlink:href="#DejaVuSans-110"/>
       </g>
      </g>
      <g id="line2d_45">
       <path d="M 34.278838 199.049262 
L 54.278838 199.049262 
" style="fill:none;"/>
      </g>
      <g id="line2d_46">
       <defs>
        <path d="M 0 3 
C 0.795609 3 1.55874 2.683901 2.12132 2.12132 
C 2.683901 1.55874 3 0.795609 3 0 
C 3 -0.795609 2.683901 -1.55874 2.12132 -2.12132 
C 1.55874 -2.683901 0.795609 -3 0 -3 
C -0.795609 -3 -1.55874 -2.683901 -2.12132 -2.12132 
C -2.683901 -1.55874 -3 -0.795609 -3 0 
C -3 0.795609 -2.683901 1.55874 -2.12132 2.12132 
C -1.55874 2.683901 -0.795609 3 0 3 
z
" id="ma9c76d45f5" style="stroke:#1b9e77;"/>
       </defs>
       <g>
        <use style="fill:#1b9e77;stroke:#1b9e77;" x="44.278838" xlink:href="#ma9c76d45f5" y="199.049262"/>
       </g>
      </g>
      <g id="text_27">
       <!-- Single gene -->
       <defs>
        <path d="M 53.515625 70.515625 
L 53.515625 60.890625 
Q 47.90625 63.578125 42.921875 64.890625 
Q 37.9375 66.21875 33.296875 66.21875 
Q 25.25 66.21875 20.875 63.09375 
Q 16.5 59.96875 16.5 54.203125 
Q 16.5 49.359375 19.40625 46.890625 
Q 22.3125 44.4375 30.421875 42.921875 
L 36.375 41.703125 
Q 47.40625 39.59375 52.65625 34.296875 
Q 57.90625 29 57.90625 20.125 
Q 57.90625 9.515625 50.796875 4.046875 
Q 43.703125 -1.421875 29.984375 -1.421875 
Q 24.8125 -1.421875 18.96875 -0.25 
Q 13.140625 0.921875 6.890625 3.21875 
L 6.890625 13.375 
Q 12.890625 10.015625 18.65625 8.296875 
Q 24.421875 6.59375 29.984375 6.59375 
Q 38.421875 6.59375 43.015625 9.90625 
Q 47.609375 13.234375 47.609375 19.390625 
Q 47.609375 24.75 44.3125 27.78125 
Q 41.015625 30.8125 33.5 32.328125 
L 27.484375 33.5 
Q 16.453125 35.6875 11.515625 40.375 
Q 6.59375 45.0625 6.59375 53.421875 
Q 6.59375 63.09375 13.40625 68.65625 
Q 20.21875 74.21875 32.171875 74.21875 
Q 37.3125 74.21875 42.625 73.28125 
Q 47.953125 72.359375 53.515625 70.515625 
z
" id="DejaVuSans-83"/>
       </defs>
       <g transform="translate(62.278838 202.549262)scale(0.1 -0.1)">
        <use xlink:href="#DejaVuSans-83"/>
        <use x="63.476562" xlink:href="#DejaVuSans-105"/>
        <use x="91.259766" xlink:href="#DejaVuSans-110"/>
        <use x="154.638672" xlink:href="#DejaVuSans-103"/>
        <use x="218.115234" xlink:href="#DejaVuSans-108"/>
        <use x="245.898438" xlink:href="#DejaVuSans-101"/>
        <use x="307.421875" xlink:href="#DejaVuSans-32"/>
        <use x="339.208984" xlink:href="#DejaVuSans-103"/>
        <use x="402.685547" xlink:href="#DejaVuSans-101"/>
        <use x="464.208984" xlink:href="#DejaVuSans-110"/>
        <use x="527.587891" xlink:href="#DejaVuSans-101"/>
       </g>
      </g>
      <g id="line2d_47">
       <path d="M 34.278838 213.727387 
L 54.278838 213.727387 
" style="fill:none;"/>
      </g>
      <g id="line2d_48">
       <defs>
        <path d="M 0 3 
C 0.795609 3 1.55874 2.683901 2.12132 2.12132 
C 2.683901 1.55874 3 0.795609 3 0 
C 3 -0.795609 2.683901 -1.55874 2.12132 -2.12132 
C 1.55874 -2.683901 0.795609 -3 0 -3 
C -0.795609 -3 -1.55874 -2.683901 -2.12132 -2.12132 
C -2.683901 -1.55874 -3 -0.795609 -3 0 
C -3 0.795609 -2.683901 1.55874 -2.12132 2.12132 
C -1.55874 2.683901 -0.795609 3 0 3 
z
" id="ma8335346bd" style="stroke:#d95f02;"/>
       </defs>
       <g>
        <use style="fill:#d95f02;stroke:#d95f02;" x="44.278838" xlink:href="#ma8335346bd" y="213.727387"/>
       </g>
      </g>
      <g id="text_28">
       <!-- Virulence -->
       <defs>
        <path d="M 28.609375 0 
L 0.78125 72.90625 
L 11.078125 72.90625 
L 34.1875 11.53125 
L 57.328125 72.90625 
L 67.578125 72.90625 
L 39.796875 0 
z
" id="DejaVuSans-86"/>
       </defs>
       <g transform="translate(62.278838 217.227387)scale(0.1 -0.1)">
        <use xlink:href="#DejaVuSans-86"/>
        <use x="68.376953" xlink:href="#DejaVuSans-105"/>
        <use x="96.160156" xlink:href="#DejaVuSans-114"/>
        <use x="137.273438" xlink:href="#DejaVuSans-117"/>
        <use x="200.652344" xlink:href="#DejaVuSans-108"/>
        <use x="228.435547" xlink:href="#DejaVuSans-101"/>
        <use x="289.958984" xlink:href="#DejaVuSans-110"/>
        <use x="353.337891" xlink:href="#DejaVuSans-99"/>
        <use x="408.318359" xlink:href="#DejaVuSans-101"/>
       </g>
      </g>
      <g id="line2d_49">
       <path d="M 34.278838 228.405512 
L 54.278838 228.405512 
" style="fill:none;"/>
      </g>
      <g id="line2d_50">
       <defs>
        <path d="M 0 3 
C 0.795609 3 1.55874 2.683901 2.12132 2.12132 
C 2.683901 1.55874 3 0.795609 3 0 
C 3 -0.795609 2.683901 -1.55874 2.12132 -2.12132 
C 1.55874 -2.683901 0.795609 -3 0 -3 
C -0.795609 -3 -1.55874 -2.683901 -2.12132 -2.12132 
C -2.683901 -1.55874 -3 -0.795609 -3 0 
C -3 0.795609 -2.683901 1.55874 -2.12132 2.12132 
C -1.55874 2.683901 -0.795609 3 0 3 
z
" id="mc5be6bacf7" style="stroke:#7570b3;"/>
       </defs>
       <g>
        <use style="fill:#7570b3;stroke:#7570b3;" x="44.278838" xlink:href="#mc5be6bacf7" y="228.405512"/>
       </g>
      </g>
      <g id="text_29">
       <!-- Cellular Processes -->
       <defs>
        <path d="M 44.28125 53.078125 
L 44.28125 44.578125 
Q 40.484375 46.53125 36.375 47.5 
Q 32.28125 48.484375 27.875 48.484375 
Q 21.1875 48.484375 17.84375 46.4375 
Q 14.5 44.390625 14.5 40.28125 
Q 14.5 37.15625 16.890625 35.375 
Q 19.28125 33.59375 26.515625 31.984375 
L 29.59375 31.296875 
Q 39.15625 29.25 43.1875 25.515625 
Q 47.21875 21.78125 47.21875 15.09375 
Q 47.21875 7.46875 41.1875 3.015625 
Q 35.15625 -1.421875 24.609375 -1.421875 
Q 20.21875 -1.421875 15.453125 -0.5625 
Q 10.6875 0.296875 5.421875 2 
L 5.421875 11.28125 
Q 10.40625 8.6875 15.234375 7.390625 
Q 20.0625 6.109375 24.8125 6.109375 
Q 31.15625 6.109375 34.5625 8.28125 
Q 37.984375 10.453125 37.984375 14.40625 
Q 37.984375 18.0625 35.515625 20.015625 
Q 33.0625 21.96875 24.703125 23.78125 
L 21.578125 24.515625 
Q 13.234375 26.265625 9.515625 29.90625 
Q 5.8125 33.546875 5.8125 39.890625 
Q 5.8125 47.609375 11.28125 51.796875 
Q 16.75 56 26.8125 56 
Q 31.78125 56 36.171875 55.265625 
Q 40.578125 54.546875 44.28125 53.078125 
z
" id="DejaVuSans-115"/>
       </defs>
       <g transform="translate(62.278838 231.905512)scale(0.1 -0.1)">
        <use xlink:href="#DejaVuSans-67"/>
        <use x="69.824219" xlink:href="#DejaVuSans-101"/>
        <use x="131.347656" xlink:href="#DejaVuSans-108"/>
        <use x="159.130859" xlink:href="#DejaVuSans-108"/>
        <use x="186.914062" xlink:href="#DejaVuSans-117"/>
        <use x="250.292969" xlink:href="#DejaVuSans-108"/>
        <use x="278.076172" xlink:href="#DejaVuSans-97"/>
        <use x="339.355469" xlink:href="#DejaVuSans-114"/>
        <use x="380.46875" xlink:href="#DejaVuSans-32"/>
        <use x="412.255859" xlink:href="#DejaVuSans-80"/>
        <use x="472.542969" xlink:href="#DejaVuSans-114"/>
        <use x="513.625" xlink:href="#DejaVuSans-111"/>
        <use x="574.806641" xlink:href="#DejaVuSans-99"/>
        <use x="629.787109" xlink:href="#DejaVuSans-101"/>
        <use x="691.310547" xlink:href="#DejaVuSans-115"/>
        <use x="743.410156" xlink:href="#DejaVuSans-115"/>
        <use x="795.509766" xlink:href="#DejaVuSans-101"/>
        <use x="857.033203" xlink:href="#DejaVuSans-115"/>
       </g>
      </g>
      <g id="line2d_51">
       <path d="M 34.278838 243.083637 
L 54.278838 243.083637 
" style="fill:none;"/>
      </g>
      <g id="line2d_52">
       <defs>
        <path d="M 0 3 
C 0.795609 3 1.55874 2.683901 2.12132 2.12132 
C 2.683901 1.55874 3 0.795609 3 0 
C 3 -0.795609 2.683901 -1.55874 2.12132 -2.12132 
C 1.55874 -2.683901 0.795609 -3 0 -3 
C -0.795609 -3 -1.55874 -2.683901 -2.12132 -2.12132 
C -2.683901 -1.55874 -3 -0.795609 -3 0 
C -3 0.795609 -2.683901 1.55874 -2.12132 2.12132 
C -1.55874 2.683901 -0.795609 3 0 3 
z
" id="m8b1f277f97" style="stroke:#e6ab02;"/>
       </defs>
       <g>
        <use style="fill:#e6ab02;stroke:#e6ab02;" x="44.278838" xlink:href="#m8b1f277f97" y="243.083637"/>
       </g>
      </g>
      <g id="text_30">
       <!-- Misc. Metabolism -->
       <defs>
        <path d="M 48.6875 27.296875 
Q 48.6875 37.203125 44.609375 42.84375 
Q 40.53125 48.484375 33.40625 48.484375 
Q 26.265625 48.484375 22.1875 42.84375 
Q 18.109375 37.203125 18.109375 27.296875 
Q 18.109375 17.390625 22.1875 11.75 
Q 26.265625 6.109375 33.40625 6.109375 
Q 40.53125 6.109375 44.609375 11.75 
Q 48.6875 17.390625 48.6875 27.296875 
z
M 18.109375 46.390625 
Q 20.953125 51.265625 25.265625 53.625 
Q 29.59375 56 35.59375 56 
Q 45.5625 56 51.78125 48.09375 
Q 58.015625 40.1875 58.015625 27.296875 
Q 58.015625 14.40625 51.78125 6.484375 
Q 45.5625 -1.421875 35.59375 -1.421875 
Q 29.59375 -1.421875 25.265625 0.953125 
Q 20.953125 3.328125 18.109375 8.203125 
L 18.109375 0 
L 9.078125 0 
L 9.078125 75.984375 
L 18.109375 75.984375 
z
" id="DejaVuSans-98"/>
        <path d="M 52 44.1875 
Q 55.375 50.25 60.0625 53.125 
Q 64.75 56 71.09375 56 
Q 79.640625 56 84.28125 50.015625 
Q 88.921875 44.046875 88.921875 33.015625 
L 88.921875 0 
L 79.890625 0 
L 79.890625 32.71875 
Q 79.890625 40.578125 77.09375 44.375 
Q 74.3125 48.1875 68.609375 48.1875 
Q 61.625 48.1875 57.5625 43.546875 
Q 53.515625 38.921875 53.515625 30.90625 
L 53.515625 0 
L 44.484375 0 
L 44.484375 32.71875 
Q 44.484375 40.625 41.703125 44.40625 
Q 38.921875 48.1875 33.109375 48.1875 
Q 26.21875 48.1875 22.15625 43.53125 
Q 18.109375 38.875 18.109375 30.90625 
L 18.109375 0 
L 9.078125 0 
L 9.078125 54.6875 
L 18.109375 54.6875 
L 18.109375 46.1875 
Q 21.1875 51.21875 25.484375 53.609375 
Q 29.78125 56 35.6875 56 
Q 41.65625 56 45.828125 52.96875 
Q 50 49.953125 52 44.1875 
z
" id="DejaVuSans-109"/>
       </defs>
       <g transform="translate(62.278838 246.583637)scale(0.1 -0.1)">
        <use xlink:href="#DejaVuSans-77"/>
        <use x="86.279297" xlink:href="#DejaVuSans-105"/>
        <use x="114.0625" xlink:href="#DejaVuSans-115"/>
        <use x="166.162109" xlink:href="#DejaVuSans-99"/>
        <use x="221.142578" xlink:href="#DejaVuSans-46"/>
        <use x="252.929688" xlink:href="#DejaVuSans-32"/>
        <use x="284.716797" xlink:href="#DejaVuSans-77"/>
        <use x="370.996094" xlink:href="#DejaVuSans-101"/>
        <use x="432.519531" xlink:href="#DejaVuSans-116"/>
        <use x="471.728516" xlink:href="#DejaVuSans-97"/>
        <use x="533.007812" xlink:href="#DejaVuSans-98"/>
        <use x="596.484375" xlink:href="#DejaVuSans-111"/>
        <use x="657.666016" xlink:href="#DejaVuSans-108"/>
        <use x="685.449219" xlink:href="#DejaVuSans-105"/>
        <use x="713.232422" xlink:href="#DejaVuSans-115"/>
        <use x="765.332031" xlink:href="#DejaVuSans-109"/>
       </g>
      </g>
      <g id="line2d_53">
       <path d="M 34.278838 257.761762 
L 54.278838 257.761762 
" style="fill:none;"/>
      </g>
      <g id="line2d_54">
       <defs>
        <path d="M 0 3 
C 0.795609 3 1.55874 2.683901 2.12132 2.12132 
C 2.683901 1.55874 3 0.795609 3 0 
C 3 -0.795609 2.683901 -1.55874 2.12132 -2.12132 
C 1.55874 -2.683901 0.795609 -3 0 -3 
C -0.795609 -3 -1.55874 -2.683901 -2.12132 -2.12132 
C -2.683901 -1.55874 -3 -0.795609 -3 0 
C -3 0.795609 -2.683901 1.55874 -2.12132 2.12132 
C -1.55874 2.683901 -0.795609 3 0 3 
z
" id="m20ac79f1e3" style="stroke:#a6761d;"/>
       </defs>
       <g>
        <use style="fill:#a6761d;stroke:#a6761d;" x="44.278838" xlink:href="#m20ac79f1e3" y="257.761762"/>
       </g>
      </g>
      <g id="text_31">
       <!-- AA/Nucleotide Metabolism -->
       <defs>
        <path d="M 25.390625 72.90625 
L 33.6875 72.90625 
L 8.296875 -9.28125 
L 0 -9.28125 
z
" id="DejaVuSans-47"/>
        <path d="M 9.8125 72.90625 
L 23.09375 72.90625 
L 55.421875 11.921875 
L 55.421875 72.90625 
L 64.984375 72.90625 
L 64.984375 0 
L 51.703125 0 
L 19.390625 60.984375 
L 19.390625 0 
L 9.8125 0 
z
" id="DejaVuSans-78"/>
       </defs>
       <g transform="translate(62.278838 261.261762)scale(0.1 -0.1)">
        <use xlink:href="#DejaVuSans-65"/>
        <use x="68.439453" xlink:href="#DejaVuSans-65"/>
        <use x="136.847656" xlink:href="#DejaVuSans-47"/>
        <use x="170.539062" xlink:href="#DejaVuSans-78"/>
        <use x="245.34375" xlink:href="#DejaVuSans-117"/>
        <use x="308.722656" xlink:href="#DejaVuSans-99"/>
        <use x="363.703125" xlink:href="#DejaVuSans-108"/>
        <use x="391.486328" xlink:href="#DejaVuSans-101"/>
        <use x="453.009766" xlink:href="#DejaVuSans-111"/>
        <use x="514.191406" xlink:href="#DejaVuSans-116"/>
        <use x="553.400391" xlink:href="#DejaVuSans-105"/>
        <use x="581.183594" xlink:href="#DejaVuSans-100"/>
        <use x="644.660156" xlink:href="#DejaVuSans-101"/>
        <use x="706.183594" xlink:href="#DejaVuSans-32"/>
        <use x="737.970703" xlink:href="#DejaVuSans-77"/>
        <use x="824.25" xlink:href="#DejaVuSans-101"/>
        <use x="885.773438" xlink:href="#DejaVuSans-116"/>
        <use x="924.982422" xlink:href="#DejaVuSans-97"/>
        <use x="986.261719" xlink:href="#DejaVuSans-98"/>
        <use x="1049.738281" xlink:href="#DejaVuSans-111"/>
        <use x="1110.919922" xlink:href="#DejaVuSans-108"/>
        <use x="1138.703125" xlink:href="#DejaVuSans-105"/>
        <use x="1166.486328" xlink:href="#DejaVuSans-115"/>
        <use x="1218.585938" xlink:href="#DejaVuSans-109"/>
       </g>
      </g>
      <g id="line2d_55">
       <path d="M 34.278838 272.439887 
L 54.278838 272.439887 
" style="fill:none;"/>
      </g>
      <g id="line2d_56">
       <defs>
        <path d="M 0 3 
C 0.795609 3 1.55874 2.683901 2.12132 2.12132 
C 2.683901 1.55874 3 0.795609 3 0 
C 3 -0.795609 2.683901 -1.55874 2.12132 -2.12132 
C 1.55874 -2.683901 0.795609 -3 0 -3 
C -0.795609 -3 -1.55874 -2.683901 -2.12132 -2.12132 
C -2.683901 -1.55874 -3 -0.795609 -3 0 
C -3 0.795609 -2.683901 1.55874 -2.12132 2.12132 
C -1.55874 2.683901 -0.795609 3 0 3 
z
" id="m9d893167be" style="stroke:#666666;"/>
       </defs>
       <g>
        <use style="fill:#666666;stroke:#666666;" x="44.278838" xlink:href="#m9d893167be" y="272.439887"/>
       </g>
      </g>
      <g id="text_32">
       <!-- Other -->
       <defs>
        <path d="M 39.40625 66.21875 
Q 28.65625 66.21875 22.328125 58.203125 
Q 16.015625 50.203125 16.015625 36.375 
Q 16.015625 22.609375 22.328125 14.59375 
Q 28.65625 6.59375 39.40625 6.59375 
Q 50.140625 6.59375 56.421875 14.59375 
Q 62.703125 22.609375 62.703125 36.375 
Q 62.703125 50.203125 56.421875 58.203125 
Q 50.140625 66.21875 39.40625 66.21875 
z
M 39.40625 74.21875 
Q 54.734375 74.21875 63.90625 63.9375 
Q 73.09375 53.65625 73.09375 36.375 
Q 73.09375 19.140625 63.90625 8.859375 
Q 54.734375 -1.421875 39.40625 -1.421875 
Q 24.03125 -1.421875 14.8125 8.828125 
Q 5.609375 19.09375 5.609375 36.375 
Q 5.609375 53.65625 14.8125 63.9375 
Q 24.03125 74.21875 39.40625 74.21875 
z
" id="DejaVuSans-79"/>
        <path d="M 54.890625 33.015625 
L 54.890625 0 
L 45.90625 0 
L 45.90625 32.71875 
Q 45.90625 40.484375 42.875 44.328125 
Q 39.84375 48.1875 33.796875 48.1875 
Q 26.515625 48.1875 22.3125 43.546875 
Q 18.109375 38.921875 18.109375 30.90625 
L 18.109375 0 
L 9.078125 0 
L 9.078125 75.984375 
L 18.109375 75.984375 
L 18.109375 46.1875 
Q 21.34375 51.125 25.703125 53.5625 
Q 30.078125 56 35.796875 56 
Q 45.21875 56 50.046875 50.171875 
Q 54.890625 44.34375 54.890625 33.015625 
z
" id="DejaVuSans-104"/>
       </defs>
       <g transform="translate(62.278838 275.939887)scale(0.1 -0.1)">
        <use xlink:href="#DejaVuSans-79"/>
        <use x="78.710938" xlink:href="#DejaVuSans-116"/>
        <use x="117.919922" xlink:href="#DejaVuSans-104"/>
        <use x="181.298828" xlink:href="#DejaVuSans-101"/>
        <use x="242.822266" xlink:href="#DejaVuSans-114"/>
       </g>
      </g>
      <g id="line2d_57">
       <path d="M 34.278838 287.118012 
L 54.278838 287.118012 
" style="fill:none;"/>
      </g>
      <g id="line2d_58">
       <defs>
        <path d="M 0 3 
C 0.795609 3 1.55874 2.683901 2.12132 2.12132 
C 2.683901 1.55874 3 0.795609 3 0 
C 3 -0.795609 2.683901 -1.55874 2.12132 -2.12132 
C 1.55874 -2.683901 0.795609 -3 0 -3 
C -0.795609 -3 -1.55874 -2.683901 -2.12132 -2.12132 
C -2.683901 -1.55874 -3 -0.795609 -3 0 
C -3 0.795609 -2.683901 1.55874 -2.12132 2.12132 
C -1.55874 2.683901 -0.795609 3 0 3 
z
" id="m01f490170f" style="stroke:#1a2441;"/>
       </defs>
       <g>
        <use style="fill:#1a2441;stroke:#1a2441;" x="44.278838" xlink:href="#m01f490170f" y="287.118012"/>
       </g>
      </g>
      <g id="text_33">
       <!-- Carbon Metabolism -->
       <g transform="translate(62.278838 290.618012)scale(0.1 -0.1)">
        <use xlink:href="#DejaVuSans-67"/>
        <use x="69.824219" xlink:href="#DejaVuSans-97"/>
        <use x="131.103516" xlink:href="#DejaVuSans-114"/>
        <use x="172.216797" xlink:href="#DejaVuSans-98"/>
        <use x="235.693359" xlink:href="#DejaVuSans-111"/>
        <use x="296.875" xlink:href="#DejaVuSans-110"/>
        <use x="360.253906" xlink:href="#DejaVuSans-32"/>
        <use x="392.041016" xlink:href="#DejaVuSans-77"/>
        <use x="478.320312" xlink:href="#DejaVuSans-101"/>
        <use x="539.84375" xlink:href="#DejaVuSans-116"/>
        <use x="579.052734" xlink:href="#DejaVuSans-97"/>
        <use x="640.332031" xlink:href="#DejaVuSans-98"/>
        <use x="703.808594" xlink:href="#DejaVuSans-111"/>
        <use x="764.990234" xlink:href="#DejaVuSans-108"/>
        <use x="792.773438" xlink:href="#DejaVuSans-105"/>
        <use x="820.556641" xlink:href="#DejaVuSans-115"/>
        <use x="872.65625" xlink:href="#DejaVuSans-109"/>
       </g>
      </g>
      <g id="line2d_59">
       <path d="M 34.278838 301.796137 
L 54.278838 301.796137 
" style="fill:none;"/>
      </g>
      <g id="line2d_60">
       <defs>
        <path d="M 0 3 
C 0.795609 3 1.55874 2.683901 2.12132 2.12132 
C 2.683901 1.55874 3 0.795609 3 0 
C 3 -0.795609 2.683901 -1.55874 2.12132 -2.12132 
C 1.55874 -2.683901 0.795609 -3 0 -3 
C -0.795609 -3 -1.55874 -2.683901 -2.12132 -2.12132 
C -2.683901 -1.55874 -3 -0.795609 -3 0 
C -3 0.795609 -2.683901 1.55874 -2.12132 2.12132 
C -1.55874 2.683901 -0.795609 3 0 3 
z
" id="me8fb8d35fb" style="stroke:#1b6145;"/>
       </defs>
       <g>
        <use style="fill:#1b6145;stroke:#1b6145;" x="44.278838" xlink:href="#me8fb8d35fb" y="301.796137"/>
       </g>
      </g>
      <g id="text_34">
       <!-- Prophages -->
       <g transform="translate(62.278838 305.296137)scale(0.1 -0.1)">
        <use xlink:href="#DejaVuSans-80"/>
        <use x="60.287109" xlink:href="#DejaVuSans-114"/>
        <use x="101.369141" xlink:href="#DejaVuSans-111"/>
        <use x="162.550781" xlink:href="#DejaVuSans-112"/>
        <use x="226.027344" xlink:href="#DejaVuSans-104"/>
        <use x="289.40625" xlink:href="#DejaVuSans-97"/>
        <use x="350.685547" xlink:href="#DejaVuSans-103"/>
        <use x="414.162109" xlink:href="#DejaVuSans-101"/>
        <use x="475.685547" xlink:href="#DejaVuSans-115"/>
       </g>
      </g>
      <g id="line2d_61">
       <path d="M 34.278838 316.474262 
L 54.278838 316.474262 
" style="fill:none;"/>
      </g>
      <g id="line2d_62">
       <defs>
        <path d="M 0 3 
C 0.795609 3 1.55874 2.683901 2.12132 2.12132 
C 2.683901 1.55874 3 0.795609 3 0 
C 3 -0.795609 2.683901 -1.55874 2.12132 -2.12132 
C 1.55874 -2.683901 0.795609 -3 0 -3 
C -0.795609 -3 -1.55874 -2.683901 -2.12132 -2.12132 
C -2.683901 -1.55874 -3 -0.795609 -3 0 
C -3 0.795609 -2.683901 1.55874 -2.12132 2.12132 
C -1.55874 2.683901 -0.795609 3 0 3 
z
" id="m86d0e09ed5" style="stroke:#697b30;"/>
       </defs>
       <g>
        <use style="fill:#697b30;stroke:#697b30;" x="44.278838" xlink:href="#m86d0e09ed5" y="316.474262"/>
       </g>
      </g>
      <g id="text_35">
       <!-- Uncharacterized -->
       <defs>
        <path d="M 8.6875 72.90625 
L 18.609375 72.90625 
L 18.609375 28.609375 
Q 18.609375 16.890625 22.84375 11.734375 
Q 27.09375 6.59375 36.625 6.59375 
Q 46.09375 6.59375 50.34375 11.734375 
Q 54.59375 16.890625 54.59375 28.609375 
L 54.59375 72.90625 
L 64.5 72.90625 
L 64.5 27.390625 
Q 64.5 13.140625 57.4375 5.859375 
Q 50.390625 -1.421875 36.625 -1.421875 
Q 22.796875 -1.421875 15.734375 5.859375 
Q 8.6875 13.140625 8.6875 27.390625 
z
" id="DejaVuSans-85"/>
        <path d="M 5.515625 54.6875 
L 48.1875 54.6875 
L 48.1875 46.484375 
L 14.40625 7.171875 
L 48.1875 7.171875 
L 48.1875 0 
L 4.296875 0 
L 4.296875 8.203125 
L 38.09375 47.515625 
L 5.515625 47.515625 
z
" id="DejaVuSans-122"/>
       </defs>
       <g transform="translate(62.278838 319.974262)scale(0.1 -0.1)">
        <use xlink:href="#DejaVuSans-85"/>
        <use x="73.193359" xlink:href="#DejaVuSans-110"/>
        <use x="136.572266" xlink:href="#DejaVuSans-99"/>
        <use x="191.552734" xlink:href="#DejaVuSans-104"/>
        <use x="254.931641" xlink:href="#DejaVuSans-97"/>
        <use x="316.210938" xlink:href="#DejaVuSans-114"/>
        <use x="357.324219" xlink:href="#DejaVuSans-97"/>
        <use x="418.603516" xlink:href="#DejaVuSans-99"/>
        <use x="473.583984" xlink:href="#DejaVuSans-116"/>
        <use x="512.792969" xlink:href="#DejaVuSans-101"/>
        <use x="574.316406" xlink:href="#DejaVuSans-114"/>
        <use x="615.429688" xlink:href="#DejaVuSans-105"/>
        <use x="643.212891" xlink:href="#DejaVuSans-122"/>
        <use x="695.703125" xlink:href="#DejaVuSans-101"/>
        <use x="757.226562" xlink:href="#DejaVuSans-100"/>
       </g>
      </g>
      <g id="line2d_63">
       <path d="M 34.278838 331.152387 
L 54.278838 331.152387 
" style="fill:none;"/>
      </g>
      <g id="line2d_64">
       <defs>
        <path d="M 0 3 
C 0.795609 3 1.55874 2.683901 2.12132 2.12132 
C 2.683901 1.55874 3 0.795609 3 0 
C 3 -0.795609 2.683901 -1.55874 2.12132 -2.12132 
C 1.55874 -2.683901 0.795609 -3 0 -3 
C -0.795609 -3 -1.55874 -2.683901 -2.12132 -2.12132 
C -2.683901 -1.55874 -3 -0.795609 -3 0 
C -3 0.795609 -2.683901 1.55874 -2.12132 2.12132 
C -1.55874 2.683901 -0.795609 3 0 3 
z
" id="mcc087f5d25" style="stroke:#c87b7c;"/>
       </defs>
       <g>
        <use style="fill:#c87b7c;stroke:#c87b7c;" x="44.278838" xlink:href="#mcc087f5d25" y="331.152387"/>
       </g>
      </g>
      <g id="text_36">
       <!-- Stress Response -->
       <g transform="translate(62.278838 334.652387)scale(0.1 -0.1)">
        <use xlink:href="#DejaVuSans-83"/>
        <use x="63.476562" xlink:href="#DejaVuSans-116"/>
        <use x="102.685547" xlink:href="#DejaVuSans-114"/>
        <use x="143.767578" xlink:href="#DejaVuSans-101"/>
        <use x="205.291016" xlink:href="#DejaVuSans-115"/>
        <use x="257.390625" xlink:href="#DejaVuSans-115"/>
        <use x="309.490234" xlink:href="#DejaVuSans-32"/>
        <use x="341.277344" xlink:href="#DejaVuSans-82"/>
        <use x="410.697266" xlink:href="#DejaVuSans-101"/>
        <use x="472.220703" xlink:href="#DejaVuSans-115"/>
        <use x="524.320312" xlink:href="#DejaVuSans-112"/>
        <use x="587.796875" xlink:href="#DejaVuSans-111"/>
        <use x="648.978516" xlink:href="#DejaVuSans-110"/>
        <use x="712.357422" xlink:href="#DejaVuSans-115"/>
        <use x="764.457031" xlink:href="#DejaVuSans-101"/>
       </g>
      </g>
     </g>
     <g id="legend_2">
      <g id="text_37">
       <!-- Size -->
       <g transform="translate(171.499938 65.340937)scale(0.1 -0.1)">
        <use xlink:href="#DejaVuSans-83"/>
        <use x="63.476562" xlink:href="#DejaVuSans-105"/>
        <use x="91.259766" xlink:href="#DejaVuSans-122"/>
        <use x="143.75" xlink:href="#DejaVuSans-101"/>
       </g>
      </g>
      <g id="line2d_65">
       <path d="M 153.5115 75.93875 
L 177.5115 75.93875 
" style="fill:none;"/>
      </g>
      <g id="line2d_66">
       <defs>
        <path d="M 0 3.978877 
C 1.05521 3.978877 2.067344 3.559637 2.813491 2.813491 
C 3.559637 2.067344 3.978877 1.05521 3.978877 0 
C 3.978877 -1.05521 3.559637 -2.067344 2.813491 -2.813491 
C 2.067344 -3.559637 1.05521 -3.978877 0 -3.978877 
C -1.05521 -3.978877 -2.067344 -3.559637 -2.813491 -2.813491 
C -3.559637 -2.067344 -3.978877 -1.05521 -3.978877 0 
C -3.978877 1.05521 -3.559637 2.067344 -2.813491 2.813491 
C -2.067344 3.559637 -1.05521 3.978877 0 3.978877 
z
" id="mb63f00b2bc" style="stroke:#808080;"/>
       </defs>
       <g>
        <use style="fill:#ffffff;stroke:#808080;" x="165.5115" xlink:href="#mb63f00b2bc" y="75.93875"/>
       </g>
      </g>
      <g id="text_38">
       <!-- 25 -->
       <defs>
        <path d="M 10.796875 72.90625 
L 49.515625 72.90625 
L 49.515625 64.59375 
L 19.828125 64.59375 
L 19.828125 46.734375 
Q 21.96875 47.46875 24.109375 47.828125 
Q 26.265625 48.1875 28.421875 48.1875 
Q 40.625 48.1875 47.75 41.5 
Q 54.890625 34.8125 54.890625 23.390625 
Q 54.890625 11.625 47.5625 5.09375 
Q 40.234375 -1.421875 26.90625 -1.421875 
Q 22.3125 -1.421875 17.546875 -0.640625 
Q 12.796875 0.140625 7.71875 1.703125 
L 7.71875 11.625 
Q 12.109375 9.234375 16.796875 8.0625 
Q 21.484375 6.890625 26.703125 6.890625 
Q 35.15625 6.890625 40.078125 11.328125 
Q 45.015625 15.765625 45.015625 23.390625 
Q 45.015625 31 40.078125 35.4375 
Q 35.15625 39.890625 26.703125 39.890625 
Q 22.75 39.890625 18.8125 39.015625 
Q 14.890625 38.140625 10.796875 36.28125 
z
" id="DejaVuSans-53"/>
       </defs>
       <g transform="translate(187.1115 80.13875)scale(0.12 -0.12)">
        <use xlink:href="#DejaVuSans-50"/>
        <use x="63.623047" xlink:href="#DejaVuSans-53"/>
       </g>
      </g>
      <g id="line2d_67">
       <path d="M 153.5115 91.1525 
L 177.5115 91.1525 
" style="fill:none;"/>
      </g>
      <g id="line2d_68">
       <defs>
        <path d="M 0 7.957754 
C 2.110421 7.957754 4.134689 7.119275 5.626982 5.626982 
C 7.119275 4.134689 7.957754 2.110421 7.957754 0 
C 7.957754 -2.110421 7.119275 -4.134689 5.626982 -5.626982 
C 4.134689 -7.119275 2.110421 -7.957754 0 -7.957754 
C -2.110421 -7.957754 -4.134689 -7.119275 -5.626982 -5.626982 
C -7.119275 -4.134689 -7.957754 -2.110421 -7.957754 0 
C -7.957754 2.110421 -7.119275 4.134689 -5.626982 5.626982 
C -4.134689 7.119275 -2.110421 7.957754 0 7.957754 
z
" id="m4260c432c5" style="stroke:#808080;"/>
       </defs>
       <g>
        <use style="fill:#ffffff;stroke:#808080;" x="165.5115" xlink:href="#m4260c432c5" y="91.1525"/>
       </g>
      </g>
      <g id="text_39">
       <!-- 50 -->
       <g transform="translate(187.1115 95.3525)scale(0.12 -0.12)">
        <use xlink:href="#DejaVuSans-53"/>
        <use x="63.623047" xlink:href="#DejaVuSans-48"/>
       </g>
      </g>
      <g id="line2d_69">
       <path d="M 153.5115 106.36625 
L 177.5115 106.36625 
" style="fill:none;"/>
      </g>
      <g id="line2d_70">
       <defs>
        <path d="M 0 11.936631 
C 3.165631 11.936631 6.202033 10.678912 8.440473 8.440473 
C 10.678912 6.202033 11.936631 3.165631 11.936631 0 
C 11.936631 -3.165631 10.678912 -6.202033 8.440473 -8.440473 
C 6.202033 -10.678912 3.165631 -11.936631 0 -11.936631 
C -3.165631 -11.936631 -6.202033 -10.678912 -8.440473 -8.440473 
C -10.678912 -6.202033 -11.936631 -3.165631 -11.936631 0 
C -11.936631 3.165631 -10.678912 6.202033 -8.440473 8.440473 
C -6.202033 10.678912 -3.165631 11.936631 0 11.936631 
z
" id="m3ea51ec350" style="stroke:#808080;"/>
       </defs>
       <g>
        <use style="fill:#ffffff;stroke:#808080;" x="165.5115" xlink:href="#m3ea51ec350" y="106.36625"/>
       </g>
      </g>
      <g id="text_40">
       <!-- 75 -->
       <defs>
        <path d="M 8.203125 72.90625 
L 55.078125 72.90625 
L 55.078125 68.703125 
L 28.609375 0 
L 18.3125 0 
L 43.21875 64.59375 
L 8.203125 64.59375 
z
" id="DejaVuSans-55"/>
       </defs>
       <g transform="translate(187.1115 110.56625)scale(0.12 -0.12)">
        <use xlink:href="#DejaVuSans-55"/>
        <use x="63.623047" xlink:href="#DejaVuSans-53"/>
       </g>
      </g>
      <g id="line2d_71">
       <path d="M 153.5115 121.58 
L 177.5115 121.58 
" style="fill:none;"/>
      </g>
      <g id="line2d_72">
       <defs>
        <path d="M 0 15.915508 
C 4.220842 15.915508 8.269377 14.238549 11.253963 11.253963 
C 14.238549 8.269377 15.915508 4.220842 15.915508 0 
C 15.915508 -4.220842 14.238549 -8.269377 11.253963 -11.253963 
C 8.269377 -14.238549 4.220842 -15.915508 0 -15.915508 
C -4.220842 -15.915508 -8.269377 -14.238549 -11.253963 -11.253963 
C -14.238549 -8.269377 -15.915508 -4.220842 -15.915508 0 
C -15.915508 4.220842 -14.238549 8.269377 -11.253963 11.253963 
C -8.269377 14.238549 -4.220842 15.915508 0 15.915508 
z
" id="m6f698d2cbd" style="stroke:#808080;"/>
       </defs>
       <g>
        <use style="fill:#ffffff;stroke:#808080;" x="165.5115" xlink:href="#m6f698d2cbd" y="121.58"/>
       </g>
      </g>
      <g id="text_41">
       <!-- 100 -->
       <g transform="translate(187.1115 125.78)scale(0.12 -0.12)">
        <use xlink:href="#DejaVuSans-49"/>
        <use x="63.623047" xlink:href="#DejaVuSans-48"/>
        <use x="127.246094" xlink:href="#DejaVuSans-48"/>
       </g>
      </g>
     </g>
    </g>
   </g>
   <defs>
    <clipPath id="pbaa7e68cb2">
     <rect height="289.14" width="398.58" x="51.42" y="10.8"/>
    </clipPath>
   </defs>
  </g>
 </g>
</svg>
