<?xml version="1.0" encoding="utf-8" standalone="no"?>
<!DOCTYPE svg PUBLIC "-//W3C//DTD SVG 1.1//EN"
  "http://www.w3.org/Graphics/SVG/1.1/DTD/svg11.dtd">
<!-- Created with matplotlib (https://matplotlib.org/) -->
<svg height="288pt" version="1.1" viewBox="0 0 432 288" width="432pt" xmlns="http://www.w3.org/2000/svg" xmlns:xlink="http://www.w3.org/1999/xlink">
 <defs>
  <style type="text/css">
*{stroke-linecap:butt;stroke-linejoin:round;}
  </style>
 </defs>
 <g id="figure_1">
  <g id="patch_1">
   <path d="M 0 288 
L 432 288 
L 432 0 
L 0 0 
z
" style="fill:#ffffff;"/>
  </g>
  <g id="axes_1">
   <g id="patch_2">
    <path d="M 54 230.4 
L 388.8 230.4 
L 388.8 34.56 
L 54 34.56 
z
" style="fill:#ffffff;"/>
   </g>
   <g id="PolyCollection_1">
    <defs>
     <path d="M 69.218182 -66.501818 
L 69.218182 -68.193066 
L 69.218183 -69.103738 
L 142.558402 -69.298882 
L 153.126208 -69.36393 
L 153.126313 -69.494026 
L 153.128378 -70.01441 
L 153.128477 -70.469746 
L 153.128531 -70.66489 
L 153.128636 -70.729938 
L 153.128742 -71.120226 
L 153.128847 -71.250322 
L 153.133069 -71.31537 
L 153.133808 -71.380418 
L 153.133862 -71.445466 
L 153.159446 -71.64061 
L 153.697173 -72.030898 
L 156.474862 -72.29109 
L 156.855647 -72.876522 
L 162.793954 -74.958058 
L 165.541226 -75.413394 
L 165.541227 -75.738634 
L 168.419385 -75.933778 
L 170.013915 -76.714353 
L 172.298922 -76.909497 
L 174.884092 -77.364833 
L 179.292449 -77.755121 
L 183.546981 -78.405601 
L 185.56617 -79.316273 
L 185.566171 -80.357041 
L 185.566172 -81.332761 
L 185.566172 -81.527905 
L 185.977728 -83.089057 
L 189.15571 -83.154105 
L 189.155744 -83.219153 
L 189.162052 -83.284201 
L 189.168995 -83.349249 
L 189.169 -83.414297 
L 189.169003 -83.479345 
L 189.171897 -83.544393 
L 189.175217 -83.609441 
L 189.17808 -83.674489 
L 189.181721 -83.739537 
L 189.187895 -83.804585 
L 189.187962 -83.869633 
L 189.187964 -83.934681 
L 189.188 -83.999729 
L 189.188009 -84.064777 
L 189.188053 -84.129825 
L 189.188098 -84.194873 
L 189.194339 -84.259921 
L 189.194443 -84.324969 
L 189.194499 -84.390017 
L 189.194593 -84.455065 
L 189.197396 -84.520113 
L 189.199022 -84.585161 
L 189.200616 -84.650209 
L 189.200884 -84.715257 
L 189.202456 -84.780305 
L 189.203987 -84.845353 
L 189.203989 -84.910401 
L 189.203999 -84.975449 
L 189.204 -85.040497 
L 189.204044 -85.105545 
L 189.210491 -85.170593 
L 189.210528 -85.235641 
L 189.210529 -85.300689 
L 189.21055 -85.365737 
L 189.210551 -85.430785 
L 189.21059 -85.495833 
L 189.210639 -85.560881 
L 189.210753 -85.625929 
L 189.210853 -85.690977 
L 189.21243 -85.756025 
L 189.216707 -85.821073 
L 189.216719 -85.886121 
L 189.220029 -85.951169 
L 189.220135 -86.016217 
L 189.220363 -86.081265 
L 189.220403 -86.146313 
L 189.220609 -86.211361 
L 189.22368 -86.276409 
L 189.223683 -86.341457 
L 189.223742 -86.406505 
L 189.229636 -86.471553 
L 189.23296 -86.536601 
L 189.233068 -86.601649 
L 189.237975 -86.666697 
L 189.238096 -86.731745 
L 189.23829 -86.796793 
L 189.23835 -86.861841 
L 189.855449 -86.991937 
L 189.855452 -87.056985 
L 189.855453 -88.748233 
L 189.855456 -89.593857 
L 189.855922 -89.723953 
L 192.973715 -90.76472 
L 195.249713 -91.024912 
L 199.635357 -91.08996 
L 199.635374 -91.155008 
L 199.635389 -91.220056 
L 202.455268 -91.480248 
L 202.62063 -91.74044 
L 203.229674 -92.000632 
L 203.30463 -92.521016 
L 203.906093 -92.911304 
L 207.01964 -93.171496 
L 208.498721 -93.236544 
L 208.93148 -93.756928 
L 210.98067 -93.821976 
L 211.66534 -94.082168 
L 211.665341 -94.862744 
L 211.842946 -95.64332 
L 212.727883 -95.773416 
L 212.983022 -95.903512 
L 213.416262 -96.2938 
L 215.947221 -96.358848 
L 216.454161 -97.26952 
L 218.396462 -97.659808 
L 218.47718 -97.724856 
L 218.477186 -97.789904 
L 220.011062 -98.050096 
L 221.983818 -98.115144 
L 221.983852 -98.180192 
L 221.983875 -98.24524 
L 221.984129 -98.310288 
L 221.984316 -98.375336 
L 222.154414 -98.765624 
L 224.207356 -98.89572 
L 225.575476 -102.018024 
L 226.411707 -102.14812 
L 226.411709 -102.278216 
L 231.710392 -102.668504 
L 231.960139 -102.7986 
L 235.114654 -102.993744 
L 235.383263 -103.384032 
L 235.685543 -103.77432 
L 236.216368 -104.164608 
L 237.859082 -104.229656 
L 237.860612 -104.294704 
L 237.864826 -104.359752 
L 238.186537 -104.4248 
L 238.187487 -104.489848 
L 238.187804 -104.554896 
L 238.191974 -104.619944 
L 241.839757 -104.880136 
L 242.449574 -105.270423 
L 242.981409 -106.441287 
L 244.099853 -107.091767 
L 244.593448 -107.286911 
L 248.050896 -107.547103 
L 248.050896 -108.067487 
L 249.593631 -108.457775 
L 250.046943 -108.848063 
L 254.229946 -109.238351 
L 254.230054 -109.628639 
L 254.231323 -109.888831 
L 254.231848 -110.149023 
L 255.137367 -110.409215 
L 256.785602 -110.799503 
L 256.827495 -112.165511 
L 257.302984 -112.295607 
L 257.750183 -112.881039 
L 257.750184 -113.271327 
L 257.750186 -113.531519 
L 257.855018 -114.051903 
L 258.966126 -114.116951 
L 258.966127 -114.572287 
L 260.085829 -115.352863 
L 260.434627 -115.873247 
L 260.434628 -116.393631 
L 260.857437 -116.523727 
L 261.069454 -117.109159 
L 262.285242 -117.304303 
L 262.285243 -118.149927 
L 262.285244 -118.214975 
L 262.447422 -118.345071 
L 262.447475 -118.540215 
L 262.447527 -118.865455 
L 262.44758 -118.930503 
L 262.447633 -118.995551 
L 262.82175 -119.060599 
L 263.644977 -119.125647 
L 263.717775 -119.190695 
L 263.85795 -119.255743 
L 264.744995 -119.64603 
L 266.872682 -119.97127 
L 266.872683 -120.751846 
L 267.176215 -121.467374 
L 267.537656 -122.508142 
L 267.537657 -123.418814 
L 267.603689 -123.54891 
L 267.603806 -124.589678 
L 267.603843 -124.84987 
L 267.603971 -124.914918 
L 268.44111 -124.979966 
L 268.441431 -125.17511 
L 268.590429 -125.240158 
L 268.590487 -125.630446 
L 268.590488 -125.695494 
L 268.595339 -126.15083 
L 268.595444 -126.736262 
L 268.595867 -126.80131 
L 270.473926 -127.061502 
L 270.473927 -127.711982 
L 270.797596 -127.842078 
L 271.71113 -128.232366 
L 272.597507 -129.208086 
L 272.597508 -129.533326 
L 273.184357 -129.598374 
L 273.185148 -129.663422 
L 273.81646 -130.05371 
L 275.359589 -130.443998 
L 276.097991 -130.509046 
L 278.100151 -130.769238 
L 278.100152 -131.159526 
L 278.100152 -131.875054 
L 278.100153 -132.00515 
L 280.224494 -132.395438 
L 281.094904 -132.590582 
L 281.209279 -133.176014 
L 281.20928 -133.63135 
L 281.813758 -134.151733 
L 281.814442 -134.216781 
L 281.814823 -134.281829 
L 281.816866 -134.346877 
L 281.817226 -134.411925 
L 281.817378 -134.476973 
L 281.817745 -134.542021 
L 281.819242 -134.607069 
L 281.828726 -134.672117 
L 281.829727 -134.737165 
L 281.829886 -134.867261 
L 281.830097 -134.932309 
L 281.83036 -134.997357 
L 281.830782 -135.127453 
L 281.831205 -135.192501 
L 281.978518 -135.257549 
L 281.978571 -135.322597 
L 281.978782 -135.387645 
L 281.978835 -135.517741 
L 281.979966 -135.582789 
L 281.980222 -135.777933 
L 281.980735 -135.842981 
L 281.981157 -135.973077 
L 281.981685 -136.038125 
L 281.98174 -136.103173 
L 281.983745 -136.883749 
L 281.983908 -136.948797 
L 281.98406 -137.013845 
L 281.984167 -137.078893 
L 281.984325 -137.143941 
L 281.984544 -137.274037 
L 281.984545 -137.339085 
L 281.984854 -137.599277 
L 281.984904 -137.664325 
L 281.985434 -137.729373 
L 281.985537 -137.794421 
L 282.276998 -138.119661 
L 283.542183 -138.900237 
L 285.492998 -139.550717 
L 285.53361 -139.810909 
L 285.605327 -140.201197 
L 285.605814 -140.591485 
L 286.826612 -143.323501 
L 286.836254 -143.908933 
L 288.106751 -144.624461 
L 288.129341 -145.209893 
L 289.876524 -145.600181 
L 290.794849 -146.055517 
L 290.7949 -146.185613 
L 290.818828 -147.096285 
L 290.823242 -148.397244 
L 290.823243 -149.112772 
L 290.823453 -149.17782 
L 291.019115 -151.12926 
L 291.019116 -152.235076 
L 291.019171 -152.690412 
L 291.01922 -152.75546 
L 291.054264 -152.950604 
L 292.00605 -153.0807 
L 292.006051 -153.145748 
L 292.434157 -153.536036 
L 295.118055 -153.926324 
L 297.856102 -154.446708 
L 299.512114 -154.511756 
L 299.512317 -154.576804 
L 299.512686 -154.7069 
L 299.512738 -154.771948 
L 299.512794 -154.836996 
L 299.576979 -155.227284 
L 300.044617 -155.292332 
L 300.044669 -155.35738 
L 300.045567 -155.422428 
L 300.100617 -155.487476 
L 300.100775 -155.552524 
L 300.101777 -155.617572 
L 300.103151 -155.68262 
L 302.719255 -156.203004 
L 303.572149 -156.268052 
L 303.57215 -156.65834 
L 303.572203 -156.98358 
L 303.625096 -157.048628 
L 303.625143 -157.113676 
L 303.647048 -157.178724 
L 303.715823 -157.438916 
L 304.164511 -157.764156 
L 304.164512 -157.829204 
L 304.287832 -158.60978 
L 306.341525 -159.195212 
L 306.511928 -160.56122 
L 306.51208 -161.341796 
L 306.512081 -161.471892 
L 306.512176 -161.601988 
L 306.533871 -161.732084 
L 306.534877 -161.797132 
L 306.851452 -162.057324 
L 306.851453 -163.748571 
L 306.851454 -163.943715 
L 307.278684 -164.008763 
L 307.278685 -164.464099 
L 307.813448 -164.594195 
L 307.813449 -165.049531 
L 308.178502 -165.439819 
L 308.42444 -165.830107 
L 308.649337 -165.960203 
L 308.680456 -166.740779 
L 309.41236 -167.326211 
L 309.716669 -168.497075 
L 310.82752 -169.407747 
L 310.827521 -169.472795 
L 311.060538 -169.863083 
L 313.748246 -170.838803 
L 313.748247 -171.164043 
L 313.855941 -171.359187 
L 313.873429 -171.424235 
L 313.873482 -171.554331 
L 313.873587 -171.749475 
L 313.875227 -171.879571 
L 315.334943 -172.009667 
L 315.335049 -172.269859 
L 315.51396 -173.050435 
L 315.625887 -173.440723 
L 317.102906 -173.700915 
L 318.075468 -174.481491 
L 319.216082 -175.066923 
L 319.672928 -175.457211 
L 321.876775 -177.083411 
L 321.952372 -177.40865 
L 321.952373 -179.425138 
L 321.952373 -180.205714 
L 322.330842 -180.400858 
L 322.330843 -180.596002 
L 323.208278 -181.051338 
L 324.196297 -181.896962 
L 324.196298 -182.157154 
L 324.196583 -183.132874 
L 324.19669 -183.393066 
L 324.383043 -183.458114 
L 324.534412 -183.978498 
L 324.554962 -184.173642 
L 324.555066 -184.498882 
L 324.710638 -185.084314 
L 324.786651 -185.474602 
L 325.5181 -185.53965 
L 325.518177 -185.929938 
L 325.51818 -186.905658 
L 325.51828 -187.295946 
L 325.518311 -187.360994 
L 325.519695 -187.426042 
L 327.1198 -187.946426 
L 327.476141 -189.76777 
L 327.860185 -189.897866 
L 328.581543 -189.962914 
L 328.581581 -190.027962 
L 328.581688 -190.158058 
L 328.581754 -190.288154 
L 328.58207 -190.353202 
L 328.582176 -190.41825 
L 329.617695 -190.483298 
L 329.617695 -194.516273 
L 330.066377 -194.776465 
L 331.805411 -194.841513 
L 331.805412 -195.557041 
L 331.833171 -196.272569 
L 331.833171 -196.337617 
L 332.364923 -196.858001 
L 332.364924 -197.118193 
L 332.440808 -197.508481 
L 334.69825 -197.638577 
L 334.721341 -198.028865 
L 334.721342 -198.419153 
L 334.721525 -198.549249 
L 335.097208 -198.744393 
L 335.466561 -198.939537 
L 335.466928 -199.069633 
L 335.467088 -199.264777 
L 336.02357 -199.329825 
L 336.023659 -199.655065 
L 336.023977 -199.785161 
L 336.540399 -200.175449 
L 336.825893 -200.240497 
L 337.091153 -200.370593 
L 337.91055 -200.630785 
L 338.619485 -201.216217 
L 339.190804 -202.777369 
L 340.163624 -203.037561 
L 340.376045 -203.818137 
L 340.376045 -204.338521 
L 340.376046 -204.598713 
L 340.376047 -204.663761 
L 340.376048 -204.989001 
L 340.802459 -205.379289 
L 343.393989 -205.639481 
L 344.224501 -206.029768 
L 344.301206 -206.485104 
L 344.301207 -207.200632 
L 345.046968 -208.2414 
L 346.275301 -208.761784 
L 346.275302 -208.826832 
L 346.620929 -210.322936 
L 346.62093 -210.387984 
L 346.81255 -210.648176 
L 346.812551 -210.778272 
L 347.330797 -210.84332 
L 347.339351 -211.428752 
L 347.464812 -211.623896 
L 347.859116 -211.81904 
L 347.866055 -211.884088 
L 348.00723 -211.949136 
L 348.007231 -212.274376 
L 348.272143 -212.599616 
L 348.493037 -212.664664 
L 348.847267 -212.729712 
L 348.847268 -213.380192 
L 348.849475 -213.44524 
L 348.870845 -214.030672 
L 349.578456 -214.160768 
L 351.060031 -214.225816 
L 351.060032 -214.290864 
L 351.085169 -214.941344 
L 351.08517 -215.07144 
L 351.194814 -215.331632 
L 351.724393 -216.3724 
L 352.529657 -217.34812 
L 352.529658 -217.67336 
L 353.119635 -218.063648 
L 354.811474 -218.909272 
L 354.811475 -219.039368 
L 354.860609 -219.364608 
L 354.86061 -219.819944 
L 354.860822 -220.600519 
L 354.860827 -221.185951 
L 354.860828 -221.381095 
L 354.860832 -222.161671 
L 354.861509 -222.682055 
L 354.86151 -222.877199 
L 355.584036 -223.007295 
L 355.584544 -223.072343 
L 355.831418 -223.137391 
L 355.831479 -223.462631 
L 355.831639 -223.657775 
L 355.831954 -223.722823 
L 355.83212 -223.787871 
L 355.833537 -223.852919 
L 357.925516 -224.633495 
L 358.065088 -224.828639 
L 358.065139 -224.893687 
L 358.065207 -225.023783 
L 358.065358 -225.153879 
L 358.065516 -225.218927 
L 358.680355 -225.544167 
L 360.616795 -226.975223 
L 360.849861 -227.365511 
L 361.916045 -227.495607 
L 361.916046 -227.755799 
L 362.372348 -228.861615 
L 362.372349 -229.316951 
L 362.48544 -229.447047 
L 363.282817 -229.707239 
L 363.625203 -230.097527 
L 364.340435 -230.227623 
L 364.718327 -232.569351 
L 364.748404 -232.634399 
L 364.74841 -232.699447 
L 364.748417 -232.829543 
L 364.748426 -233.024687 
L 364.748437 -233.089735 
L 364.748442 -233.349927 
L 364.748448 -233.545071 
L 364.748453 -233.610119 
L 364.748458 -233.675167 
L 364.748506 -233.740215 
L 364.748519 -233.805263 
L 364.756906 -236.277086 
L 364.756907 -237.252806 
L 365.059387 -237.512998 
L 366.417957 -238.488718 
L 366.420597 -238.944054 
L 366.421383 -239.009102 
L 366.421624 -239.139198 
L 366.467932 -239.529486 
L 367.314174 -239.72463 
L 367.636553 -239.854726 
L 367.732267 -240.245014 
L 368.726372 -240.635302 
L 368.726494 -241.415878 
L 369.104867 -242.196454 
L 370.229112 -242.261502 
L 370.229113 -242.586742 
L 370.268453 -242.716838 
L 370.36927 -242.97703 
L 370.370907 -243.042078 
L 370.370908 -243.107126 
L 371.083663 -243.497414 
L 371.2451 -244.343038 
L 373.029632 -244.538182 
L 373.029632 -66.501818 
L 373.029632 -66.501818 
L 371.2451 -66.501818 
L 371.083663 -66.501818 
L 370.370908 -66.501818 
L 370.370907 -66.501818 
L 370.36927 -66.501818 
L 370.268453 -66.501818 
L 370.229113 -66.501818 
L 370.229112 -66.501818 
L 369.104867 -66.501818 
L 368.726494 -66.501818 
L 368.726372 -66.501818 
L 367.732267 -66.501818 
L 367.636553 -66.501818 
L 367.314174 -66.501818 
L 366.467932 -66.501818 
L 366.421624 -66.501818 
L 366.421383 -66.501818 
L 366.420597 -66.501818 
L 366.417957 -66.501818 
L 365.059387 -66.501818 
L 364.756907 -66.501818 
L 364.756906 -66.501818 
L 364.748519 -66.501818 
L 364.748506 -66.501818 
L 364.748458 -66.501818 
L 364.748453 -66.501818 
L 364.748448 -66.501818 
L 364.748442 -66.501818 
L 364.748437 -66.501818 
L 364.748426 -66.501818 
L 364.748417 -66.501818 
L 364.74841 -66.501818 
L 364.748404 -66.501818 
L 364.718327 -66.501818 
L 364.340435 -66.501818 
L 363.625203 -66.501818 
L 363.282817 -66.501818 
L 362.48544 -66.501818 
L 362.372349 -66.501818 
L 362.372348 -66.501818 
L 361.916046 -66.501818 
L 361.916045 -66.501818 
L 360.849861 -66.501818 
L 360.616795 -66.501818 
L 358.680355 -66.501818 
L 358.065516 -66.501818 
L 358.065358 -66.501818 
L 358.065207 -66.501818 
L 358.065139 -66.501818 
L 358.065088 -66.501818 
L 357.925516 -66.501818 
L 355.833537 -66.501818 
L 355.83212 -66.501818 
L 355.831954 -66.501818 
L 355.831639 -66.501818 
L 355.831479 -66.501818 
L 355.831418 -66.501818 
L 355.584544 -66.501818 
L 355.584036 -66.501818 
L 354.86151 -66.501818 
L 354.861509 -66.501818 
L 354.860832 -66.501818 
L 354.860828 -66.501818 
L 354.860827 -66.501818 
L 354.860822 -66.501818 
L 354.86061 -66.501818 
L 354.860609 -66.501818 
L 354.811475 -66.501818 
L 354.811474 -66.501818 
L 353.119635 -66.501818 
L 352.529658 -66.501818 
L 352.529657 -66.501818 
L 351.724393 -66.501818 
L 351.194814 -66.501818 
L 351.08517 -66.501818 
L 351.085169 -66.501818 
L 351.060032 -66.501818 
L 351.060031 -66.501818 
L 349.578456 -66.501818 
L 348.870845 -66.501818 
L 348.849475 -66.501818 
L 348.847268 -66.501818 
L 348.847267 -66.501818 
L 348.493037 -66.501818 
L 348.272143 -66.501818 
L 348.007231 -66.501818 
L 348.00723 -66.501818 
L 347.866055 -66.501818 
L 347.859116 -66.501818 
L 347.464812 -66.501818 
L 347.339351 -66.501818 
L 347.330797 -66.501818 
L 346.812551 -66.501818 
L 346.81255 -66.501818 
L 346.62093 -66.501818 
L 346.620929 -66.501818 
L 346.275302 -66.501818 
L 346.275301 -66.501818 
L 345.046968 -66.501818 
L 344.301207 -66.501818 
L 344.301206 -66.501818 
L 344.224501 -66.501818 
L 343.393989 -66.501818 
L 340.802459 -66.501818 
L 340.376048 -66.501818 
L 340.376047 -66.501818 
L 340.376046 -66.501818 
L 340.376045 -66.501818 
L 340.376045 -66.501818 
L 340.163624 -66.501818 
L 339.190804 -66.501818 
L 338.619485 -66.501818 
L 337.91055 -66.501818 
L 337.091153 -66.501818 
L 336.825893 -66.501818 
L 336.540399 -66.501818 
L 336.023977 -66.501818 
L 336.023659 -66.501818 
L 336.02357 -66.501818 
L 335.467088 -66.501818 
L 335.466928 -66.501818 
L 335.466561 -66.501818 
L 335.097208 -66.501818 
L 334.721525 -66.501818 
L 334.721342 -66.501818 
L 334.721341 -66.501818 
L 334.69825 -66.501818 
L 332.440808 -66.501818 
L 332.364924 -66.501818 
L 332.364923 -66.501818 
L 331.833171 -66.501818 
L 331.833171 -66.501818 
L 331.805412 -66.501818 
L 331.805411 -66.501818 
L 330.066377 -66.501818 
L 329.617695 -66.501818 
L 329.617695 -66.501818 
L 328.582176 -66.501818 
L 328.58207 -66.501818 
L 328.581754 -66.501818 
L 328.581688 -66.501818 
L 328.581581 -66.501818 
L 328.581543 -66.501818 
L 327.860185 -66.501818 
L 327.476141 -66.501818 
L 327.1198 -66.501818 
L 325.519695 -66.501818 
L 325.518311 -66.501818 
L 325.51828 -66.501818 
L 325.51818 -66.501818 
L 325.518177 -66.501818 
L 325.5181 -66.501818 
L 324.786651 -66.501818 
L 324.710638 -66.501818 
L 324.555066 -66.501818 
L 324.554962 -66.501818 
L 324.534412 -66.501818 
L 324.383043 -66.501818 
L 324.19669 -66.501818 
L 324.196583 -66.501818 
L 324.196298 -66.501818 
L 324.196297 -66.501818 
L 323.208278 -66.501818 
L 322.330843 -66.501818 
L 322.330842 -66.501818 
L 321.952373 -66.501818 
L 321.952373 -66.501818 
L 321.952372 -66.501818 
L 321.876775 -66.501818 
L 319.672928 -66.501818 
L 319.216082 -66.501818 
L 318.075468 -66.501818 
L 317.102906 -66.501818 
L 315.625887 -66.501818 
L 315.51396 -66.501818 
L 315.335049 -66.501818 
L 315.334943 -66.501818 
L 313.875227 -66.501818 
L 313.873587 -66.501818 
L 313.873482 -66.501818 
L 313.873429 -66.501818 
L 313.855941 -66.501818 
L 313.748247 -66.501818 
L 313.748246 -66.501818 
L 311.060538 -66.501818 
L 310.827521 -66.501818 
L 310.82752 -66.501818 
L 309.716669 -66.501818 
L 309.41236 -66.501818 
L 308.680456 -66.501818 
L 308.649337 -66.501818 
L 308.42444 -66.501818 
L 308.178502 -66.501818 
L 307.813449 -66.501818 
L 307.813448 -66.501818 
L 307.278685 -66.501818 
L 307.278684 -66.501818 
L 306.851454 -66.501818 
L 306.851453 -66.501818 
L 306.851452 -66.501818 
L 306.534877 -66.501818 
L 306.533871 -66.501818 
L 306.512176 -66.501818 
L 306.512081 -66.501818 
L 306.51208 -66.501818 
L 306.511928 -66.501818 
L 306.341525 -66.501818 
L 304.287832 -66.501818 
L 304.164512 -66.501818 
L 304.164511 -66.501818 
L 303.715823 -66.501818 
L 303.647048 -66.501818 
L 303.625143 -66.501818 
L 303.625096 -66.501818 
L 303.572203 -66.501818 
L 303.57215 -66.501818 
L 303.572149 -66.501818 
L 302.719255 -66.501818 
L 300.103151 -66.501818 
L 300.101777 -66.501818 
L 300.100775 -66.501818 
L 300.100617 -66.501818 
L 300.045567 -66.501818 
L 300.044669 -66.501818 
L 300.044617 -66.501818 
L 299.576979 -66.501818 
L 299.512794 -66.501818 
L 299.512738 -66.501818 
L 299.512686 -66.501818 
L 299.512317 -66.501818 
L 299.512114 -66.501818 
L 297.856102 -66.501818 
L 295.118055 -66.501818 
L 292.434157 -66.501818 
L 292.006051 -66.501818 
L 292.00605 -66.501818 
L 291.054264 -66.501818 
L 291.01922 -66.501818 
L 291.019171 -66.501818 
L 291.019116 -66.501818 
L 291.019115 -66.501818 
L 290.823453 -66.501818 
L 290.823243 -66.501818 
L 290.823242 -66.501818 
L 290.818828 -66.501818 
L 290.7949 -66.501818 
L 290.794849 -66.501818 
L 289.876524 -66.501818 
L 288.129341 -66.501818 
L 288.106751 -66.501818 
L 286.836254 -66.501818 
L 286.826612 -66.501818 
L 285.605814 -66.501818 
L 285.605327 -66.501818 
L 285.53361 -66.501818 
L 285.492998 -66.501818 
L 283.542183 -66.501818 
L 282.276998 -66.501818 
L 281.985537 -66.501818 
L 281.985434 -66.501818 
L 281.984904 -66.501818 
L 281.984854 -66.501818 
L 281.984545 -66.501818 
L 281.984544 -66.501818 
L 281.984325 -66.501818 
L 281.984167 -66.501818 
L 281.98406 -66.501818 
L 281.983908 -66.501818 
L 281.983745 -66.501818 
L 281.98174 -66.501818 
L 281.981685 -66.501818 
L 281.981157 -66.501818 
L 281.980735 -66.501818 
L 281.980222 -66.501818 
L 281.979966 -66.501818 
L 281.978835 -66.501818 
L 281.978782 -66.501818 
L 281.978571 -66.501818 
L 281.978518 -66.501818 
L 281.831205 -66.501818 
L 281.830782 -66.501818 
L 281.83036 -66.501818 
L 281.830097 -66.501818 
L 281.829886 -66.501818 
L 281.829727 -66.501818 
L 281.828726 -66.501818 
L 281.819242 -66.501818 
L 281.817745 -66.501818 
L 281.817378 -66.501818 
L 281.817226 -66.501818 
L 281.816866 -66.501818 
L 281.814823 -66.501818 
L 281.814442 -66.501818 
L 281.813758 -66.501818 
L 281.20928 -66.501818 
L 281.209279 -66.501818 
L 281.094904 -66.501818 
L 280.224494 -66.501818 
L 278.100153 -66.501818 
L 278.100152 -66.501818 
L 278.100152 -66.501818 
L 278.100151 -66.501818 
L 276.097991 -66.501818 
L 275.359589 -66.501818 
L 273.81646 -66.501818 
L 273.185148 -66.501818 
L 273.184357 -66.501818 
L 272.597508 -66.501818 
L 272.597507 -66.501818 
L 271.71113 -66.501818 
L 270.797596 -66.501818 
L 270.473927 -66.501818 
L 270.473926 -66.501818 
L 268.595867 -66.501818 
L 268.595444 -66.501818 
L 268.595339 -66.501818 
L 268.590488 -66.501818 
L 268.590487 -66.501818 
L 268.590429 -66.501818 
L 268.441431 -66.501818 
L 268.44111 -66.501818 
L 267.603971 -66.501818 
L 267.603843 -66.501818 
L 267.603806 -66.501818 
L 267.603689 -66.501818 
L 267.537657 -66.501818 
L 267.537656 -66.501818 
L 267.176215 -66.501818 
L 266.872683 -66.501818 
L 266.872682 -66.501818 
L 264.744995 -66.501818 
L 263.85795 -66.501818 
L 263.717775 -66.501818 
L 263.644977 -66.501818 
L 262.82175 -66.501818 
L 262.447633 -66.501818 
L 262.44758 -66.501818 
L 262.447527 -66.501818 
L 262.447475 -66.501818 
L 262.447422 -66.501818 
L 262.285244 -66.501818 
L 262.285243 -66.501818 
L 262.285242 -66.501818 
L 261.069454 -66.501818 
L 260.857437 -66.501818 
L 260.434628 -66.501818 
L 260.434627 -66.501818 
L 260.085829 -66.501818 
L 258.966127 -66.501818 
L 258.966126 -66.501818 
L 257.855018 -66.501818 
L 257.750186 -66.501818 
L 257.750184 -66.501818 
L 257.750183 -66.501818 
L 257.302984 -66.501818 
L 256.827495 -66.501818 
L 256.785602 -66.501818 
L 255.137367 -66.501818 
L 254.231848 -66.501818 
L 254.231323 -66.501818 
L 254.230054 -66.501818 
L 254.229946 -66.501818 
L 250.046943 -66.501818 
L 249.593631 -66.501818 
L 248.050896 -66.501818 
L 248.050896 -66.501818 
L 244.593448 -66.501818 
L 244.099853 -66.501818 
L 242.981409 -66.501818 
L 242.449574 -66.501818 
L 241.839757 -66.501818 
L 238.191974 -66.501818 
L 238.187804 -66.501818 
L 238.187487 -66.501818 
L 238.186537 -66.501818 
L 237.864826 -66.501818 
L 237.860612 -66.501818 
L 237.859082 -66.501818 
L 236.216368 -66.501818 
L 235.685543 -66.501818 
L 235.383263 -66.501818 
L 235.114654 -66.501818 
L 231.960139 -66.501818 
L 231.710392 -66.501818 
L 226.411709 -66.501818 
L 226.411707 -66.501818 
L 225.575476 -66.501818 
L 224.207356 -66.501818 
L 222.154414 -66.501818 
L 221.984316 -66.501818 
L 221.984129 -66.501818 
L 221.983875 -66.501818 
L 221.983852 -66.501818 
L 221.983818 -66.501818 
L 220.011062 -66.501818 
L 218.477186 -66.501818 
L 218.47718 -66.501818 
L 218.396462 -66.501818 
L 216.454161 -66.501818 
L 215.947221 -66.501818 
L 213.416262 -66.501818 
L 212.983022 -66.501818 
L 212.727883 -66.501818 
L 211.842946 -66.501818 
L 211.665341 -66.501818 
L 211.66534 -66.501818 
L 210.98067 -66.501818 
L 208.93148 -66.501818 
L 208.498721 -66.501818 
L 207.01964 -66.501818 
L 203.906093 -66.501818 
L 203.30463 -66.501818 
L 203.229674 -66.501818 
L 202.62063 -66.501818 
L 202.455268 -66.501818 
L 199.635389 -66.501818 
L 199.635374 -66.501818 
L 199.635357 -66.501818 
L 195.249713 -66.501818 
L 192.973715 -66.501818 
L 189.855922 -66.501818 
L 189.855456 -66.501818 
L 189.855453 -66.501818 
L 189.855452 -66.501818 
L 189.855449 -66.501818 
L 189.23835 -66.501818 
L 189.23829 -66.501818 
L 189.238096 -66.501818 
L 189.237975 -66.501818 
L 189.233068 -66.501818 
L 189.23296 -66.501818 
L 189.229636 -66.501818 
L 189.223742 -66.501818 
L 189.223683 -66.501818 
L 189.22368 -66.501818 
L 189.220609 -66.501818 
L 189.220403 -66.501818 
L 189.220363 -66.501818 
L 189.220135 -66.501818 
L 189.220029 -66.501818 
L 189.216719 -66.501818 
L 189.216707 -66.501818 
L 189.21243 -66.501818 
L 189.210853 -66.501818 
L 189.210753 -66.501818 
L 189.210639 -66.501818 
L 189.21059 -66.501818 
L 189.210551 -66.501818 
L 189.21055 -66.501818 
L 189.210529 -66.501818 
L 189.210528 -66.501818 
L 189.210491 -66.501818 
L 189.204044 -66.501818 
L 189.204 -66.501818 
L 189.203999 -66.501818 
L 189.203989 -66.501818 
L 189.203987 -66.501818 
L 189.202456 -66.501818 
L 189.200884 -66.501818 
L 189.200616 -66.501818 
L 189.199022 -66.501818 
L 189.197396 -66.501818 
L 189.194593 -66.501818 
L 189.194499 -66.501818 
L 189.194443 -66.501818 
L 189.194339 -66.501818 
L 189.188098 -66.501818 
L 189.188053 -66.501818 
L 189.188009 -66.501818 
L 189.188 -66.501818 
L 189.187964 -66.501818 
L 189.187962 -66.501818 
L 189.187895 -66.501818 
L 189.181721 -66.501818 
L 189.17808 -66.501818 
L 189.175217 -66.501818 
L 189.171897 -66.501818 
L 189.169003 -66.501818 
L 189.169 -66.501818 
L 189.168995 -66.501818 
L 189.162052 -66.501818 
L 189.155744 -66.501818 
L 189.15571 -66.501818 
L 185.977728 -66.501818 
L 185.566172 -66.501818 
L 185.566172 -66.501818 
L 185.566171 -66.501818 
L 185.56617 -66.501818 
L 183.546981 -66.501818 
L 179.292449 -66.501818 
L 174.884092 -66.501818 
L 172.298922 -66.501818 
L 170.013915 -66.501818 
L 168.419385 -66.501818 
L 165.541227 -66.501818 
L 165.541226 -66.501818 
L 162.793954 -66.501818 
L 156.855647 -66.501818 
L 156.474862 -66.501818 
L 153.697173 -66.501818 
L 153.159446 -66.501818 
L 153.133862 -66.501818 
L 153.133808 -66.501818 
L 153.133069 -66.501818 
L 153.128847 -66.501818 
L 153.128742 -66.501818 
L 153.128636 -66.501818 
L 153.128531 -66.501818 
L 153.128477 -66.501818 
L 153.128378 -66.501818 
L 153.126313 -66.501818 
L 153.126208 -66.501818 
L 142.558402 -66.501818 
L 69.218183 -66.501818 
L 69.218182 -66.501818 
z
" id="meb2fa662b6" style="stroke:#6e9a44;"/>
    </defs>
    <g clip-path="url(#p38173f5fa0)">
     <use style="fill:#6e9a44;stroke:#6e9a44;" x="0" xlink:href="#meb2fa662b6" y="288"/>
    </g>
   </g>
   <g id="PolyCollection_2">
    <defs>
     <path d="M 69.218182 -66.501818 
L 69.218182 -66.566866 
L 174.884089 -66.76201 
L 202.620623 -66.892106 
L 208.931475 -67.41249 
L 211.665336 -67.672682 
L 212.727877 -67.802778 
L 218.477136 -67.867826 
L 221.983769 -67.932874 
L 221.983822 -67.997922 
L 221.983875 -68.06297 
L 221.984086 -68.128018 
L 221.984297 -68.193066 
L 225.575433 -71.31537 
L 226.4117 -71.445466 
L 231.960126 -71.575562 
L 235.114602 -71.770706 
L 235.383259 -71.900802 
L 249.593628 -72.29109 
L 254.229939 -72.681378 
L 254.230045 -73.071666 
L 256.785558 -73.461954 
L 256.827467 -73.657098 
L 260.434595 -74.697866 
L 261.069449 -75.283298 
L 262.447464 -75.413394 
L 262.447517 -75.608538 
L 262.447622 -75.673586 
L 266.87265 -76.779401 
L 267.176196 -77.234737 
L 268.595433 -77.625025 
L 268.595855 -77.690073 
L 280.224479 -78.080361 
L 281.978771 -78.145409 
L 281.978824 -78.210457 
L 281.978835 -78.275505 
L 281.980724 -78.340553 
L 281.981727 -78.405601 
L 281.983733 -78.730841 
L 281.983745 -78.925985 
L 281.984525 -79.056081 
L 281.984545 -79.121129 
L 281.984841 -79.186177 
L 281.985527 -79.251225 
L 285.605324 -79.641513 
L 286.826578 -79.901705 
L 288.129327 -80.487137 
L 289.876494 -80.877425 
L 290.794836 -81.332761 
L 290.794889 -81.462857 
L 290.818828 -82.373529 
L 291.054257 -82.568673 
L 292.434119 -82.958961 
L 295.118049 -83.349249 
L 297.85608 -83.739537 
L 299.576963 -84.129825 
L 306.851443 -86.276409 
L 308.680422 -86.666697 
L 309.716625 -87.056985 
L 315.513915 -87.837561 
L 321.952339 -90.959864 
L 322.330842 -91.155008 
L 322.330843 -91.350152 
L 324.196284 -91.935584 
L 324.196297 -92.06568 
L 324.196298 -92.325872 
L 324.196548 -92.71616 
L 324.196583 -93.106448 
L 324.19669 -93.36664 
L 324.534402 -93.887024 
L 324.554934 -94.082168 
L 324.555039 -94.407408 
L 331.805399 -95.187984 
L 339.190804 -95.96856 
L 340.163586 -96.228752 
L 340.37603 -96.61904 
L 344.301167 -97.009328 
L 345.046967 -98.050096 
L 346.275294 -98.635528 
L 346.812502 -99.025816 
L 373.581818 -104.034512 
L 373.581818 -66.501818 
L 373.581818 -66.501818 
L 346.812502 -66.501818 
L 346.275294 -66.501818 
L 345.046967 -66.501818 
L 344.301167 -66.501818 
L 340.37603 -66.501818 
L 340.163586 -66.501818 
L 339.190804 -66.501818 
L 331.805399 -66.501818 
L 324.555039 -66.501818 
L 324.554934 -66.501818 
L 324.534402 -66.501818 
L 324.19669 -66.501818 
L 324.196583 -66.501818 
L 324.196548 -66.501818 
L 324.196298 -66.501818 
L 324.196297 -66.501818 
L 324.196284 -66.501818 
L 322.330843 -66.501818 
L 322.330842 -66.501818 
L 321.952339 -66.501818 
L 315.513915 -66.501818 
L 309.716625 -66.501818 
L 308.680422 -66.501818 
L 306.851443 -66.501818 
L 299.576963 -66.501818 
L 297.85608 -66.501818 
L 295.118049 -66.501818 
L 292.434119 -66.501818 
L 291.054257 -66.501818 
L 290.818828 -66.501818 
L 290.794889 -66.501818 
L 290.794836 -66.501818 
L 289.876494 -66.501818 
L 288.129327 -66.501818 
L 286.826578 -66.501818 
L 285.605324 -66.501818 
L 281.985527 -66.501818 
L 281.984841 -66.501818 
L 281.984545 -66.501818 
L 281.984525 -66.501818 
L 281.983745 -66.501818 
L 281.983733 -66.501818 
L 281.981727 -66.501818 
L 281.980724 -66.501818 
L 281.978835 -66.501818 
L 281.978824 -66.501818 
L 281.978771 -66.501818 
L 280.224479 -66.501818 
L 268.595855 -66.501818 
L 268.595433 -66.501818 
L 267.176196 -66.501818 
L 266.87265 -66.501818 
L 262.447622 -66.501818 
L 262.447517 -66.501818 
L 262.447464 -66.501818 
L 261.069449 -66.501818 
L 260.434595 -66.501818 
L 256.827467 -66.501818 
L 256.785558 -66.501818 
L 254.230045 -66.501818 
L 254.229939 -66.501818 
L 249.593628 -66.501818 
L 235.383259 -66.501818 
L 235.114602 -66.501818 
L 231.960126 -66.501818 
L 226.4117 -66.501818 
L 225.575433 -66.501818 
L 221.984297 -66.501818 
L 221.984086 -66.501818 
L 221.983875 -66.501818 
L 221.983822 -66.501818 
L 221.983769 -66.501818 
L 218.477136 -66.501818 
L 212.727877 -66.501818 
L 211.665336 -66.501818 
L 208.931475 -66.501818 
L 202.620623 -66.501818 
L 174.884089 -66.501818 
L 69.218182 -66.501818 
z
" id="mce9b089691" style="stroke:#3d9690;"/>
    </defs>
    <g clip-path="url(#p38173f5fa0)">
     <use style="fill:#3d9690;stroke:#3d9690;" x="0" xlink:href="#mce9b089691" y="288"/>
    </g>
   </g>
   <g id="matplotlib.axis_1">
    <g id="xtick_1">
     <g id="line2d_1">
      <defs>
       <path d="M 0 0 
L 0 -3.5 
" id="m0cd2cb0325" style="stroke:#000000;stroke-width:0.8;"/>
      </defs>
      <g>
       <use style="stroke:#000000;stroke-width:0.8;" x="91.183658" xlink:href="#m0cd2cb0325" y="230.4"/>
      </g>
     </g>
     <g id="text_1">
      <!-- 2012 -->
      <defs>
       <path d="M 50.34375 8.453125 
L 50.34375 0 
L 3.03125 0 
Q 2.9375 3.171875 4.046875 6.109375 
Q 5.859375 10.9375 9.828125 15.625 
Q 13.8125 20.3125 21.34375 26.46875 
Q 33.015625 36.03125 37.109375 41.625 
Q 41.21875 47.21875 41.21875 52.203125 
Q 41.21875 57.421875 37.46875 61 
Q 33.734375 64.59375 27.734375 64.59375 
Q 21.390625 64.59375 17.578125 60.78125 
Q 13.765625 56.984375 13.71875 50.25 
L 4.6875 51.171875 
Q 5.609375 61.28125 11.65625 66.578125 
Q 17.71875 71.875 27.9375 71.875 
Q 38.234375 71.875 44.234375 66.15625 
Q 50.25 60.453125 50.25 52 
Q 50.25 47.703125 48.484375 43.546875 
Q 46.734375 39.40625 42.65625 34.8125 
Q 38.578125 30.21875 29.109375 22.21875 
Q 21.1875 15.578125 18.9375 13.203125 
Q 16.703125 10.84375 15.234375 8.453125 
z
" id="ArialMT-50"/>
       <path d="M 4.15625 35.296875 
Q 4.15625 48 6.765625 55.734375 
Q 9.375 63.484375 14.515625 67.671875 
Q 19.671875 71.875 27.484375 71.875 
Q 33.25 71.875 37.59375 69.546875 
Q 41.9375 67.234375 44.765625 62.859375 
Q 47.609375 58.5 49.21875 52.21875 
Q 50.828125 45.953125 50.828125 35.296875 
Q 50.828125 22.703125 48.234375 14.96875 
Q 45.65625 7.234375 40.5 3 
Q 35.359375 -1.21875 27.484375 -1.21875 
Q 17.140625 -1.21875 11.234375 6.203125 
Q 4.15625 15.140625 4.15625 35.296875 
z
M 13.1875 35.296875 
Q 13.1875 17.671875 17.3125 11.828125 
Q 21.4375 6 27.484375 6 
Q 33.546875 6 37.671875 11.859375 
Q 41.796875 17.71875 41.796875 35.296875 
Q 41.796875 52.984375 37.671875 58.78125 
Q 33.546875 64.59375 27.390625 64.59375 
Q 21.34375 64.59375 17.71875 59.46875 
Q 13.1875 52.9375 13.1875 35.296875 
z
" id="ArialMT-48"/>
       <path d="M 37.25 0 
L 28.46875 0 
L 28.46875 56 
Q 25.296875 52.984375 20.140625 49.953125 
Q 14.984375 46.921875 10.890625 45.40625 
L 10.890625 53.90625 
Q 18.265625 57.375 23.78125 62.296875 
Q 29.296875 67.234375 31.59375 71.875 
L 37.25 71.875 
z
" id="ArialMT-49"/>
      </defs>
      <g transform="translate(81.525464 267.164071)rotate(-45)scale(0.16 -0.16)">
       <use xlink:href="#ArialMT-50"/>
       <use x="55.615234" xlink:href="#ArialMT-48"/>
       <use x="111.230469" xlink:href="#ArialMT-49"/>
       <use x="166.845703" xlink:href="#ArialMT-50"/>
      </g>
     </g>
    </g>
    <g id="xtick_2">
     <g id="line2d_2">
      <g>
       <use style="stroke:#000000;stroke-width:0.8;" x="119.001528" xlink:href="#m0cd2cb0325" y="230.4"/>
      </g>
     </g>
     <g id="text_2">
      <!-- 2013 -->
      <defs>
       <path d="M 4.203125 18.890625 
L 12.984375 20.0625 
Q 14.5 12.59375 18.140625 9.296875 
Q 21.78125 6 27 6 
Q 33.203125 6 37.46875 10.296875 
Q 41.75 14.59375 41.75 20.953125 
Q 41.75 27 37.796875 30.921875 
Q 33.84375 34.859375 27.734375 34.859375 
Q 25.25 34.859375 21.53125 33.890625 
L 22.515625 41.609375 
Q 23.390625 41.5 23.921875 41.5 
Q 29.546875 41.5 34.03125 44.421875 
Q 38.53125 47.359375 38.53125 53.46875 
Q 38.53125 58.296875 35.25 61.46875 
Q 31.984375 64.65625 26.8125 64.65625 
Q 21.6875 64.65625 18.265625 61.421875 
Q 14.84375 58.203125 13.875 51.765625 
L 5.078125 53.328125 
Q 6.6875 62.15625 12.390625 67.015625 
Q 18.109375 71.875 26.609375 71.875 
Q 32.46875 71.875 37.390625 69.359375 
Q 42.328125 66.84375 44.9375 62.5 
Q 47.5625 58.15625 47.5625 53.265625 
Q 47.5625 48.640625 45.0625 44.828125 
Q 42.578125 41.015625 37.703125 38.765625 
Q 44.046875 37.3125 47.5625 32.6875 
Q 51.078125 28.078125 51.078125 21.140625 
Q 51.078125 11.765625 44.234375 5.25 
Q 37.40625 -1.265625 26.953125 -1.265625 
Q 17.53125 -1.265625 11.296875 4.34375 
Q 5.078125 9.96875 4.203125 18.890625 
z
" id="ArialMT-51"/>
      </defs>
      <g transform="translate(109.343334 267.164071)rotate(-45)scale(0.16 -0.16)">
       <use xlink:href="#ArialMT-50"/>
       <use x="55.615234" xlink:href="#ArialMT-48"/>
       <use x="111.230469" xlink:href="#ArialMT-49"/>
       <use x="166.845703" xlink:href="#ArialMT-51"/>
      </g>
     </g>
    </g>
    <g id="xtick_3">
     <g id="line2d_3">
      <g>
       <use style="stroke:#000000;stroke-width:0.8;" x="146.743393" xlink:href="#m0cd2cb0325" y="230.4"/>
      </g>
     </g>
     <g id="text_3">
      <!-- 2014 -->
      <defs>
       <path d="M 32.328125 0 
L 32.328125 17.140625 
L 1.265625 17.140625 
L 1.265625 25.203125 
L 33.9375 71.578125 
L 41.109375 71.578125 
L 41.109375 25.203125 
L 50.78125 25.203125 
L 50.78125 17.140625 
L 41.109375 17.140625 
L 41.109375 0 
z
M 32.328125 25.203125 
L 32.328125 57.46875 
L 9.90625 25.203125 
z
" id="ArialMT-52"/>
      </defs>
      <g transform="translate(137.085199 267.164071)rotate(-45)scale(0.16 -0.16)">
       <use xlink:href="#ArialMT-50"/>
       <use x="55.615234" xlink:href="#ArialMT-48"/>
       <use x="111.230469" xlink:href="#ArialMT-49"/>
       <use x="166.845703" xlink:href="#ArialMT-52"/>
      </g>
     </g>
    </g>
    <g id="xtick_4">
     <g id="line2d_4">
      <g>
       <use style="stroke:#000000;stroke-width:0.8;" x="174.485258" xlink:href="#m0cd2cb0325" y="230.4"/>
      </g>
     </g>
     <g id="text_4">
      <!-- 2015 -->
      <defs>
       <path d="M 4.15625 18.75 
L 13.375 19.53125 
Q 14.40625 12.796875 18.140625 9.390625 
Q 21.875 6 27.15625 6 
Q 33.5 6 37.890625 10.78125 
Q 42.28125 15.578125 42.28125 23.484375 
Q 42.28125 31 38.0625 35.34375 
Q 33.84375 39.703125 27 39.703125 
Q 22.75 39.703125 19.328125 37.765625 
Q 15.921875 35.84375 13.96875 32.765625 
L 5.71875 33.84375 
L 12.640625 70.609375 
L 48.25 70.609375 
L 48.25 62.203125 
L 19.671875 62.203125 
L 15.828125 42.96875 
Q 22.265625 47.46875 29.34375 47.46875 
Q 38.71875 47.46875 45.15625 40.96875 
Q 51.609375 34.46875 51.609375 24.265625 
Q 51.609375 14.546875 45.953125 7.46875 
Q 39.0625 -1.21875 27.15625 -1.21875 
Q 17.390625 -1.21875 11.203125 4.25 
Q 5.03125 9.71875 4.15625 18.75 
z
" id="ArialMT-53"/>
      </defs>
      <g transform="translate(164.827063 267.164071)rotate(-45)scale(0.16 -0.16)">
       <use xlink:href="#ArialMT-50"/>
       <use x="55.615234" xlink:href="#ArialMT-48"/>
       <use x="111.230469" xlink:href="#ArialMT-49"/>
       <use x="166.845703" xlink:href="#ArialMT-53"/>
      </g>
     </g>
    </g>
    <g id="xtick_5">
     <g id="line2d_5">
      <g>
       <use style="stroke:#000000;stroke-width:0.8;" x="202.227123" xlink:href="#m0cd2cb0325" y="230.4"/>
      </g>
     </g>
     <g id="text_5">
      <!-- 2016 -->
      <defs>
       <path d="M 49.75 54.046875 
L 41.015625 53.375 
Q 39.84375 58.546875 37.703125 60.890625 
Q 34.125 64.65625 28.90625 64.65625 
Q 24.703125 64.65625 21.53125 62.3125 
Q 17.390625 59.28125 14.984375 53.46875 
Q 12.59375 47.65625 12.5 36.921875 
Q 15.671875 41.75 20.265625 44.09375 
Q 24.859375 46.4375 29.890625 46.4375 
Q 38.671875 46.4375 44.84375 39.96875 
Q 51.03125 33.5 51.03125 23.25 
Q 51.03125 16.5 48.125 10.71875 
Q 45.21875 4.9375 40.140625 1.859375 
Q 35.0625 -1.21875 28.609375 -1.21875 
Q 17.625 -1.21875 10.6875 6.859375 
Q 3.765625 14.9375 3.765625 33.5 
Q 3.765625 54.25 11.421875 63.671875 
Q 18.109375 71.875 29.4375 71.875 
Q 37.890625 71.875 43.28125 67.140625 
Q 48.6875 62.40625 49.75 54.046875 
z
M 13.875 23.1875 
Q 13.875 18.65625 15.796875 14.5 
Q 17.71875 10.359375 21.1875 8.171875 
Q 24.65625 6 28.46875 6 
Q 34.03125 6 38.03125 10.484375 
Q 42.046875 14.984375 42.046875 22.703125 
Q 42.046875 30.125 38.078125 34.390625 
Q 34.125 38.671875 28.125 38.671875 
Q 22.171875 38.671875 18.015625 34.390625 
Q 13.875 30.125 13.875 23.1875 
z
" id="ArialMT-54"/>
      </defs>
      <g transform="translate(192.568928 267.164071)rotate(-45)scale(0.16 -0.16)">
       <use xlink:href="#ArialMT-50"/>
       <use x="55.615234" xlink:href="#ArialMT-48"/>
       <use x="111.230469" xlink:href="#ArialMT-49"/>
       <use x="166.845703" xlink:href="#ArialMT-54"/>
      </g>
     </g>
    </g>
    <g id="xtick_6">
     <g id="line2d_6">
      <g>
       <use style="stroke:#000000;stroke-width:0.8;" x="230.044993" xlink:href="#m0cd2cb0325" y="230.4"/>
      </g>
     </g>
     <g id="text_6">
      <!-- 2017 -->
      <defs>
       <path d="M 4.734375 62.203125 
L 4.734375 70.65625 
L 51.078125 70.65625 
L 51.078125 63.8125 
Q 44.234375 56.546875 37.515625 44.484375 
Q 30.8125 32.421875 27.15625 19.671875 
Q 24.515625 10.6875 23.78125 0 
L 14.75 0 
Q 14.890625 8.453125 18.0625 20.40625 
Q 21.234375 32.375 27.171875 43.484375 
Q 33.109375 54.59375 39.796875 62.203125 
z
" id="ArialMT-55"/>
      </defs>
      <g transform="translate(220.386798 267.164071)rotate(-45)scale(0.16 -0.16)">
       <use xlink:href="#ArialMT-50"/>
       <use x="55.615234" xlink:href="#ArialMT-48"/>
       <use x="111.230469" xlink:href="#ArialMT-49"/>
       <use x="166.845703" xlink:href="#ArialMT-55"/>
      </g>
     </g>
    </g>
    <g id="xtick_7">
     <g id="line2d_7">
      <g>
       <use style="stroke:#000000;stroke-width:0.8;" x="257.786858" xlink:href="#m0cd2cb0325" y="230.4"/>
      </g>
     </g>
     <g id="text_7">
      <!-- 2018 -->
      <defs>
       <path d="M 17.671875 38.8125 
Q 12.203125 40.828125 9.5625 44.53125 
Q 6.9375 48.25 6.9375 53.421875 
Q 6.9375 61.234375 12.546875 66.546875 
Q 18.171875 71.875 27.484375 71.875 
Q 36.859375 71.875 42.578125 66.421875 
Q 48.296875 60.984375 48.296875 53.171875 
Q 48.296875 48.1875 45.671875 44.5 
Q 43.0625 40.828125 37.75 38.8125 
Q 44.34375 36.671875 47.78125 31.875 
Q 51.21875 27.09375 51.21875 20.453125 
Q 51.21875 11.28125 44.71875 5.03125 
Q 38.234375 -1.21875 27.640625 -1.21875 
Q 17.046875 -1.21875 10.546875 5.046875 
Q 4.046875 11.328125 4.046875 20.703125 
Q 4.046875 27.6875 7.59375 32.390625 
Q 11.140625 37.109375 17.671875 38.8125 
z
M 15.921875 53.71875 
Q 15.921875 48.640625 19.1875 45.40625 
Q 22.46875 42.1875 27.6875 42.1875 
Q 32.765625 42.1875 36.015625 45.375 
Q 39.265625 48.578125 39.265625 53.21875 
Q 39.265625 58.0625 35.90625 61.359375 
Q 32.5625 64.65625 27.59375 64.65625 
Q 22.5625 64.65625 19.234375 61.421875 
Q 15.921875 58.203125 15.921875 53.71875 
z
M 13.09375 20.65625 
Q 13.09375 16.890625 14.875 13.375 
Q 16.65625 9.859375 20.171875 7.921875 
Q 23.6875 6 27.734375 6 
Q 34.03125 6 38.125 10.046875 
Q 42.234375 14.109375 42.234375 20.359375 
Q 42.234375 26.703125 38.015625 30.859375 
Q 33.796875 35.015625 27.4375 35.015625 
Q 21.234375 35.015625 17.15625 30.90625 
Q 13.09375 26.8125 13.09375 20.65625 
z
" id="ArialMT-56"/>
      </defs>
      <g transform="translate(248.128663 267.164071)rotate(-45)scale(0.16 -0.16)">
       <use xlink:href="#ArialMT-50"/>
       <use x="55.615234" xlink:href="#ArialMT-48"/>
       <use x="111.230469" xlink:href="#ArialMT-49"/>
       <use x="166.845703" xlink:href="#ArialMT-56"/>
      </g>
     </g>
    </g>
    <g id="xtick_8">
     <g id="line2d_8">
      <g>
       <use style="stroke:#000000;stroke-width:0.8;" x="285.528723" xlink:href="#m0cd2cb0325" y="230.4"/>
      </g>
     </g>
     <g id="text_8">
      <!-- 2019 -->
      <defs>
       <path d="M 5.46875 16.546875 
L 13.921875 17.328125 
Q 14.984375 11.375 18.015625 8.6875 
Q 21.046875 6 25.78125 6 
Q 29.828125 6 32.875 7.859375 
Q 35.9375 9.71875 37.890625 12.8125 
Q 39.84375 15.921875 41.15625 21.1875 
Q 42.484375 26.46875 42.484375 31.9375 
Q 42.484375 32.515625 42.4375 33.6875 
Q 39.796875 29.5 35.234375 26.875 
Q 30.671875 24.265625 25.34375 24.265625 
Q 16.453125 24.265625 10.296875 30.703125 
Q 4.15625 37.15625 4.15625 47.703125 
Q 4.15625 58.59375 10.578125 65.234375 
Q 17 71.875 26.65625 71.875 
Q 33.640625 71.875 39.421875 68.109375 
Q 45.21875 64.359375 48.21875 57.390625 
Q 51.21875 50.4375 51.21875 37.25 
Q 51.21875 23.53125 48.234375 15.40625 
Q 45.265625 7.28125 39.375 3.03125 
Q 33.5 -1.21875 25.59375 -1.21875 
Q 17.1875 -1.21875 11.859375 3.4375 
Q 6.546875 8.109375 5.46875 16.546875 
z
M 41.453125 48.140625 
Q 41.453125 55.71875 37.421875 60.15625 
Q 33.40625 64.59375 27.734375 64.59375 
Q 21.875 64.59375 17.53125 59.8125 
Q 13.1875 55.03125 13.1875 47.40625 
Q 13.1875 40.578125 17.3125 36.296875 
Q 21.4375 32.03125 27.484375 32.03125 
Q 33.59375 32.03125 37.515625 36.296875 
Q 41.453125 40.578125 41.453125 48.140625 
z
" id="ArialMT-57"/>
      </defs>
      <g transform="translate(275.870528 267.164071)rotate(-45)scale(0.16 -0.16)">
       <use xlink:href="#ArialMT-50"/>
       <use x="55.615234" xlink:href="#ArialMT-48"/>
       <use x="111.230469" xlink:href="#ArialMT-49"/>
       <use x="166.845703" xlink:href="#ArialMT-57"/>
      </g>
     </g>
    </g>
    <g id="xtick_9">
     <g id="line2d_9">
      <g>
       <use style="stroke:#000000;stroke-width:0.8;" x="313.270588" xlink:href="#m0cd2cb0325" y="230.4"/>
      </g>
     </g>
     <g id="text_9">
      <!-- 2020 -->
      <g transform="translate(303.612393 267.164071)rotate(-45)scale(0.16 -0.16)">
       <use xlink:href="#ArialMT-50"/>
       <use x="55.615234" xlink:href="#ArialMT-48"/>
       <use x="111.230469" xlink:href="#ArialMT-50"/>
       <use x="166.845703" xlink:href="#ArialMT-48"/>
      </g>
     </g>
    </g>
    <g id="xtick_10">
     <g id="line2d_10">
      <g>
       <use style="stroke:#000000;stroke-width:0.8;" x="341.088458" xlink:href="#m0cd2cb0325" y="230.4"/>
      </g>
     </g>
     <g id="text_10">
      <!-- 2021 -->
      <g transform="translate(331.430263 267.164071)rotate(-45)scale(0.16 -0.16)">
       <use xlink:href="#ArialMT-50"/>
       <use x="55.615234" xlink:href="#ArialMT-48"/>
       <use x="111.230469" xlink:href="#ArialMT-50"/>
       <use x="166.845703" xlink:href="#ArialMT-49"/>
      </g>
     </g>
    </g>
    <g id="xtick_11">
     <g id="line2d_11">
      <g>
       <use style="stroke:#000000;stroke-width:0.8;" x="368.830323" xlink:href="#m0cd2cb0325" y="230.4"/>
      </g>
     </g>
     <g id="text_11">
      <!-- 2022 -->
      <g transform="translate(359.172128 267.164071)rotate(-45)scale(0.16 -0.16)">
       <use xlink:href="#ArialMT-50"/>
       <use x="55.615234" xlink:href="#ArialMT-48"/>
       <use x="111.230469" xlink:href="#ArialMT-50"/>
       <use x="166.845703" xlink:href="#ArialMT-50"/>
      </g>
     </g>
    </g>
    <g id="text_12">
     <!-- Year -->
     <defs>
      <path d="M 27.875 0 
L 27.875 30.328125 
L 0.296875 71.578125 
L 11.8125 71.578125 
L 25.921875 50 
Q 29.828125 43.953125 33.203125 37.890625 
Q 36.421875 43.5 41.015625 50.53125 
L 54.890625 71.578125 
L 65.921875 71.578125 
L 37.359375 30.328125 
L 37.359375 0 
z
" id="ArialMT-89"/>
      <path d="M 42.09375 16.703125 
L 51.171875 15.578125 
Q 49.03125 7.625 43.21875 3.21875 
Q 37.40625 -1.171875 28.375 -1.171875 
Q 17 -1.171875 10.328125 5.828125 
Q 3.65625 12.84375 3.65625 25.484375 
Q 3.65625 38.578125 10.390625 45.796875 
Q 17.140625 53.03125 27.875 53.03125 
Q 38.28125 53.03125 44.875 45.953125 
Q 51.46875 38.875 51.46875 26.03125 
Q 51.46875 25.25 51.421875 23.6875 
L 12.75 23.6875 
Q 13.234375 15.140625 17.578125 10.59375 
Q 21.921875 6.0625 28.421875 6.0625 
Q 33.25 6.0625 36.671875 8.59375 
Q 40.09375 11.140625 42.09375 16.703125 
z
M 13.234375 30.90625 
L 42.1875 30.90625 
Q 41.609375 37.453125 38.875 40.71875 
Q 34.671875 45.796875 27.984375 45.796875 
Q 21.921875 45.796875 17.796875 41.75 
Q 13.671875 37.703125 13.234375 30.90625 
z
" id="ArialMT-101"/>
      <path d="M 40.4375 6.390625 
Q 35.546875 2.25 31.03125 0.53125 
Q 26.515625 -1.171875 21.34375 -1.171875 
Q 12.796875 -1.171875 8.203125 3 
Q 3.609375 7.171875 3.609375 13.671875 
Q 3.609375 17.484375 5.34375 20.625 
Q 7.078125 23.78125 9.890625 25.6875 
Q 12.703125 27.59375 16.21875 28.5625 
Q 18.796875 29.25 24.03125 29.890625 
Q 34.671875 31.15625 39.703125 32.90625 
Q 39.75 34.71875 39.75 35.203125 
Q 39.75 40.578125 37.25 42.78125 
Q 33.890625 45.75 27.25 45.75 
Q 21.046875 45.75 18.09375 43.578125 
Q 15.140625 41.40625 13.71875 35.890625 
L 5.125 37.0625 
Q 6.296875 42.578125 8.984375 45.96875 
Q 11.671875 49.359375 16.75 51.1875 
Q 21.828125 53.03125 28.515625 53.03125 
Q 35.15625 53.03125 39.296875 51.46875 
Q 43.453125 49.90625 45.40625 47.53125 
Q 47.359375 45.171875 48.140625 41.546875 
Q 48.578125 39.3125 48.578125 33.453125 
L 48.578125 21.734375 
Q 48.578125 9.46875 49.140625 6.21875 
Q 49.703125 2.984375 51.375 0 
L 42.1875 0 
Q 40.828125 2.734375 40.4375 6.390625 
z
M 39.703125 26.03125 
Q 34.90625 24.078125 25.34375 22.703125 
Q 19.921875 21.921875 17.671875 20.9375 
Q 15.4375 19.96875 14.203125 18.09375 
Q 12.984375 16.21875 12.984375 13.921875 
Q 12.984375 10.40625 15.640625 8.0625 
Q 18.3125 5.71875 23.4375 5.71875 
Q 28.515625 5.71875 32.46875 7.9375 
Q 36.421875 10.15625 38.28125 14.015625 
Q 39.703125 17 39.703125 22.796875 
z
" id="ArialMT-97"/>
      <path d="M 6.5 0 
L 6.5 51.859375 
L 14.40625 51.859375 
L 14.40625 44 
Q 17.4375 49.515625 20 51.265625 
Q 22.5625 53.03125 25.640625 53.03125 
Q 30.078125 53.03125 34.671875 50.203125 
L 31.640625 42.046875 
Q 28.421875 43.953125 25.203125 43.953125 
Q 22.3125 43.953125 20.015625 42.21875 
Q 17.71875 40.484375 16.75 37.40625 
Q 15.28125 32.71875 15.28125 27.15625 
L 15.28125 0 
z
" id="ArialMT-114"/>
     </defs>
     <g transform="translate(206.624531 283.433608)scale(0.14 -0.14)">
      <use xlink:href="#ArialMT-89"/>
      <use x="66.558594" xlink:href="#ArialMT-101"/>
      <use x="122.173828" xlink:href="#ArialMT-97"/>
      <use x="177.789062" xlink:href="#ArialMT-114"/>
     </g>
    </g>
   </g>
   <g id="matplotlib.axis_2">
    <g id="ytick_1">
     <g id="line2d_12">
      <defs>
       <path d="M 0 0 
L 3.5 0 
" id="m658a3d21c4" style="stroke:#000000;stroke-width:0.8;"/>
      </defs>
      <g>
       <use style="stroke:#000000;stroke-width:0.8;" x="54" xlink:href="#m658a3d21c4" y="221.498182"/>
      </g>
     </g>
     <g id="text_13">
      <!-- 0 -->
      <g transform="translate(41.6025 227.224432)scale(0.16 -0.16)">
       <use xlink:href="#ArialMT-48"/>
      </g>
     </g>
    </g>
    <g id="ytick_2">
     <g id="line2d_13">
      <g>
       <use style="stroke:#000000;stroke-width:0.8;" x="54" xlink:href="#m658a3d21c4" y="156.450186"/>
      </g>
     </g>
     <g id="text_14">
      <!-- 1000 -->
      <g transform="translate(14.91 162.176436)scale(0.16 -0.16)">
       <use xlink:href="#ArialMT-49"/>
       <use x="55.615234" xlink:href="#ArialMT-48"/>
       <use x="111.230469" xlink:href="#ArialMT-48"/>
       <use x="166.845703" xlink:href="#ArialMT-48"/>
      </g>
     </g>
    </g>
    <g id="ytick_3">
     <g id="line2d_14">
      <g>
       <use style="stroke:#000000;stroke-width:0.8;" x="54" xlink:href="#m658a3d21c4" y="91.402191"/>
      </g>
     </g>
     <g id="text_15">
      <!-- 2000 -->
      <g transform="translate(14.91 97.128441)scale(0.16 -0.16)">
       <use xlink:href="#ArialMT-50"/>
       <use x="55.615234" xlink:href="#ArialMT-48"/>
       <use x="111.230469" xlink:href="#ArialMT-48"/>
       <use x="166.845703" xlink:href="#ArialMT-48"/>
      </g>
     </g>
    </g>
    <g id="ytick_4">
     <g id="line2d_15">
      <defs>
       <path d="M 0 0 
L 2 0 
" id="ma87078eb79" style="stroke:#000000;stroke-width:0.6;"/>
      </defs>
      <g>
       <use style="stroke:#000000;stroke-width:0.6;" x="54" xlink:href="#ma87078eb79" y="228.002981"/>
      </g>
     </g>
    </g>
    <g id="ytick_5">
     <g id="line2d_16">
      <g>
       <use style="stroke:#000000;stroke-width:0.6;" x="54" xlink:href="#ma87078eb79" y="214.993382"/>
      </g>
     </g>
    </g>
    <g id="ytick_6">
     <g id="line2d_17">
      <g>
       <use style="stroke:#000000;stroke-width:0.6;" x="54" xlink:href="#ma87078eb79" y="208.488583"/>
      </g>
     </g>
    </g>
    <g id="ytick_7">
     <g id="line2d_18">
      <g>
       <use style="stroke:#000000;stroke-width:0.6;" x="54" xlink:href="#ma87078eb79" y="201.983783"/>
      </g>
     </g>
    </g>
    <g id="ytick_8">
     <g id="line2d_19">
      <g>
       <use style="stroke:#000000;stroke-width:0.6;" x="54" xlink:href="#ma87078eb79" y="195.478984"/>
      </g>
     </g>
    </g>
    <g id="ytick_9">
     <g id="line2d_20">
      <g>
       <use style="stroke:#000000;stroke-width:0.6;" x="54" xlink:href="#ma87078eb79" y="188.974184"/>
      </g>
     </g>
    </g>
    <g id="ytick_10">
     <g id="line2d_21">
      <g>
       <use style="stroke:#000000;stroke-width:0.6;" x="54" xlink:href="#ma87078eb79" y="182.469385"/>
      </g>
     </g>
    </g>
    <g id="ytick_11">
     <g id="line2d_22">
      <g>
       <use style="stroke:#000000;stroke-width:0.6;" x="54" xlink:href="#ma87078eb79" y="175.964585"/>
      </g>
     </g>
    </g>
    <g id="ytick_12">
     <g id="line2d_23">
      <g>
       <use style="stroke:#000000;stroke-width:0.6;" x="54" xlink:href="#ma87078eb79" y="169.459785"/>
      </g>
     </g>
    </g>
    <g id="ytick_13">
     <g id="line2d_24">
      <g>
       <use style="stroke:#000000;stroke-width:0.6;" x="54" xlink:href="#ma87078eb79" y="162.954986"/>
      </g>
     </g>
    </g>
    <g id="ytick_14">
     <g id="line2d_25">
      <g>
       <use style="stroke:#000000;stroke-width:0.6;" x="54" xlink:href="#ma87078eb79" y="149.945387"/>
      </g>
     </g>
    </g>
    <g id="ytick_15">
     <g id="line2d_26">
      <g>
       <use style="stroke:#000000;stroke-width:0.6;" x="54" xlink:href="#ma87078eb79" y="143.440587"/>
      </g>
     </g>
    </g>
    <g id="ytick_16">
     <g id="line2d_27">
      <g>
       <use style="stroke:#000000;stroke-width:0.6;" x="54" xlink:href="#ma87078eb79" y="136.935788"/>
      </g>
     </g>
    </g>
    <g id="ytick_17">
     <g id="line2d_28">
      <g>
       <use style="stroke:#000000;stroke-width:0.6;" x="54" xlink:href="#ma87078eb79" y="130.430988"/>
      </g>
     </g>
    </g>
    <g id="ytick_18">
     <g id="line2d_29">
      <g>
       <use style="stroke:#000000;stroke-width:0.6;" x="54" xlink:href="#ma87078eb79" y="123.926189"/>
      </g>
     </g>
    </g>
    <g id="ytick_19">
     <g id="line2d_30">
      <g>
       <use style="stroke:#000000;stroke-width:0.6;" x="54" xlink:href="#ma87078eb79" y="117.421389"/>
      </g>
     </g>
    </g>
    <g id="ytick_20">
     <g id="line2d_31">
      <g>
       <use style="stroke:#000000;stroke-width:0.6;" x="54" xlink:href="#ma87078eb79" y="110.916589"/>
      </g>
     </g>
    </g>
    <g id="ytick_21">
     <g id="line2d_32">
      <g>
       <use style="stroke:#000000;stroke-width:0.6;" x="54" xlink:href="#ma87078eb79" y="104.41179"/>
      </g>
     </g>
    </g>
    <g id="ytick_22">
     <g id="line2d_33">
      <g>
       <use style="stroke:#000000;stroke-width:0.6;" x="54" xlink:href="#ma87078eb79" y="97.90699"/>
      </g>
     </g>
    </g>
    <g id="ytick_23">
     <g id="line2d_34">
      <g>
       <use style="stroke:#000000;stroke-width:0.6;" x="54" xlink:href="#ma87078eb79" y="84.897391"/>
      </g>
     </g>
    </g>
    <g id="ytick_24">
     <g id="line2d_35">
      <g>
       <use style="stroke:#000000;stroke-width:0.6;" x="54" xlink:href="#ma87078eb79" y="78.392592"/>
      </g>
     </g>
    </g>
    <g id="ytick_25">
     <g id="line2d_36">
      <g>
       <use style="stroke:#000000;stroke-width:0.6;" x="54" xlink:href="#ma87078eb79" y="71.887792"/>
      </g>
     </g>
    </g>
    <g id="ytick_26">
     <g id="line2d_37">
      <g>
       <use style="stroke:#000000;stroke-width:0.6;" x="54" xlink:href="#ma87078eb79" y="65.382993"/>
      </g>
     </g>
    </g>
    <g id="ytick_27">
     <g id="line2d_38">
      <g>
       <use style="stroke:#000000;stroke-width:0.6;" x="54" xlink:href="#ma87078eb79" y="58.878193"/>
      </g>
     </g>
    </g>
    <g id="ytick_28">
     <g id="line2d_39">
      <g>
       <use style="stroke:#000000;stroke-width:0.6;" x="54" xlink:href="#ma87078eb79" y="52.373394"/>
      </g>
     </g>
    </g>
    <g id="ytick_29">
     <g id="line2d_40">
      <g>
       <use style="stroke:#000000;stroke-width:0.6;" x="54" xlink:href="#ma87078eb79" y="45.868594"/>
      </g>
     </g>
    </g>
    <g id="ytick_30">
     <g id="line2d_41">
      <g>
       <use style="stroke:#000000;stroke-width:0.6;" x="54" xlink:href="#ma87078eb79" y="39.363794"/>
      </g>
     </g>
    </g>
    <g id="text_16">
     <!-- Number of Samples -->
     <defs>
      <path d="M 7.625 0 
L 7.625 71.578125 
L 17.328125 71.578125 
L 54.9375 15.375 
L 54.9375 71.578125 
L 64.015625 71.578125 
L 64.015625 0 
L 54.296875 0 
L 16.703125 56.25 
L 16.703125 0 
z
" id="ArialMT-78"/>
      <path d="M 40.578125 0 
L 40.578125 7.625 
Q 34.515625 -1.171875 24.125 -1.171875 
Q 19.53125 -1.171875 15.546875 0.578125 
Q 11.578125 2.34375 9.640625 5 
Q 7.71875 7.671875 6.9375 11.53125 
Q 6.390625 14.109375 6.390625 19.734375 
L 6.390625 51.859375 
L 15.1875 51.859375 
L 15.1875 23.09375 
Q 15.1875 16.21875 15.71875 13.8125 
Q 16.546875 10.359375 19.234375 8.375 
Q 21.921875 6.390625 25.875 6.390625 
Q 29.828125 6.390625 33.296875 8.421875 
Q 36.765625 10.453125 38.203125 13.9375 
Q 39.65625 17.4375 39.65625 24.078125 
L 39.65625 51.859375 
L 48.4375 51.859375 
L 48.4375 0 
z
" id="ArialMT-117"/>
      <path d="M 6.59375 0 
L 6.59375 51.859375 
L 14.453125 51.859375 
L 14.453125 44.578125 
Q 16.890625 48.390625 20.9375 50.703125 
Q 25 53.03125 30.171875 53.03125 
Q 35.9375 53.03125 39.625 50.640625 
Q 43.3125 48.25 44.828125 43.953125 
Q 50.984375 53.03125 60.84375 53.03125 
Q 68.5625 53.03125 72.703125 48.75 
Q 76.859375 44.484375 76.859375 35.59375 
L 76.859375 0 
L 68.109375 0 
L 68.109375 32.671875 
Q 68.109375 37.9375 67.25 40.25 
Q 66.40625 42.578125 64.15625 43.984375 
Q 61.921875 45.40625 58.890625 45.40625 
Q 53.421875 45.40625 49.796875 41.765625 
Q 46.1875 38.140625 46.1875 30.125 
L 46.1875 0 
L 37.40625 0 
L 37.40625 33.6875 
Q 37.40625 39.546875 35.25 42.46875 
Q 33.109375 45.40625 28.21875 45.40625 
Q 24.515625 45.40625 21.359375 43.453125 
Q 18.21875 41.5 16.796875 37.734375 
Q 15.375 33.984375 15.375 26.90625 
L 15.375 0 
z
" id="ArialMT-109"/>
      <path d="M 14.703125 0 
L 6.546875 0 
L 6.546875 71.578125 
L 15.328125 71.578125 
L 15.328125 46.046875 
Q 20.90625 53.03125 29.546875 53.03125 
Q 34.328125 53.03125 38.59375 51.09375 
Q 42.875 49.171875 45.625 45.671875 
Q 48.390625 42.1875 49.953125 37.25 
Q 51.515625 32.328125 51.515625 26.703125 
Q 51.515625 13.375 44.921875 6.09375 
Q 38.328125 -1.171875 29.109375 -1.171875 
Q 19.921875 -1.171875 14.703125 6.5 
z
M 14.59375 26.3125 
Q 14.59375 17 17.140625 12.84375 
Q 21.296875 6.0625 28.375 6.0625 
Q 34.125 6.0625 38.328125 11.0625 
Q 42.53125 16.0625 42.53125 25.984375 
Q 42.53125 36.140625 38.5 40.96875 
Q 34.46875 45.796875 28.765625 45.796875 
Q 23 45.796875 18.796875 40.796875 
Q 14.59375 35.796875 14.59375 26.3125 
z
" id="ArialMT-98"/>
      <path id="ArialMT-32"/>
      <path d="M 3.328125 25.921875 
Q 3.328125 40.328125 11.328125 47.265625 
Q 18.015625 53.03125 27.640625 53.03125 
Q 38.328125 53.03125 45.109375 46.015625 
Q 51.90625 39.015625 51.90625 26.65625 
Q 51.90625 16.65625 48.90625 10.90625 
Q 45.90625 5.171875 40.15625 2 
Q 34.421875 -1.171875 27.640625 -1.171875 
Q 16.75 -1.171875 10.03125 5.8125 
Q 3.328125 12.796875 3.328125 25.921875 
z
M 12.359375 25.921875 
Q 12.359375 15.96875 16.703125 11.015625 
Q 21.046875 6.0625 27.640625 6.0625 
Q 34.1875 6.0625 38.53125 11.03125 
Q 42.875 16.015625 42.875 26.21875 
Q 42.875 35.84375 38.5 40.796875 
Q 34.125 45.75 27.640625 45.75 
Q 21.046875 45.75 16.703125 40.8125 
Q 12.359375 35.890625 12.359375 25.921875 
z
" id="ArialMT-111"/>
      <path d="M 8.6875 0 
L 8.6875 45.015625 
L 0.921875 45.015625 
L 0.921875 51.859375 
L 8.6875 51.859375 
L 8.6875 57.375 
Q 8.6875 62.59375 9.625 65.140625 
Q 10.890625 68.5625 14.078125 70.671875 
Q 17.28125 72.796875 23.046875 72.796875 
Q 26.765625 72.796875 31.25 71.921875 
L 29.9375 64.265625 
Q 27.203125 64.75 24.75 64.75 
Q 20.75 64.75 19.09375 63.03125 
Q 17.4375 61.328125 17.4375 56.640625 
L 17.4375 51.859375 
L 27.546875 51.859375 
L 27.546875 45.015625 
L 17.4375 45.015625 
L 17.4375 0 
z
" id="ArialMT-102"/>
      <path d="M 4.5 23 
L 13.421875 23.78125 
Q 14.0625 18.40625 16.375 14.96875 
Q 18.703125 11.53125 23.578125 9.40625 
Q 28.46875 7.28125 34.578125 7.28125 
Q 39.984375 7.28125 44.140625 8.890625 
Q 48.296875 10.5 50.3125 13.296875 
Q 52.34375 16.109375 52.34375 19.4375 
Q 52.34375 22.796875 50.390625 25.3125 
Q 48.4375 27.828125 43.953125 29.546875 
Q 41.0625 30.671875 31.203125 33.03125 
Q 21.34375 35.40625 17.390625 37.5 
Q 12.25 40.1875 9.734375 44.15625 
Q 7.234375 48.140625 7.234375 53.078125 
Q 7.234375 58.5 10.296875 63.203125 
Q 13.375 67.921875 19.28125 70.359375 
Q 25.203125 72.796875 32.421875 72.796875 
Q 40.375 72.796875 46.453125 70.234375 
Q 52.546875 67.671875 55.8125 62.6875 
Q 59.078125 57.71875 59.328125 51.421875 
L 50.25 50.734375 
Q 49.515625 57.515625 45.28125 60.984375 
Q 41.0625 64.453125 32.8125 64.453125 
Q 24.21875 64.453125 20.28125 61.296875 
Q 16.359375 58.15625 16.359375 53.71875 
Q 16.359375 49.859375 19.140625 47.359375 
Q 21.875 44.875 33.421875 42.265625 
Q 44.96875 39.65625 49.265625 37.703125 
Q 55.515625 34.8125 58.484375 30.390625 
Q 61.46875 25.984375 61.46875 20.21875 
Q 61.46875 14.5 58.203125 9.4375 
Q 54.9375 4.390625 48.796875 1.578125 
Q 42.671875 -1.21875 35.015625 -1.21875 
Q 25.296875 -1.21875 18.71875 1.609375 
Q 12.15625 4.4375 8.421875 10.125 
Q 4.6875 15.828125 4.5 23 
z
" id="ArialMT-83"/>
      <path d="M 6.59375 -19.875 
L 6.59375 51.859375 
L 14.59375 51.859375 
L 14.59375 45.125 
Q 17.4375 49.078125 21 51.046875 
Q 24.5625 53.03125 29.640625 53.03125 
Q 36.28125 53.03125 41.359375 49.609375 
Q 46.4375 46.1875 49.015625 39.953125 
Q 51.609375 33.734375 51.609375 26.3125 
Q 51.609375 18.359375 48.75 11.984375 
Q 45.90625 5.609375 40.453125 2.21875 
Q 35.015625 -1.171875 29 -1.171875 
Q 24.609375 -1.171875 21.109375 0.6875 
Q 17.625 2.546875 15.375 5.375 
L 15.375 -19.875 
z
M 14.546875 25.640625 
Q 14.546875 15.625 18.59375 10.84375 
Q 22.65625 6.0625 28.421875 6.0625 
Q 34.28125 6.0625 38.453125 11.015625 
Q 42.625 15.96875 42.625 26.375 
Q 42.625 36.28125 38.546875 41.203125 
Q 34.46875 46.140625 28.8125 46.140625 
Q 23.1875 46.140625 18.859375 40.890625 
Q 14.546875 35.640625 14.546875 25.640625 
z
" id="ArialMT-112"/>
      <path d="M 6.390625 0 
L 6.390625 71.578125 
L 15.1875 71.578125 
L 15.1875 0 
z
" id="ArialMT-108"/>
      <path d="M 3.078125 15.484375 
L 11.765625 16.84375 
Q 12.5 11.625 15.84375 8.84375 
Q 19.1875 6.0625 25.203125 6.0625 
Q 31.25 6.0625 34.171875 8.515625 
Q 37.109375 10.984375 37.109375 14.3125 
Q 37.109375 17.28125 34.515625 19 
Q 32.71875 20.171875 25.53125 21.96875 
Q 15.875 24.421875 12.140625 26.203125 
Q 8.40625 27.984375 6.46875 31.125 
Q 4.546875 34.28125 4.546875 38.09375 
Q 4.546875 41.546875 6.125 44.5 
Q 7.71875 47.46875 10.453125 49.421875 
Q 12.5 50.921875 16.03125 51.96875 
Q 19.578125 53.03125 23.640625 53.03125 
Q 29.734375 53.03125 34.34375 51.265625 
Q 38.96875 49.515625 41.15625 46.5 
Q 43.359375 43.5 44.1875 38.484375 
L 35.59375 37.3125 
Q 35.015625 41.3125 32.203125 43.546875 
Q 29.390625 45.796875 24.265625 45.796875 
Q 18.21875 45.796875 15.625 43.796875 
Q 13.03125 41.796875 13.03125 39.109375 
Q 13.03125 37.40625 14.109375 36.03125 
Q 15.1875 34.625 17.484375 33.6875 
Q 18.796875 33.203125 25.25 31.453125 
Q 34.578125 28.953125 38.25 27.359375 
Q 41.9375 25.78125 44.03125 22.75 
Q 46.140625 19.734375 46.140625 15.234375 
Q 46.140625 10.84375 43.578125 6.953125 
Q 41.015625 3.078125 36.171875 0.953125 
Q 31.34375 -1.171875 25.25 -1.171875 
Q 15.140625 -1.171875 9.84375 3.03125 
Q 4.546875 7.234375 3.078125 15.484375 
z
" id="ArialMT-115"/>
     </defs>
     <g transform="translate(8.1275 194.334844)rotate(-90)scale(0.14 -0.14)">
      <use xlink:href="#ArialMT-78"/>
      <use x="72.216797" xlink:href="#ArialMT-117"/>
      <use x="127.832031" xlink:href="#ArialMT-109"/>
      <use x="211.132812" xlink:href="#ArialMT-98"/>
      <use x="266.748047" xlink:href="#ArialMT-101"/>
      <use x="322.363281" xlink:href="#ArialMT-114"/>
      <use x="355.664062" xlink:href="#ArialMT-32"/>
      <use x="383.447266" xlink:href="#ArialMT-111"/>
      <use x="439.0625" xlink:href="#ArialMT-102"/>
      <use x="466.845703" xlink:href="#ArialMT-32"/>
      <use x="494.628906" xlink:href="#ArialMT-83"/>
      <use x="561.328125" xlink:href="#ArialMT-97"/>
      <use x="616.943359" xlink:href="#ArialMT-109"/>
      <use x="700.244141" xlink:href="#ArialMT-112"/>
      <use x="755.859375" xlink:href="#ArialMT-108"/>
      <use x="778.076172" xlink:href="#ArialMT-101"/>
      <use x="833.691406" xlink:href="#ArialMT-115"/>
     </g>
    </g>
   </g>
   <g id="line2d_42">
    <path clip-path="url(#p38173f5fa0)" d="M 69.218182 219.806934 
L 69.218183 218.896262 
L 153.126208 218.63607 
L 153.159446 216.35939 
L 153.697173 215.969102 
L 156.474862 215.70891 
L 156.855647 215.123478 
L 162.793954 213.041942 
L 165.541226 212.586606 
L 165.541227 212.261366 
L 168.419385 212.066222 
L 170.013915 211.285647 
L 172.298922 211.090503 
L 174.884092 210.635167 
L 179.292449 210.244879 
L 183.546981 209.594399 
L 185.56617 208.683727 
L 185.566172 206.472095 
L 185.977728 204.910943 
L 189.155744 204.780847 
L 189.203987 203.154647 
L 189.23835 201.138159 
L 189.855452 200.943015 
L 189.855922 198.276047 
L 192.973715 197.23528 
L 195.249713 196.975088 
L 199.635374 196.844992 
L 199.635389 196.779944 
L 202.455268 196.519752 
L 202.62063 196.25956 
L 203.229674 195.999368 
L 203.30463 195.478984 
L 203.906093 195.088696 
L 208.498721 194.763456 
L 208.93148 194.243072 
L 210.98067 194.178024 
L 211.66534 193.917832 
L 211.665341 193.137256 
L 211.842946 192.35668 
L 212.983022 192.096488 
L 213.416262 191.7062 
L 215.947221 191.641152 
L 216.454161 190.73048 
L 218.47718 190.275144 
L 218.477186 190.210096 
L 220.011062 189.949904 
L 221.983852 189.819808 
L 221.984316 189.624664 
L 222.154414 189.234376 
L 224.207356 189.10428 
L 225.575476 185.981976 
L 226.411707 185.85188 
L 226.411709 185.721784 
L 231.710392 185.331496 
L 231.960139 185.2014 
L 235.114654 185.006256 
L 235.685543 184.22568 
L 236.216368 183.835392 
L 237.860612 183.705296 
L 237.864826 183.640248 
L 238.187487 183.510152 
L 238.191974 183.380056 
L 241.839757 183.119864 
L 242.449574 182.729577 
L 242.981409 181.558713 
L 244.593448 180.713089 
L 248.050896 180.452897 
L 248.050896 179.932513 
L 249.593631 179.542225 
L 250.046943 179.151937 
L 254.229946 178.761649 
L 254.231848 177.850977 
L 256.785602 177.200497 
L 256.827495 175.834489 
L 257.302984 175.704393 
L 257.750183 175.118961 
L 257.855018 173.948097 
L 258.966126 173.883049 
L 258.966127 173.427713 
L 260.085829 172.647137 
L 260.434627 172.126753 
L 260.434628 171.606369 
L 260.857437 171.476273 
L 261.069454 170.890841 
L 262.285242 170.695697 
L 262.285244 169.785025 
L 262.447422 169.654929 
L 262.447633 169.004449 
L 263.85795 168.744257 
L 264.744995 168.35397 
L 266.872682 168.02873 
L 266.872683 167.248154 
L 267.537656 165.491858 
L 267.603971 163.085082 
L 268.44111 163.020034 
L 268.441431 162.82489 
L 268.590429 162.759842 
L 268.595867 161.19869 
L 270.473926 160.938498 
L 270.473927 160.288018 
L 271.71113 159.767634 
L 272.597507 158.791914 
L 272.597508 158.466674 
L 273.185148 158.336578 
L 273.81646 157.94629 
L 275.359589 157.556002 
L 278.100151 157.230762 
L 278.100153 155.99485 
L 281.094904 155.409418 
L 281.20928 154.36865 
L 281.814823 153.718171 
L 281.831205 152.807499 
L 281.978571 152.677403 
L 281.985537 150.205579 
L 282.276998 149.880339 
L 283.542183 149.099763 
L 285.492998 148.449283 
L 285.605814 147.408515 
L 286.826612 144.676499 
L 286.836254 144.091067 
L 288.106751 143.375539 
L 288.129341 142.790107 
L 289.876524 142.399819 
L 290.794849 141.944483 
L 290.823453 138.82218 
L 291.019116 135.764924 
L 291.054264 135.049396 
L 292.006051 134.854252 
L 292.434157 134.463964 
L 295.118055 134.073676 
L 297.856102 133.553292 
L 299.512317 133.423196 
L 299.576979 132.772716 
L 300.044669 132.64262 
L 300.103151 132.31738 
L 303.572149 131.731948 
L 303.647048 130.821276 
L 303.715823 130.561084 
L 304.164512 130.170796 
L 304.287832 129.39022 
L 306.341525 128.804788 
L 306.51208 126.658204 
L 306.534877 126.202868 
L 306.851452 125.942676 
L 306.851454 124.056285 
L 307.278684 123.991237 
L 307.278685 123.535901 
L 307.813448 123.405805 
L 307.813449 122.950469 
L 308.649337 122.039797 
L 308.680456 121.259221 
L 309.41236 120.673789 
L 309.716669 119.502925 
L 310.827521 118.527205 
L 311.060538 118.136917 
L 313.748246 117.161197 
L 313.855941 116.640813 
L 313.873587 116.250525 
L 313.875227 116.120429 
L 315.334943 115.990333 
L 315.335049 115.730141 
L 315.625887 114.559277 
L 317.102906 114.299085 
L 318.075468 113.518509 
L 319.216082 112.933077 
L 319.672928 112.542789 
L 321.876775 110.916589 
L 321.952372 110.59135 
L 321.952373 107.794286 
L 322.330842 107.599142 
L 322.330843 107.403998 
L 323.208278 106.948662 
L 324.196297 106.103038 
L 324.19669 104.606934 
L 324.383043 104.541886 
L 324.554962 103.826358 
L 324.555066 103.501118 
L 324.786651 102.525398 
L 325.5181 102.46035 
L 325.519695 100.573958 
L 327.1198 100.053574 
L 327.476141 98.23223 
L 327.860185 98.102134 
L 328.581581 97.972038 
L 328.582176 97.58175 
L 329.617695 97.516702 
L 329.617695 93.483727 
L 330.066377 93.223535 
L 331.805411 93.158487 
L 331.833171 91.662383 
L 332.364923 91.141999 
L 332.440808 90.491519 
L 334.69825 90.361423 
L 334.721525 89.450751 
L 335.466561 89.060463 
L 335.467088 88.735223 
L 336.02357 88.670175 
L 336.023977 88.214839 
L 336.540399 87.824551 
L 337.091153 87.629407 
L 337.91055 87.369215 
L 338.619485 86.783783 
L 339.190804 85.222631 
L 340.163624 84.962439 
L 340.376045 84.181863 
L 340.376048 83.010999 
L 340.802459 82.620711 
L 343.393989 82.360519 
L 344.224501 81.970232 
L 344.301206 81.514896 
L 344.301207 80.799368 
L 345.046968 79.7586 
L 346.275302 79.173168 
L 346.62093 77.612016 
L 346.812551 77.221728 
L 347.330797 77.15668 
L 347.339351 76.571248 
L 347.464812 76.376104 
L 348.00723 76.050864 
L 348.007231 75.725624 
L 348.272143 75.400384 
L 348.847267 75.270288 
L 348.870845 73.969328 
L 349.578456 73.839232 
L 351.060032 73.709136 
L 351.194814 72.668368 
L 351.724393 71.6276 
L 352.529657 70.65188 
L 352.529658 70.32664 
L 353.119635 69.936352 
L 354.811474 69.090728 
L 354.86151 65.122801 
L 355.831418 64.862609 
L 355.833537 64.147081 
L 357.925516 63.366505 
L 358.065139 63.106313 
L 358.065516 62.781073 
L 358.680355 62.455833 
L 360.616795 61.024777 
L 360.849861 60.634489 
L 361.916045 60.504393 
L 361.916046 60.244201 
L 362.372348 59.138385 
L 362.372349 58.683049 
L 362.48544 58.552953 
L 363.282817 58.292761 
L 363.625203 57.902473 
L 364.340435 57.772377 
L 364.748442 54.650073 
L 364.756907 50.747194 
L 365.059387 50.487002 
L 366.417957 49.511282 
L 366.467932 48.470514 
L 367.636553 48.145274 
L 367.732267 47.754986 
L 368.726372 47.364698 
L 368.726494 46.584122 
L 369.104867 45.803546 
L 370.229112 45.738498 
L 370.268453 45.283162 
L 370.370908 44.892874 
L 371.083663 44.502586 
L 371.2451 43.656962 
L 373.029632 43.461818 
L 373.029632 43.461818 
" style="fill:none;stroke:#6e9a44;stroke-linecap:square;stroke-width:1.5;"/>
   </g>
   <g id="line2d_43">
    <path clip-path="url(#p38173f5fa0)" d="M 69.218182 221.433134 
L 174.884089 221.23799 
L 202.620623 221.107894 
L 208.931475 220.58751 
L 211.665336 220.327318 
L 212.727877 220.197222 
L 218.477136 220.132174 
L 221.983769 220.067126 
L 221.983822 220.002078 
L 221.983875 219.93703 
L 221.984086 219.871982 
L 221.984297 219.806934 
L 225.575433 216.68463 
L 226.4117 216.554534 
L 231.960126 216.424438 
L 235.114602 216.229294 
L 235.383259 216.099198 
L 249.593628 215.70891 
L 254.229939 215.318622 
L 254.230045 214.928334 
L 256.785558 214.538046 
L 256.827467 214.342902 
L 260.434595 213.302134 
L 261.069449 212.716702 
L 262.447464 212.586606 
L 262.447517 212.391462 
L 262.447622 212.326414 
L 266.87265 211.220599 
L 267.176196 210.765263 
L 268.595433 210.374975 
L 268.595855 210.309927 
L 280.224479 209.919639 
L 281.978771 209.854591 
L 281.978824 209.789543 
L 281.978835 209.724495 
L 281.980724 209.659447 
L 281.981727 209.594399 
L 281.983733 209.269159 
L 281.983745 209.074015 
L 281.984525 208.943919 
L 281.984545 208.878871 
L 281.984841 208.813823 
L 281.985527 208.748775 
L 285.605324 208.358487 
L 286.826578 208.098295 
L 288.129327 207.512863 
L 289.876494 207.122575 
L 290.794836 206.667239 
L 290.794889 206.537143 
L 290.818828 205.626471 
L 291.054257 205.431327 
L 292.434119 205.041039 
L 295.118049 204.650751 
L 297.85608 204.260463 
L 299.576963 203.870175 
L 306.851443 201.723591 
L 308.680422 201.333303 
L 309.716625 200.943015 
L 315.513915 200.162439 
L 321.952339 197.040136 
L 322.330842 196.844992 
L 322.330843 196.649848 
L 324.196284 196.064416 
L 324.196297 195.93432 
L 324.196298 195.674128 
L 324.196548 195.28384 
L 324.196583 194.893552 
L 324.19669 194.63336 
L 324.534402 194.112976 
L 324.554934 193.917832 
L 324.555039 193.592592 
L 331.805399 192.812016 
L 339.190804 192.03144 
L 340.163586 191.771248 
L 340.37603 191.38096 
L 344.301167 190.990672 
L 345.046967 189.949904 
L 346.275294 189.364472 
L 346.812502 188.974184 
L 373.581818 183.965488 
" style="fill:none;stroke:#3d9690;stroke-linecap:square;stroke-width:1.5;"/>
   </g>
   <g id="patch_3">
    <path d="M 54 230.4 
L 54 34.56 
" style="fill:none;stroke:#000000;stroke-linecap:square;stroke-linejoin:miter;stroke-width:0.8;"/>
   </g>
   <g id="patch_4">
    <path d="M 388.8 230.4 
L 388.8 34.56 
" style="fill:none;stroke:#000000;stroke-linecap:square;stroke-linejoin:miter;stroke-width:0.8;"/>
   </g>
   <g id="patch_5">
    <path d="M 54 230.4 
L 388.8 230.4 
" style="fill:none;stroke:#000000;stroke-linecap:square;stroke-linejoin:miter;stroke-width:0.8;"/>
   </g>
   <g id="patch_6">
    <path d="M 54 34.56 
L 388.8 34.56 
" style="fill:none;stroke:#000000;stroke-linecap:square;stroke-linejoin:miter;stroke-width:0.8;"/>
   </g>
   <g id="legend_1">
    <g id="patch_7">
     <path d="M 63.8 86.034063 
L 248.18 86.034063 
Q 250.98 86.034063 250.98 83.234062 
L 250.98 44.36 
Q 250.98 41.56 248.18 41.56 
L 63.8 41.56 
Q 61 41.56 61 44.36 
L 61 83.234062 
Q 61 86.034063 63.8 86.034063 
z
" style="fill:#ffffff;opacity:0.8;stroke:#cccccc;stroke-linejoin:miter;"/>
    </g>
    <g id="line2d_44">
     <path d="M 66.6 52.76 
L 94.6 52.76 
" style="fill:none;stroke:#6e9a44;stroke-linecap:square;stroke-width:1.5;"/>
    </g>
    <g id="line2d_45"/>
    <g id="text_17">
     <!-- All $\it{S. aureus}$ samples -->
     <defs>
      <path d="M -0.140625 0 
L 27.34375 71.578125 
L 37.546875 71.578125 
L 66.84375 0 
L 56.0625 0 
L 47.703125 21.6875 
L 17.78125 21.6875 
L 9.90625 0 
z
M 20.515625 29.390625 
L 44.78125 29.390625 
L 37.3125 49.21875 
Q 33.890625 58.25 32.234375 64.0625 
Q 30.859375 57.171875 28.375 50.390625 
z
" id="ArialMT-65"/>
      <path d="M 60.296875 70.515625 
L 58.40625 60.890625 
Q 53.46875 63.53125 48.609375 64.875 
Q 43.75 66.21875 39.203125 66.21875 
Q 30.375 66.21875 25.140625 62.359375 
Q 19.921875 58.5 19.921875 52.09375 
Q 19.921875 48.578125 21.84375 46.703125 
Q 23.78125 44.828125 31.78125 42.671875 
L 37.703125 41.21875 
Q 47.703125 38.625 51.609375 34.640625 
Q 55.515625 30.671875 55.515625 23.484375 
Q 55.515625 12.453125 46.84375 5.515625 
Q 38.1875 -1.421875 24.03125 -1.421875 
Q 18.21875 -1.421875 12.359375 -0.265625 
Q 6.5 0.875 0.59375 3.21875 
L 2.59375 13.375 
Q 8.015625 10.015625 13.453125 8.296875 
Q 18.890625 6.59375 24.3125 6.59375 
Q 33.546875 6.59375 39.109375 10.6875 
Q 44.671875 14.796875 44.671875 21.390625 
Q 44.671875 25.78125 42.453125 28.046875 
Q 40.234375 30.328125 32.90625 32.171875 
L 27 33.6875 
Q 16.890625 36.328125 13.203125 39.765625 
Q 9.515625 43.21875 9.515625 49.421875 
Q 9.515625 60.296875 17.890625 67.25 
Q 26.265625 74.21875 39.703125 74.21875 
Q 44.921875 74.21875 50.046875 73.28125 
Q 55.171875 72.359375 60.296875 70.515625 
z
" id="DejaVuSans-Oblique-83"/>
      <path d="M 10.6875 12.40625 
L 21 12.40625 
L 21 0 
L 10.6875 0 
z
" id="DejaVuSans-46"/>
      <path d="M 53.71875 31.203125 
L 47.609375 0 
L 38.625 0 
L 40.28125 8.296875 
Q 36.328125 3.421875 31.265625 1 
Q 26.21875 -1.421875 20.015625 -1.421875 
Q 13.03125 -1.421875 8.5625 2.84375 
Q 4.109375 7.125 4.109375 13.8125 
Q 4.109375 23.390625 11.75 28.953125 
Q 19.390625 34.515625 32.8125 34.515625 
L 45.3125 34.515625 
L 45.796875 36.921875 
Q 45.90625 37.3125 45.953125 37.765625 
Q 46 38.234375 46 39.203125 
Q 46 43.5625 42.453125 45.96875 
Q 38.921875 48.390625 32.515625 48.390625 
Q 28.125 48.390625 23.5 47.265625 
Q 18.890625 46.140625 14.015625 43.890625 
L 15.578125 52.203125 
Q 20.65625 54.109375 25.515625 55.046875 
Q 30.375 56 34.90625 56 
Q 44.578125 56 49.625 51.796875 
Q 54.6875 47.609375 54.6875 39.59375 
Q 54.6875 37.984375 54.4375 35.8125 
Q 54.203125 33.640625 53.71875 31.203125 
z
M 44 27.484375 
L 35.015625 27.484375 
Q 23.96875 27.484375 18.671875 24.53125 
Q 13.375 21.578125 13.375 15.375 
Q 13.375 11.078125 16.078125 8.640625 
Q 18.796875 6.203125 23.578125 6.203125 
Q 30.90625 6.203125 36.375 11.453125 
Q 41.84375 16.703125 43.609375 25.484375 
z
" id="DejaVuSans-Oblique-97"/>
      <path d="M 6.6875 21.6875 
L 13.09375 54.6875 
L 22.125 54.6875 
L 15.71875 22.015625 
Q 15.234375 19.625 15.015625 17.921875 
Q 14.796875 16.21875 14.796875 15.09375 
Q 14.796875 10.9375 17.328125 8.65625 
Q 19.875 6.390625 24.515625 6.390625 
Q 31.734375 6.390625 37 11.265625 
Q 42.28125 16.15625 43.890625 24.421875 
L 49.90625 54.6875 
L 58.890625 54.6875 
L 48.296875 0 
L 39.3125 0 
L 41.109375 8.59375 
Q 37.3125 3.8125 32.0625 1.1875 
Q 26.8125 -1.421875 20.90625 -1.421875 
Q 13.71875 -1.421875 9.71875 2.515625 
Q 5.71875 6.453125 5.71875 13.484375 
Q 5.71875 14.9375 5.953125 17.140625 
Q 6.203125 19.34375 6.6875 21.6875 
z
" id="DejaVuSans-Oblique-117"/>
      <path d="M 44.578125 46.390625 
Q 43.21875 47.125 41.453125 47.515625 
Q 39.703125 47.90625 37.703125 47.90625 
Q 30.515625 47.90625 25.140625 42.453125 
Q 19.78125 37.015625 18.015625 27.875 
L 12.5 0 
L 3.515625 0 
L 14.203125 54.6875 
L 23.1875 54.6875 
L 21.484375 46.1875 
Q 25.046875 50.921875 30 53.453125 
Q 34.96875 56 40.578125 56 
Q 42.046875 56 43.453125 55.828125 
Q 44.875 55.671875 46.296875 55.28125 
z
" id="DejaVuSans-Oblique-114"/>
      <path d="M 48.09375 32.234375 
Q 48.25 33.015625 48.3125 33.84375 
Q 48.390625 34.671875 48.390625 35.5 
Q 48.390625 41.453125 44.890625 44.921875 
Q 41.40625 48.390625 35.40625 48.390625 
Q 28.71875 48.390625 23.578125 44.15625 
Q 18.453125 39.9375 15.828125 32.171875 
z
M 55.90625 25.203125 
L 14.109375 25.203125 
Q 13.8125 23.34375 13.71875 22.265625 
Q 13.625 21.1875 13.625 20.40625 
Q 13.625 13.625 17.796875 9.90625 
Q 21.96875 6.203125 29.59375 6.203125 
Q 35.453125 6.203125 40.671875 7.515625 
Q 45.90625 8.84375 50.390625 11.375 
L 48.6875 2.484375 
Q 43.84375 0.53125 38.6875 -0.4375 
Q 33.546875 -1.421875 28.21875 -1.421875 
Q 16.84375 -1.421875 10.71875 4.015625 
Q 4.59375 9.46875 4.59375 19.484375 
Q 4.59375 28.03125 7.640625 35.375 
Q 10.6875 42.71875 16.609375 48.484375 
Q 20.40625 52.09375 25.65625 54.046875 
Q 30.90625 56 36.8125 56 
Q 46.09375 56 51.578125 50.4375 
Q 57.078125 44.875 57.078125 35.5 
Q 57.078125 33.25 56.78125 30.6875 
Q 56.5 28.125 55.90625 25.203125 
z
" id="DejaVuSans-Oblique-101"/>
      <path d="M 50 53.078125 
L 48.296875 44.578125 
Q 44.734375 46.53125 40.765625 47.5 
Q 36.8125 48.484375 32.625 48.484375 
Q 25.53125 48.484375 21.453125 46.0625 
Q 17.390625 43.65625 17.390625 39.5 
Q 17.390625 34.671875 26.859375 32.078125 
Q 27.59375 31.890625 27.9375 31.78125 
L 30.8125 30.90625 
Q 39.796875 28.421875 42.796875 25.6875 
Q 45.796875 22.953125 45.796875 18.21875 
Q 45.796875 9.515625 38.890625 4.046875 
Q 31.984375 -1.421875 20.796875 -1.421875 
Q 16.453125 -1.421875 11.671875 -0.578125 
Q 6.890625 0.25 1.125 2 
L 2.875 11.28125 
Q 7.8125 8.734375 12.59375 7.421875 
Q 17.390625 6.109375 21.78125 6.109375 
Q 28.375 6.109375 32.5 8.9375 
Q 36.625 11.765625 36.625 16.109375 
Q 36.625 20.796875 25.78125 23.6875 
L 24.859375 23.921875 
L 21.78125 24.703125 
Q 14.9375 26.515625 11.765625 29.46875 
Q 8.59375 32.421875 8.59375 37.015625 
Q 8.59375 45.75 15.15625 50.875 
Q 21.734375 56 33.015625 56 
Q 37.453125 56 41.671875 55.265625 
Q 45.90625 54.546875 50 53.078125 
z
" id="DejaVuSans-Oblique-115"/>
     </defs>
     <g transform="translate(105.8 57.66)scale(0.14 -0.14)">
      <use transform="translate(0 0.78125)" xlink:href="#ArialMT-65"/>
      <use transform="translate(66.699219 0.78125)" xlink:href="#ArialMT-108"/>
      <use transform="translate(88.916016 0.78125)" xlink:href="#ArialMT-108"/>
      <use transform="translate(111.132812 0.78125)" xlink:href="#ArialMT-32"/>
      <use transform="translate(138.916016 0.78125)" xlink:href="#DejaVuSans-Oblique-83"/>
      <use transform="translate(202.392578 0.78125)" xlink:href="#DejaVuSans-46"/>
      <use transform="translate(253.662109 0.78125)" xlink:href="#DejaVuSans-Oblique-97"/>
      <use transform="translate(314.941406 0.78125)" xlink:href="#DejaVuSans-Oblique-117"/>
      <use transform="translate(378.320312 0.78125)" xlink:href="#DejaVuSans-Oblique-114"/>
      <use transform="translate(419.433594 0.78125)" xlink:href="#DejaVuSans-Oblique-101"/>
      <use transform="translate(480.957031 0.78125)" xlink:href="#DejaVuSans-Oblique-117"/>
      <use transform="translate(544.335938 0.78125)" xlink:href="#DejaVuSans-Oblique-115"/>
      <use transform="translate(596.435547 0.78125)" xlink:href="#ArialMT-32"/>
      <use transform="translate(624.21875 0.78125)" xlink:href="#ArialMT-115"/>
      <use transform="translate(674.21875 0.78125)" xlink:href="#ArialMT-97"/>
      <use transform="translate(729.833984 0.78125)" xlink:href="#ArialMT-109"/>
      <use transform="translate(813.134766 0.78125)" xlink:href="#ArialMT-112"/>
      <use transform="translate(868.75 0.78125)" xlink:href="#ArialMT-108"/>
      <use transform="translate(890.966797 0.78125)" xlink:href="#ArialMT-101"/>
      <use transform="translate(946.582031 0.78125)" xlink:href="#ArialMT-115"/>
     </g>
    </g>
    <g id="line2d_46">
     <path d="M 66.6 72.751563 
L 94.6 72.751563 
" style="fill:none;stroke:#3d9690;stroke-linecap:square;stroke-width:1.5;"/>
    </g>
    <g id="line2d_47"/>
    <g id="text_18">
     <!-- USA300 Samples -->
     <defs>
      <path d="M 54.6875 71.578125 
L 64.15625 71.578125 
L 64.15625 30.21875 
Q 64.15625 19.4375 61.71875 13.078125 
Q 59.28125 6.734375 52.90625 2.75 
Q 46.53125 -1.21875 36.1875 -1.21875 
Q 26.125 -1.21875 19.71875 2.25 
Q 13.328125 5.71875 10.59375 12.28125 
Q 7.859375 18.84375 7.859375 30.21875 
L 7.859375 71.578125 
L 17.328125 71.578125 
L 17.328125 30.28125 
Q 17.328125 20.953125 19.0625 16.53125 
Q 20.796875 12.109375 25.015625 9.71875 
Q 29.25 7.328125 35.359375 7.328125 
Q 45.796875 7.328125 50.234375 12.0625 
Q 54.6875 16.796875 54.6875 30.28125 
z
" id="ArialMT-85"/>
     </defs>
     <g transform="translate(105.8 77.651563)scale(0.14 -0.14)">
      <use xlink:href="#ArialMT-85"/>
      <use x="72.216797" xlink:href="#ArialMT-83"/>
      <use x="138.916016" xlink:href="#ArialMT-65"/>
      <use x="205.615234" xlink:href="#ArialMT-51"/>
      <use x="261.230469" xlink:href="#ArialMT-48"/>
      <use x="316.845703" xlink:href="#ArialMT-48"/>
      <use x="372.460938" xlink:href="#ArialMT-32"/>
      <use x="400.244141" xlink:href="#ArialMT-83"/>
      <use x="466.943359" xlink:href="#ArialMT-97"/>
      <use x="522.558594" xlink:href="#ArialMT-109"/>
      <use x="605.859375" xlink:href="#ArialMT-112"/>
      <use x="661.474609" xlink:href="#ArialMT-108"/>
      <use x="683.691406" xlink:href="#ArialMT-101"/>
      <use x="739.306641" xlink:href="#ArialMT-115"/>
     </g>
    </g>
   </g>
  </g>
 </g>
 <defs>
  <clipPath id="p38173f5fa0">
   <rect height="195.84" width="334.8" x="54" y="34.56"/>
  </clipPath>
 </defs>
</svg>
